M48
;DRILL file {KiCad (5.0.0)} date 08/31/18 23:56:32
;FORMAT={-:-/ absolute / metric / decimal}
FMAT,2
METRIC,TZ
T1C0.350
T2C0.400
T3C0.762
T4C0.800
T5C1.000
T6C1.100
T7C1.600
%
G90
G05
M71
T2
X83.2Y-173.73
X83.913Y-154.73
X84.421Y-135.73
X84.929Y-116.73
X88.011Y-61.468
X93.98Y-49.911
X98.679Y-54.61
X99.441Y-51.689
X122.725Y-78.73
X123.4Y-97.73
X157.607Y-54.229
X64.Y-92.29
X64.Y-95.55
X140.Y-73.29
X140.Y-76.55
X140.Y-168.29
X140.Y-171.55
X140.Y-130.29
X140.Y-133.55
X105.Y-73.29
X105.Y-76.55
X102.Y-111.29
X102.Y-114.55
X105.Y-149.29
X105.Y-152.55
X140.Y-92.29
X140.Y-95.55
X108.077Y-55.118
X111.337Y-55.118
X102.Y-168.29
X102.Y-171.55
X102.Y-92.29
X102.Y-95.55
X64.Y-73.29
X64.Y-76.55
X143.Y-92.29
X143.Y-95.55
X143.Y-130.29
X143.Y-133.55
X140.Y-149.29
X140.Y-152.55
X67.Y-130.29
X67.Y-133.55
X67.Y-168.29
X67.Y-171.55
X105.Y-130.29
X105.Y-133.55
X143.Y-111.29
X143.Y-114.55
X67.Y-149.29
X67.Y-152.55
X102.Y-149.29
X102.Y-152.55
X102.Y-73.29
X102.Y-76.55
X143.Y-168.29
X143.Y-171.55
X105.Y-168.29
X105.Y-171.55
X64.Y-111.29
X64.Y-114.55
X67.Y-73.29
X67.Y-76.55
X64.Y-149.29
X64.Y-152.55
X143.Y-149.29
X143.Y-152.55
X143.Y-73.29
X143.Y-76.55
X67.Y-111.29
X67.Y-114.55
X102.Y-130.29
X102.Y-133.55
X64.Y-168.29
X64.Y-171.55
X108.098Y-51.816
X111.358Y-51.816
X140.Y-111.29
X140.Y-114.55
X105.Y-111.29
X105.Y-114.55
X105.Y-92.29
X105.Y-95.55
X64.Y-130.29
X64.Y-133.55
X67.Y-92.29
X67.Y-95.55
T3
X94.422Y-43.688
X94.422Y-61.468
X96.962Y-43.688
X96.962Y-61.468
X99.502Y-43.688
X99.502Y-61.468
X102.042Y-43.688
X102.042Y-61.468
X104.582Y-43.688
X104.582Y-61.468
X107.122Y-43.688
X107.122Y-61.468
X109.662Y-43.688
X109.662Y-61.468
X112.202Y-43.688
X112.202Y-61.468
X114.742Y-43.688
X114.742Y-61.468
X117.282Y-43.688
X117.282Y-61.468
X119.822Y-43.688
X119.822Y-61.468
X122.362Y-43.688
X122.362Y-61.468
X124.902Y-43.688
X124.902Y-61.468
X127.442Y-43.688
X127.442Y-61.468
X129.982Y-43.688
X129.982Y-61.468
X132.522Y-43.688
X132.522Y-61.468
X135.062Y-43.688
X135.062Y-61.468
T4
X127.442Y-64.389
X127.442Y-40.767
X143.Y-147.11
X143.Y-154.73
X143.Y-71.11
X143.Y-78.73
X117.282Y-40.767
X67.Y-109.11
X67.Y-116.73
X102.Y-128.11
X102.Y-135.73
X64.Y-166.11
X64.Y-173.73
X114.742Y-64.389
X132.522Y-64.389
X105.918Y-51.816
X113.538Y-51.816
X107.122Y-40.767
X140.Y-109.11
X140.Y-116.73
X105.Y-109.11
X105.Y-116.73
X124.902Y-40.767
X105.Y-90.11
X105.Y-97.73
X64.Y-128.11
X64.Y-135.73
X67.Y-90.11
X67.Y-97.73
X129.982Y-64.389
X135.062Y-64.389
X64.Y-90.11
X64.Y-97.73
X140.Y-71.11
X140.Y-78.73
X112.202Y-40.767
X140.Y-166.11
X140.Y-173.73
X122.362Y-40.767
X140.Y-128.11
X140.Y-135.73
X105.Y-71.11
X105.Y-78.73
X102.Y-109.11
X102.Y-116.73
X112.202Y-64.389
X99.502Y-40.767
X147.32Y-45.72
X105.Y-147.11
X105.Y-154.73
X140.Y-90.11
X140.Y-97.73
X109.662Y-40.767
X105.897Y-55.118
X113.517Y-55.118
X147.32Y-43.18
X102.Y-166.11
X102.Y-173.73
X102.Y-90.11
X102.Y-97.73
X117.282Y-64.389
X104.582Y-40.767
X99.502Y-64.389
X64.Y-71.11
X64.Y-78.73
X143.Y-90.11
X143.Y-97.73
X143.Y-128.11
X143.Y-135.73
X114.742Y-40.767
X140.Y-147.11
X140.Y-154.73
X67.Y-128.11
X67.Y-135.73
X67.Y-166.11
X67.Y-173.73
X122.362Y-64.389
X124.902Y-64.389
X96.962Y-64.389
X102.042Y-40.767
X105.Y-128.11
X105.Y-135.73
X132.522Y-40.767
X143.Y-109.11
X143.Y-116.73
X119.822Y-40.767
X67.Y-147.11
X67.Y-154.73
X102.Y-147.11
X102.Y-154.73
X102.Y-71.11
X102.Y-78.73
X102.042Y-64.389
X119.822Y-64.389
X107.122Y-64.389
X135.062Y-40.767
X143.Y-166.11
X143.Y-173.73
X105.Y-166.11
X105.Y-173.73
X129.982Y-40.767
X64.Y-109.11
X64.Y-116.73
X67.Y-71.11
X67.Y-78.73
X64.Y-147.11
X64.Y-154.73
X109.662Y-64.389
T6
X151.Y-58.
X151.Y-62.5
X157.5Y-58.
X157.5Y-62.5
T7
X71.19Y-129.46
X72.46Y-126.92
X77.54Y-126.92
X78.81Y-129.46
X147.19Y-91.46
X148.46Y-88.92
X153.54Y-88.92
X154.81Y-91.46
X52.19Y-91.46
X53.46Y-88.92
X58.54Y-88.92
X59.81Y-91.46
X109.19Y-148.46
X110.46Y-145.92
X115.54Y-145.92
X116.81Y-148.46
X90.19Y-72.46
X91.46Y-69.92
X96.54Y-69.92
X97.81Y-72.46
X147.19Y-148.46
X148.46Y-145.92
X153.54Y-145.92
X154.81Y-148.46
X71.19Y-110.46
X72.46Y-107.92
X77.54Y-107.92
X78.81Y-110.46
X128.19Y-148.46
X129.46Y-145.92
X134.54Y-145.92
X135.81Y-148.46
X52.19Y-167.46
X53.46Y-164.92
X58.54Y-164.92
X59.81Y-167.46
X109.19Y-129.46
X110.46Y-126.92
X115.54Y-126.92
X116.81Y-129.46
X147.19Y-129.46
X148.46Y-126.92
X153.54Y-126.92
X154.81Y-129.46
X71.19Y-91.46
X72.46Y-88.92
X77.54Y-88.92
X78.81Y-91.46
X128.19Y-72.46
X129.46Y-69.92
X134.54Y-69.92
X135.81Y-72.46
X52.19Y-72.46
X53.46Y-69.92
X58.54Y-69.92
X59.81Y-72.46
X128.19Y-129.46
X129.46Y-126.92
X134.54Y-126.92
X135.81Y-129.46
X147.19Y-110.46
X148.46Y-107.92
X153.54Y-107.92
X154.81Y-110.46
X90.19Y-167.46
X91.46Y-164.92
X96.54Y-164.92
X97.81Y-167.46
X109.19Y-91.46
X110.46Y-88.92
X115.54Y-88.92
X116.81Y-91.46
X71.19Y-72.46
X72.46Y-69.92
X77.54Y-69.92
X78.81Y-72.46
X128.19Y-91.46
X129.46Y-88.92
X134.54Y-88.92
X135.81Y-91.46
X128.19Y-167.46
X129.46Y-164.92
X134.54Y-164.92
X135.81Y-167.46
X90.19Y-129.46
X91.46Y-126.92
X96.54Y-126.92
X97.81Y-129.46
X90.19Y-110.46
X91.46Y-107.92
X96.54Y-107.92
X97.81Y-110.46
X128.19Y-110.46
X129.46Y-107.92
X134.54Y-107.92
X135.81Y-110.46
X52.19Y-129.46
X53.46Y-126.92
X58.54Y-126.92
X59.81Y-129.46
X109.19Y-110.46
X110.46Y-107.92
X115.54Y-107.92
X116.81Y-110.46
X71.19Y-167.46
X72.46Y-164.92
X77.54Y-164.92
X78.81Y-167.46
X71.19Y-148.46
X72.46Y-145.92
X77.54Y-145.92
X78.81Y-148.46
X109.19Y-167.46
X110.46Y-164.92
X115.54Y-164.92
X116.81Y-167.46
X52.19Y-110.46
X53.46Y-107.92
X58.54Y-107.92
X59.81Y-110.46
X147.19Y-167.46
X148.46Y-164.92
X153.54Y-164.92
X154.81Y-167.46
X90.19Y-148.46
X91.46Y-145.92
X96.54Y-145.92
X97.81Y-148.46
X90.19Y-91.46
X91.46Y-88.92
X96.54Y-88.92
X97.81Y-91.46
X147.19Y-72.46
X148.46Y-69.92
X153.54Y-69.92
X154.81Y-72.46
X52.19Y-148.46
X53.46Y-145.92
X58.54Y-145.92
X59.81Y-148.46
X109.19Y-72.46
X110.46Y-69.92
X115.54Y-69.92
X116.81Y-72.46
T1
X151.5Y-50.425G85X151.5Y-51.175
G05
X152.932Y-41.925G85X152.932Y-42.675
G05
X152.932Y-44.925G85X152.932Y-45.675
G05
X152.932Y-48.925G85X152.932Y-49.675
G05
X155.5Y-41.925G85X155.5Y-42.675
G05
X155.5Y-44.925G85X155.5Y-45.675
G05
X155.5Y-48.925G85X155.5Y-49.675
G05
X156.932Y-50.425G85X156.932Y-51.175
G05
T5
X72.263Y-127.291G85X71.387Y-129.089
G05
X77.737Y-127.291G85X78.613Y-129.089
G05
X148.263Y-89.291G85X147.387Y-91.089
G05
X153.737Y-89.291G85X154.613Y-91.089
G05
X53.263Y-89.291G85X52.387Y-91.089
G05
X58.737Y-89.291G85X59.613Y-91.089
G05
X110.263Y-146.291G85X109.387Y-148.089
G05
X115.737Y-146.291G85X116.613Y-148.089
G05
X91.263Y-70.291G85X90.387Y-72.089
G05
X96.737Y-70.291G85X97.613Y-72.089
G05
X148.263Y-146.291G85X147.387Y-148.089
G05
X153.737Y-146.291G85X154.613Y-148.089
G05
X72.263Y-108.291G85X71.387Y-110.089
G05
X77.737Y-108.291G85X78.613Y-110.089
G05
X129.263Y-146.291G85X128.387Y-148.089
G05
X134.737Y-146.291G85X135.613Y-148.089
G05
X53.263Y-165.291G85X52.387Y-167.089
G05
X58.737Y-165.291G85X59.613Y-167.089
G05
X110.263Y-127.291G85X109.387Y-129.089
G05
X115.737Y-127.291G85X116.613Y-129.089
G05
X148.263Y-127.291G85X147.387Y-129.089
G05
X153.737Y-127.291G85X154.613Y-129.089
G05
X72.263Y-89.291G85X71.387Y-91.089
G05
X77.737Y-89.291G85X78.613Y-91.089
G05
X129.263Y-70.291G85X128.387Y-72.089
G05
X134.737Y-70.291G85X135.613Y-72.089
G05
X53.263Y-70.291G85X52.387Y-72.089
G05
X58.737Y-70.291G85X59.613Y-72.089
G05
X129.263Y-127.291G85X128.387Y-129.089
G05
X134.737Y-127.291G85X135.613Y-129.089
G05
X148.263Y-108.291G85X147.387Y-110.089
G05
X153.737Y-108.291G85X154.613Y-110.089
G05
X91.263Y-165.291G85X90.387Y-167.089
G05
X96.737Y-165.291G85X97.613Y-167.089
G05
X110.263Y-89.291G85X109.387Y-91.089
G05
X115.737Y-89.291G85X116.613Y-91.089
G05
X72.263Y-70.291G85X71.387Y-72.089
G05
X77.737Y-70.291G85X78.613Y-72.089
G05
X129.263Y-89.291G85X128.387Y-91.089
G05
X134.737Y-89.291G85X135.613Y-91.089
G05
X129.263Y-165.291G85X128.387Y-167.089
G05
X134.737Y-165.291G85X135.613Y-167.089
G05
X91.263Y-127.291G85X90.387Y-129.089
G05
X96.737Y-127.291G85X97.613Y-129.089
G05
X91.263Y-108.291G85X90.387Y-110.089
G05
X96.737Y-108.291G85X97.613Y-110.089
G05
X129.263Y-108.291G85X128.387Y-110.089
G05
X134.737Y-108.291G85X135.613Y-110.089
G05
X53.263Y-127.291G85X52.387Y-129.089
G05
X58.737Y-127.291G85X59.613Y-129.089
G05
X110.263Y-108.291G85X109.387Y-110.089
G05
X115.737Y-108.291G85X116.613Y-110.089
G05
X72.263Y-165.291G85X71.387Y-167.089
G05
X77.737Y-165.291G85X78.613Y-167.089
G05
X72.263Y-146.291G85X71.387Y-148.089
G05
X77.737Y-146.291G85X78.613Y-148.089
G05
X110.263Y-165.291G85X109.387Y-167.089
G05
X115.737Y-165.291G85X116.613Y-167.089
G05
X53.263Y-108.291G85X52.387Y-110.089
G05
X58.737Y-108.291G85X59.613Y-110.089
G05
X148.263Y-165.291G85X147.387Y-167.089
G05
X153.737Y-165.291G85X154.613Y-167.089
G05
X91.263Y-146.291G85X90.387Y-148.089
G05
X96.737Y-146.291G85X97.613Y-148.089
G05
X91.263Y-89.291G85X90.387Y-91.089
G05
X96.737Y-89.291G85X97.613Y-91.089
G05
X148.263Y-70.291G85X147.387Y-72.089
G05
X153.737Y-70.291G85X154.613Y-72.089
G05
X53.263Y-146.291G85X52.387Y-148.089
G05
X58.737Y-146.291G85X59.613Y-148.089
G05
X110.263Y-70.291G85X109.387Y-72.089
G05
X115.737Y-70.291G85X116.613Y-72.089
G05
T0
M30
