G04 #@! TF.GenerationSoftware,KiCad,Pcbnew,(5.0.0)*
G04 #@! TF.CreationDate,2018-09-01T09:01:24+09:00*
G04 #@! TF.ProjectId,pillcase36,70696C6C6361736533362E6B69636164,rev?*
G04 #@! TF.SameCoordinates,Original*
G04 #@! TF.FileFunction,Legend,Bot*
G04 #@! TF.FilePolarity,Positive*
%FSLAX46Y46*%
G04 Gerber Fmt 4.6, Leading zero omitted, Abs format (unit mm)*
G04 Created by KiCad (PCBNEW (5.0.0)) date 09/01/18 09:01:24*
%MOMM*%
%LPD*%
G01*
G04 APERTURE LIST*
%ADD10C,0.200000*%
%ADD11C,0.010000*%
%ADD12C,0.150000*%
%ADD13C,0.100000*%
%ADD14C,0.120000*%
%ADD15C,2.400000*%
%ADD16C,2.400000*%
%ADD17C,3.000000*%
%ADD18C,2.101800*%
%ADD19C,4.387800*%
%ADD20C,1.390600*%
%ADD21O,1.250000X2.152600*%
%ADD22R,1.600000X2.000000*%
%ADD23R,2.000000X2.000000*%
%ADD24O,2.000000X2.000000*%
%ADD25R,2.000000X1.600000*%
%ADD26C,1.924000*%
%ADD27R,0.908000X1.543000*%
%ADD28R,1.400000X0.900000*%
%ADD29R,0.700000X0.900000*%
%ADD30C,1.900000*%
%ADD31R,1.150000X1.200000*%
%ADD32C,5.400000*%
G04 APERTURE END LIST*
D10*
X145071428Y-49952380D02*
X145071428Y-48952380D01*
X144690476Y-48952380D01*
X144595238Y-49000000D01*
X144547619Y-49047619D01*
X144500000Y-49142857D01*
X144500000Y-49285714D01*
X144547619Y-49380952D01*
X144595238Y-49428571D01*
X144690476Y-49476190D01*
X145071428Y-49476190D01*
X144071428Y-49952380D02*
X144071428Y-48952380D01*
X143119047Y-49952380D02*
X143595238Y-49952380D01*
X143595238Y-48952380D01*
X142309523Y-49952380D02*
X142785714Y-49952380D01*
X142785714Y-48952380D01*
X141404761Y-49857142D02*
X141452380Y-49904761D01*
X141595238Y-49952380D01*
X141690476Y-49952380D01*
X141833333Y-49904761D01*
X141928571Y-49809523D01*
X141976190Y-49714285D01*
X142023809Y-49523809D01*
X142023809Y-49380952D01*
X141976190Y-49190476D01*
X141928571Y-49095238D01*
X141833333Y-49000000D01*
X141690476Y-48952380D01*
X141595238Y-48952380D01*
X141452380Y-49000000D01*
X141404761Y-49047619D01*
X141023809Y-49666666D02*
X140547619Y-49666666D01*
X141119047Y-49952380D02*
X140785714Y-48952380D01*
X140452380Y-49952380D01*
X140166666Y-49904761D02*
X140023809Y-49952380D01*
X139785714Y-49952380D01*
X139690476Y-49904761D01*
X139642857Y-49857142D01*
X139595238Y-49761904D01*
X139595238Y-49666666D01*
X139642857Y-49571428D01*
X139690476Y-49523809D01*
X139785714Y-49476190D01*
X139976190Y-49428571D01*
X140071428Y-49380952D01*
X140119047Y-49333333D01*
X140166666Y-49238095D01*
X140166666Y-49142857D01*
X140119047Y-49047619D01*
X140071428Y-49000000D01*
X139976190Y-48952380D01*
X139738095Y-48952380D01*
X139595238Y-49000000D01*
X139166666Y-49428571D02*
X138833333Y-49428571D01*
X138690476Y-49952380D02*
X139166666Y-49952380D01*
X139166666Y-48952380D01*
X138690476Y-48952380D01*
X138357142Y-48952380D02*
X137738095Y-48952380D01*
X138071428Y-49333333D01*
X137928571Y-49333333D01*
X137833333Y-49380952D01*
X137785714Y-49428571D01*
X137738095Y-49523809D01*
X137738095Y-49761904D01*
X137785714Y-49857142D01*
X137833333Y-49904761D01*
X137928571Y-49952380D01*
X138214285Y-49952380D01*
X138309523Y-49904761D01*
X138357142Y-49857142D01*
X136880952Y-48952380D02*
X137071428Y-48952380D01*
X137166666Y-49000000D01*
X137214285Y-49047619D01*
X137309523Y-49190476D01*
X137357142Y-49380952D01*
X137357142Y-49761904D01*
X137309523Y-49857142D01*
X137261904Y-49904761D01*
X137166666Y-49952380D01*
X136976190Y-49952380D01*
X136880952Y-49904761D01*
X136833333Y-49857142D01*
X136785714Y-49761904D01*
X136785714Y-49523809D01*
X136833333Y-49428571D01*
X136880952Y-49380952D01*
X136976190Y-49333333D01*
X137166666Y-49333333D01*
X137261904Y-49380952D01*
X137309523Y-49428571D01*
X137357142Y-49523809D01*
X135690476Y-49285714D02*
X135452380Y-49952380D01*
X135214285Y-49285714D01*
X134309523Y-49952380D02*
X134880952Y-49952380D01*
X134595238Y-49952380D02*
X134595238Y-48952380D01*
X134690476Y-49095238D01*
X134785714Y-49190476D01*
X134880952Y-49238095D01*
X133880952Y-49857142D02*
X133833333Y-49904761D01*
X133880952Y-49952380D01*
X133928571Y-49904761D01*
X133880952Y-49857142D01*
X133880952Y-49952380D01*
X133214285Y-48952380D02*
X133119047Y-48952380D01*
X133023809Y-49000000D01*
X132976190Y-49047619D01*
X132928571Y-49142857D01*
X132880952Y-49333333D01*
X132880952Y-49571428D01*
X132928571Y-49761904D01*
X132976190Y-49857142D01*
X133023809Y-49904761D01*
X133119047Y-49952380D01*
X133214285Y-49952380D01*
X133309523Y-49904761D01*
X133357142Y-49857142D01*
X133404761Y-49761904D01*
X133452380Y-49571428D01*
X133452380Y-49333333D01*
X133404761Y-49142857D01*
X133357142Y-49047619D01*
X133309523Y-49000000D01*
X133214285Y-48952380D01*
X143714285Y-51176190D02*
X143761904Y-51128571D01*
X143857142Y-51080952D01*
X143952380Y-51080952D01*
X144047619Y-51128571D01*
X144095238Y-51176190D01*
X144142857Y-51271428D01*
X144142857Y-51366666D01*
X144095238Y-51461904D01*
X144047619Y-51509523D01*
X143952380Y-51557142D01*
X143857142Y-51557142D01*
X143761904Y-51509523D01*
X143714285Y-51461904D01*
X143714285Y-51080952D02*
X143714285Y-51461904D01*
X143666666Y-51509523D01*
X143619047Y-51509523D01*
X143523809Y-51461904D01*
X143476190Y-51366666D01*
X143476190Y-51128571D01*
X143571428Y-50985714D01*
X143714285Y-50890476D01*
X143904761Y-50842857D01*
X144095238Y-50890476D01*
X144238095Y-50985714D01*
X144333333Y-51128571D01*
X144380952Y-51319047D01*
X144333333Y-51509523D01*
X144238095Y-51652380D01*
X144095238Y-51747619D01*
X143904761Y-51795238D01*
X143714285Y-51747619D01*
X143571428Y-51652380D01*
X143047619Y-51652380D02*
X143047619Y-50652380D01*
X142666666Y-50652380D01*
X142571428Y-50700000D01*
X142523809Y-50747619D01*
X142476190Y-50842857D01*
X142476190Y-50985714D01*
X142523809Y-51080952D01*
X142571428Y-51128571D01*
X142666666Y-51176190D01*
X143047619Y-51176190D01*
X141666666Y-51604761D02*
X141761904Y-51652380D01*
X141952380Y-51652380D01*
X142047619Y-51604761D01*
X142095238Y-51509523D01*
X142095238Y-51128571D01*
X142047619Y-51033333D01*
X141952380Y-50985714D01*
X141761904Y-50985714D01*
X141666666Y-51033333D01*
X141619047Y-51128571D01*
X141619047Y-51223809D01*
X142095238Y-51319047D01*
X141190476Y-51652380D02*
X141190476Y-50652380D01*
X141095238Y-51271428D02*
X140809523Y-51652380D01*
X140809523Y-50985714D02*
X141190476Y-51366666D01*
X139952380Y-51652380D02*
X139952380Y-51128571D01*
X140000000Y-51033333D01*
X140095238Y-50985714D01*
X140285714Y-50985714D01*
X140380952Y-51033333D01*
X139952380Y-51604761D02*
X140047619Y-51652380D01*
X140285714Y-51652380D01*
X140380952Y-51604761D01*
X140428571Y-51509523D01*
X140428571Y-51414285D01*
X140380952Y-51319047D01*
X140285714Y-51271428D01*
X140047619Y-51271428D01*
X139952380Y-51223809D01*
X139523809Y-51604761D02*
X139428571Y-51652380D01*
X139238095Y-51652380D01*
X139142857Y-51604761D01*
X139095238Y-51509523D01*
X139095238Y-51461904D01*
X139142857Y-51366666D01*
X139238095Y-51319047D01*
X139380952Y-51319047D01*
X139476190Y-51271428D01*
X139523809Y-51176190D01*
X139523809Y-51128571D01*
X139476190Y-51033333D01*
X139380952Y-50985714D01*
X139238095Y-50985714D01*
X139142857Y-51033333D01*
X138523809Y-51652380D02*
X138619047Y-51604761D01*
X138666666Y-51557142D01*
X138714285Y-51461904D01*
X138714285Y-51176190D01*
X138666666Y-51080952D01*
X138619047Y-51033333D01*
X138523809Y-50985714D01*
X138380952Y-50985714D01*
X138285714Y-51033333D01*
X138238095Y-51080952D01*
X138190476Y-51176190D01*
X138190476Y-51461904D01*
X138238095Y-51557142D01*
X138285714Y-51604761D01*
X138380952Y-51652380D01*
X138523809Y-51652380D01*
X137047619Y-50747619D02*
X137000000Y-50700000D01*
X136904761Y-50652380D01*
X136666666Y-50652380D01*
X136571428Y-50700000D01*
X136523809Y-50747619D01*
X136476190Y-50842857D01*
X136476190Y-50938095D01*
X136523809Y-51080952D01*
X137095238Y-51652380D01*
X136476190Y-51652380D01*
X135857142Y-50652380D02*
X135761904Y-50652380D01*
X135666666Y-50700000D01*
X135619047Y-50747619D01*
X135571428Y-50842857D01*
X135523809Y-51033333D01*
X135523809Y-51271428D01*
X135571428Y-51461904D01*
X135619047Y-51557142D01*
X135666666Y-51604761D01*
X135761904Y-51652380D01*
X135857142Y-51652380D01*
X135952380Y-51604761D01*
X136000000Y-51557142D01*
X136047619Y-51461904D01*
X136095238Y-51271428D01*
X136095238Y-51033333D01*
X136047619Y-50842857D01*
X136000000Y-50747619D01*
X135952380Y-50700000D01*
X135857142Y-50652380D01*
X134571428Y-51652380D02*
X135142857Y-51652380D01*
X134857142Y-51652380D02*
X134857142Y-50652380D01*
X134952380Y-50795238D01*
X135047619Y-50890476D01*
X135142857Y-50938095D01*
X134000000Y-51080952D02*
X134095238Y-51033333D01*
X134142857Y-50985714D01*
X134190476Y-50890476D01*
X134190476Y-50842857D01*
X134142857Y-50747619D01*
X134095238Y-50700000D01*
X134000000Y-50652380D01*
X133809523Y-50652380D01*
X133714285Y-50700000D01*
X133666666Y-50747619D01*
X133619047Y-50842857D01*
X133619047Y-50890476D01*
X133666666Y-50985714D01*
X133714285Y-51033333D01*
X133809523Y-51080952D01*
X134000000Y-51080952D01*
X134095238Y-51128571D01*
X134142857Y-51176190D01*
X134190476Y-51271428D01*
X134190476Y-51461904D01*
X134142857Y-51557142D01*
X134095238Y-51604761D01*
X134000000Y-51652380D01*
X133809523Y-51652380D01*
X133714285Y-51604761D01*
X133666666Y-51557142D01*
X133619047Y-51461904D01*
X133619047Y-51271428D01*
X133666666Y-51176190D01*
X133714285Y-51128571D01*
X133809523Y-51080952D01*
X147380952Y-55004761D02*
X147238095Y-55052380D01*
X147000000Y-55052380D01*
X146904761Y-55004761D01*
X146857142Y-54957142D01*
X146809523Y-54861904D01*
X146809523Y-54766666D01*
X146857142Y-54671428D01*
X146904761Y-54623809D01*
X147000000Y-54576190D01*
X147190476Y-54528571D01*
X147285714Y-54480952D01*
X147333333Y-54433333D01*
X147380952Y-54338095D01*
X147380952Y-54242857D01*
X147333333Y-54147619D01*
X147285714Y-54100000D01*
X147190476Y-54052380D01*
X146952380Y-54052380D01*
X146809523Y-54100000D01*
X146000000Y-55004761D02*
X146095238Y-55052380D01*
X146285714Y-55052380D01*
X146380952Y-55004761D01*
X146428571Y-54909523D01*
X146428571Y-54528571D01*
X146380952Y-54433333D01*
X146285714Y-54385714D01*
X146095238Y-54385714D01*
X146000000Y-54433333D01*
X145952380Y-54528571D01*
X145952380Y-54623809D01*
X146428571Y-54719047D01*
X145380952Y-55052380D02*
X145476190Y-55004761D01*
X145523809Y-54909523D01*
X145523809Y-54052380D01*
X145142857Y-54385714D02*
X144761904Y-54385714D01*
X145000000Y-55052380D02*
X145000000Y-54195238D01*
X144952380Y-54100000D01*
X144857142Y-54052380D01*
X144761904Y-54052380D01*
X144428571Y-54671428D02*
X143666666Y-54671428D01*
X143190476Y-55052380D02*
X143190476Y-54052380D01*
X142857142Y-54766666D01*
X142523809Y-54052380D01*
X142523809Y-55052380D01*
X141619047Y-55052380D02*
X141619047Y-54528571D01*
X141666666Y-54433333D01*
X141761904Y-54385714D01*
X141952380Y-54385714D01*
X142047619Y-54433333D01*
X141619047Y-55004761D02*
X141714285Y-55052380D01*
X141952380Y-55052380D01*
X142047619Y-55004761D01*
X142095238Y-54909523D01*
X142095238Y-54814285D01*
X142047619Y-54719047D01*
X141952380Y-54671428D01*
X141714285Y-54671428D01*
X141619047Y-54623809D01*
X140714285Y-55052380D02*
X140714285Y-54052380D01*
X140714285Y-55004761D02*
X140809523Y-55052380D01*
X141000000Y-55052380D01*
X141095238Y-55004761D01*
X141142857Y-54957142D01*
X141190476Y-54861904D01*
X141190476Y-54576190D01*
X141142857Y-54480952D01*
X141095238Y-54433333D01*
X141000000Y-54385714D01*
X140809523Y-54385714D01*
X140714285Y-54433333D01*
X139857142Y-55004761D02*
X139952380Y-55052380D01*
X140142857Y-55052380D01*
X140238095Y-55004761D01*
X140285714Y-54909523D01*
X140285714Y-54528571D01*
X140238095Y-54433333D01*
X140142857Y-54385714D01*
X139952380Y-54385714D01*
X139857142Y-54433333D01*
X139809523Y-54528571D01*
X139809523Y-54623809D01*
X140285714Y-54719047D01*
X138619047Y-55052380D02*
X138619047Y-54052380D01*
X138047619Y-55052380D02*
X138476190Y-54480952D01*
X138047619Y-54052380D02*
X138619047Y-54623809D01*
X137238095Y-55004761D02*
X137333333Y-55052380D01*
X137523809Y-55052380D01*
X137619047Y-55004761D01*
X137666666Y-54909523D01*
X137666666Y-54528571D01*
X137619047Y-54433333D01*
X137523809Y-54385714D01*
X137333333Y-54385714D01*
X137238095Y-54433333D01*
X137190476Y-54528571D01*
X137190476Y-54623809D01*
X137666666Y-54719047D01*
X136857142Y-54385714D02*
X136619047Y-55052380D01*
X136380952Y-54385714D02*
X136619047Y-55052380D01*
X136714285Y-55290476D01*
X136761904Y-55338095D01*
X136857142Y-55385714D01*
X136000000Y-55052380D02*
X136000000Y-54052380D01*
X136000000Y-54433333D02*
X135904761Y-54385714D01*
X135714285Y-54385714D01*
X135619047Y-54433333D01*
X135571428Y-54480952D01*
X135523809Y-54576190D01*
X135523809Y-54861904D01*
X135571428Y-54957142D01*
X135619047Y-55004761D01*
X135714285Y-55052380D01*
X135904761Y-55052380D01*
X136000000Y-55004761D01*
X134952380Y-55052380D02*
X135047619Y-55004761D01*
X135095238Y-54957142D01*
X135142857Y-54861904D01*
X135142857Y-54576190D01*
X135095238Y-54480952D01*
X135047619Y-54433333D01*
X134952380Y-54385714D01*
X134809523Y-54385714D01*
X134714285Y-54433333D01*
X134666666Y-54480952D01*
X134619047Y-54576190D01*
X134619047Y-54861904D01*
X134666666Y-54957142D01*
X134714285Y-55004761D01*
X134809523Y-55052380D01*
X134952380Y-55052380D01*
X133761904Y-55052380D02*
X133761904Y-54528571D01*
X133809523Y-54433333D01*
X133904761Y-54385714D01*
X134095238Y-54385714D01*
X134190476Y-54433333D01*
X133761904Y-55004761D02*
X133857142Y-55052380D01*
X134095238Y-55052380D01*
X134190476Y-55004761D01*
X134238095Y-54909523D01*
X134238095Y-54814285D01*
X134190476Y-54719047D01*
X134095238Y-54671428D01*
X133857142Y-54671428D01*
X133761904Y-54623809D01*
X133285714Y-55052380D02*
X133285714Y-54385714D01*
X133285714Y-54576190D02*
X133238095Y-54480952D01*
X133190476Y-54433333D01*
X133095238Y-54385714D01*
X133000000Y-54385714D01*
X132238095Y-55052380D02*
X132238095Y-54052380D01*
X132238095Y-55004761D02*
X132333333Y-55052380D01*
X132523809Y-55052380D01*
X132619047Y-55004761D01*
X132666666Y-54957142D01*
X132714285Y-54861904D01*
X132714285Y-54576190D01*
X132666666Y-54480952D01*
X132619047Y-54433333D01*
X132523809Y-54385714D01*
X132333333Y-54385714D01*
X132238095Y-54433333D01*
X131809523Y-55004761D02*
X131714285Y-55052380D01*
X131523809Y-55052380D01*
X131428571Y-55004761D01*
X131380952Y-54909523D01*
X131380952Y-54861904D01*
X131428571Y-54766666D01*
X131523809Y-54719047D01*
X131666666Y-54719047D01*
X131761904Y-54671428D01*
X131809523Y-54576190D01*
X131809523Y-54528571D01*
X131761904Y-54433333D01*
X131666666Y-54385714D01*
X131523809Y-54385714D01*
X131428571Y-54433333D01*
X147738095Y-56752380D02*
X147738095Y-56085714D01*
X147738095Y-55752380D02*
X147785714Y-55800000D01*
X147738095Y-55847619D01*
X147690476Y-55800000D01*
X147738095Y-55752380D01*
X147738095Y-55847619D01*
X147261904Y-56085714D02*
X147261904Y-56752380D01*
X147261904Y-56180952D02*
X147214285Y-56133333D01*
X147119047Y-56085714D01*
X146976190Y-56085714D01*
X146880952Y-56133333D01*
X146833333Y-56228571D01*
X146833333Y-56752380D01*
X145309523Y-55752380D02*
X145309523Y-56466666D01*
X145357142Y-56609523D01*
X145452380Y-56704761D01*
X145595238Y-56752380D01*
X145690476Y-56752380D01*
X144404761Y-56752380D02*
X144404761Y-56228571D01*
X144452380Y-56133333D01*
X144547619Y-56085714D01*
X144738095Y-56085714D01*
X144833333Y-56133333D01*
X144404761Y-56704761D02*
X144500000Y-56752380D01*
X144738095Y-56752380D01*
X144833333Y-56704761D01*
X144880952Y-56609523D01*
X144880952Y-56514285D01*
X144833333Y-56419047D01*
X144738095Y-56371428D01*
X144500000Y-56371428D01*
X144404761Y-56323809D01*
X143928571Y-56085714D02*
X143928571Y-57085714D01*
X143928571Y-56133333D02*
X143833333Y-56085714D01*
X143642857Y-56085714D01*
X143547619Y-56133333D01*
X143500000Y-56180952D01*
X143452380Y-56276190D01*
X143452380Y-56561904D01*
X143500000Y-56657142D01*
X143547619Y-56704761D01*
X143642857Y-56752380D01*
X143833333Y-56752380D01*
X143928571Y-56704761D01*
X142595238Y-56752380D02*
X142595238Y-56228571D01*
X142642857Y-56133333D01*
X142738095Y-56085714D01*
X142928571Y-56085714D01*
X143023809Y-56133333D01*
X142595238Y-56704761D02*
X142690476Y-56752380D01*
X142928571Y-56752380D01*
X143023809Y-56704761D01*
X143071428Y-56609523D01*
X143071428Y-56514285D01*
X143023809Y-56419047D01*
X142928571Y-56371428D01*
X142690476Y-56371428D01*
X142595238Y-56323809D01*
X142119047Y-56085714D02*
X142119047Y-56752380D01*
X142119047Y-56180952D02*
X142071428Y-56133333D01*
X141976190Y-56085714D01*
X141833333Y-56085714D01*
X141738095Y-56133333D01*
X141690476Y-56228571D01*
X141690476Y-56752380D01*
X140452380Y-56752380D02*
X140452380Y-55752380D01*
X140214285Y-55752380D01*
X140071428Y-55800000D01*
X139976190Y-55895238D01*
X139928571Y-55990476D01*
X139880952Y-56180952D01*
X139880952Y-56323809D01*
X139928571Y-56514285D01*
X139976190Y-56609523D01*
X140071428Y-56704761D01*
X140214285Y-56752380D01*
X140452380Y-56752380D01*
X139452380Y-56752380D02*
X139452380Y-56085714D01*
X139452380Y-55752380D02*
X139500000Y-55800000D01*
X139452380Y-55847619D01*
X139404761Y-55800000D01*
X139452380Y-55752380D01*
X139452380Y-55847619D01*
X139023809Y-56704761D02*
X138928571Y-56752380D01*
X138738095Y-56752380D01*
X138642857Y-56704761D01*
X138595238Y-56609523D01*
X138595238Y-56561904D01*
X138642857Y-56466666D01*
X138738095Y-56419047D01*
X138880952Y-56419047D01*
X138976190Y-56371428D01*
X139023809Y-56276190D01*
X139023809Y-56228571D01*
X138976190Y-56133333D01*
X138880952Y-56085714D01*
X138738095Y-56085714D01*
X138642857Y-56133333D01*
X137738095Y-56704761D02*
X137833333Y-56752380D01*
X138023809Y-56752380D01*
X138119047Y-56704761D01*
X138166666Y-56657142D01*
X138214285Y-56561904D01*
X138214285Y-56276190D01*
X138166666Y-56180952D01*
X138119047Y-56133333D01*
X138023809Y-56085714D01*
X137833333Y-56085714D01*
X137738095Y-56133333D01*
X137166666Y-56752380D02*
X137261904Y-56704761D01*
X137309523Y-56657142D01*
X137357142Y-56561904D01*
X137357142Y-56276190D01*
X137309523Y-56180952D01*
X137261904Y-56133333D01*
X137166666Y-56085714D01*
X137023809Y-56085714D01*
X136928571Y-56133333D01*
X136880952Y-56180952D01*
X136833333Y-56276190D01*
X136833333Y-56561904D01*
X136880952Y-56657142D01*
X136928571Y-56704761D01*
X137023809Y-56752380D01*
X137166666Y-56752380D01*
X136404761Y-56752380D02*
X136404761Y-56085714D01*
X136404761Y-56276190D02*
X136357142Y-56180952D01*
X136309523Y-56133333D01*
X136214285Y-56085714D01*
X136119047Y-56085714D01*
X135357142Y-56752380D02*
X135357142Y-55752380D01*
X135357142Y-56704761D02*
X135452380Y-56752380D01*
X135642857Y-56752380D01*
X135738095Y-56704761D01*
X135785714Y-56657142D01*
X135833333Y-56561904D01*
X135833333Y-56276190D01*
X135785714Y-56180952D01*
X135738095Y-56133333D01*
X135642857Y-56085714D01*
X135452380Y-56085714D01*
X135357142Y-56133333D01*
X133595238Y-55800000D02*
X133690476Y-55752380D01*
X133833333Y-55752380D01*
X133976190Y-55800000D01*
X134071428Y-55895238D01*
X134119047Y-55990476D01*
X134166666Y-56180952D01*
X134166666Y-56323809D01*
X134119047Y-56514285D01*
X134071428Y-56609523D01*
X133976190Y-56704761D01*
X133833333Y-56752380D01*
X133738095Y-56752380D01*
X133595238Y-56704761D01*
X133547619Y-56657142D01*
X133547619Y-56323809D01*
X133738095Y-56323809D01*
X133119047Y-56752380D02*
X133119047Y-56085714D01*
X133119047Y-56276190D02*
X133071428Y-56180952D01*
X133023809Y-56133333D01*
X132928571Y-56085714D01*
X132833333Y-56085714D01*
X132357142Y-56752380D02*
X132452380Y-56704761D01*
X132500000Y-56657142D01*
X132547619Y-56561904D01*
X132547619Y-56276190D01*
X132500000Y-56180952D01*
X132452380Y-56133333D01*
X132357142Y-56085714D01*
X132214285Y-56085714D01*
X132119047Y-56133333D01*
X132071428Y-56180952D01*
X132023809Y-56276190D01*
X132023809Y-56561904D01*
X132071428Y-56657142D01*
X132119047Y-56704761D01*
X132214285Y-56752380D01*
X132357142Y-56752380D01*
X131166666Y-56085714D02*
X131166666Y-56752380D01*
X131595238Y-56085714D02*
X131595238Y-56609523D01*
X131547619Y-56704761D01*
X131452380Y-56752380D01*
X131309523Y-56752380D01*
X131214285Y-56704761D01*
X131166666Y-56657142D01*
X130690476Y-56085714D02*
X130690476Y-57085714D01*
X130690476Y-56133333D02*
X130595238Y-56085714D01*
X130404761Y-56085714D01*
X130309523Y-56133333D01*
X130261904Y-56180952D01*
X130214285Y-56276190D01*
X130214285Y-56561904D01*
X130261904Y-56657142D01*
X130309523Y-56704761D01*
X130404761Y-56752380D01*
X130595238Y-56752380D01*
X130690476Y-56704761D01*
D11*
G04 #@! TO.C,G\002A\002A\002A*
G36*
X122345575Y-49319331D02*
X122185676Y-49370866D01*
X122036912Y-49447817D01*
X121902526Y-49548611D01*
X121785764Y-49671673D01*
X121689867Y-49815427D01*
X121618082Y-49978300D01*
X121584200Y-50101494D01*
X121563232Y-50279904D01*
X121575357Y-50456794D01*
X121619829Y-50629285D01*
X121695903Y-50794495D01*
X121802832Y-50949545D01*
X121804338Y-50951379D01*
X121832167Y-50982531D01*
X121881250Y-51034523D01*
X121949178Y-51104953D01*
X122033543Y-51191419D01*
X122131937Y-51291518D01*
X122241953Y-51402849D01*
X122361182Y-51523008D01*
X122487216Y-51649594D01*
X122617649Y-51780206D01*
X122750070Y-51912440D01*
X122882074Y-52043894D01*
X123011252Y-52172166D01*
X123135195Y-52294855D01*
X123251497Y-52409558D01*
X123357749Y-52513872D01*
X123451543Y-52605397D01*
X123530471Y-52681728D01*
X123592125Y-52740465D01*
X123634099Y-52779206D01*
X123650600Y-52793231D01*
X123767453Y-52868024D01*
X123901168Y-52930322D01*
X123980265Y-52957563D01*
X124072015Y-52977347D01*
X124181433Y-52989801D01*
X124293991Y-52994070D01*
X124395161Y-52989298D01*
X124432130Y-52984150D01*
X124605756Y-52935992D01*
X124767980Y-52856357D01*
X124917083Y-52746218D01*
X125006298Y-52658570D01*
X125116759Y-52513929D01*
X125197491Y-52355722D01*
X125248006Y-52187467D01*
X125267814Y-52012687D01*
X125266771Y-51996404D01*
X124940327Y-51996404D01*
X124918590Y-52137356D01*
X124868062Y-52272733D01*
X124790796Y-52395719D01*
X124757018Y-52435444D01*
X124648944Y-52534660D01*
X124533142Y-52603568D01*
X124404586Y-52644210D01*
X124258254Y-52658628D01*
X124209400Y-52658122D01*
X124126885Y-52653664D01*
X124064175Y-52644464D01*
X124007246Y-52627414D01*
X123942077Y-52599406D01*
X123939844Y-52598362D01*
X123907090Y-52581991D01*
X123874726Y-52562923D01*
X123839839Y-52538579D01*
X123799519Y-52506383D01*
X123750852Y-52463755D01*
X123690928Y-52408117D01*
X123616834Y-52336892D01*
X123525658Y-52247500D01*
X123414489Y-52137365D01*
X123376360Y-52099452D01*
X122930033Y-51655399D01*
X123930939Y-50656333D01*
X124368562Y-51096600D01*
X124495309Y-51224664D01*
X124600092Y-51332273D01*
X124685239Y-51422567D01*
X124753076Y-51498691D01*
X124805930Y-51563788D01*
X124846126Y-51621000D01*
X124875993Y-51673470D01*
X124897856Y-51724342D01*
X124914042Y-51776759D01*
X124926878Y-51833864D01*
X124931223Y-51856695D01*
X124940327Y-51996404D01*
X125266771Y-51996404D01*
X125256426Y-51834901D01*
X125213354Y-51657630D01*
X125162656Y-51532723D01*
X125146636Y-51501633D01*
X125127222Y-51469810D01*
X125102009Y-51434561D01*
X125068590Y-51393194D01*
X125024561Y-51343016D01*
X124967515Y-51281336D01*
X124895048Y-51205461D01*
X124804754Y-51112698D01*
X124694228Y-51000356D01*
X124619175Y-50924429D01*
X124485480Y-50789633D01*
X124334942Y-50638375D01*
X124174853Y-50477950D01*
X124012508Y-50315653D01*
X123855198Y-50158777D01*
X123710217Y-50014618D01*
X123636504Y-49941542D01*
X123510702Y-49817291D01*
X123406050Y-49714742D01*
X123396858Y-49705862D01*
X123057069Y-49705862D01*
X123048308Y-49711685D01*
X123022754Y-49714262D01*
X122976994Y-49713939D01*
X122907613Y-49711063D01*
X122811198Y-49705981D01*
X122685478Y-49699102D01*
X122578760Y-49693032D01*
X122478500Y-49686799D01*
X122391654Y-49680875D01*
X122325181Y-49675734D01*
X122287651Y-49672057D01*
X122211635Y-49662443D01*
X122250245Y-49631178D01*
X122287365Y-49608026D01*
X122342506Y-49581183D01*
X122385528Y-49563502D01*
X122440053Y-49545463D01*
X122492135Y-49535396D01*
X122553517Y-49531959D01*
X122635948Y-49533815D01*
X122643067Y-49534119D01*
X122761484Y-49545121D01*
X122857174Y-49568808D01*
X122939998Y-49608648D01*
X123016721Y-49665446D01*
X123037862Y-49683090D01*
X123052449Y-49696446D01*
X123057069Y-49705862D01*
X123396858Y-49705862D01*
X123319890Y-49631510D01*
X123249564Y-49565210D01*
X123192415Y-49513457D01*
X123145785Y-49473868D01*
X123107015Y-49444057D01*
X123073449Y-49421640D01*
X123042428Y-49404232D01*
X123031638Y-49398861D01*
X122859640Y-49332979D01*
X122685801Y-49298813D01*
X122513365Y-49294789D01*
X122345575Y-49319331D01*
X122345575Y-49319331D01*
G37*
X122345575Y-49319331D02*
X122185676Y-49370866D01*
X122036912Y-49447817D01*
X121902526Y-49548611D01*
X121785764Y-49671673D01*
X121689867Y-49815427D01*
X121618082Y-49978300D01*
X121584200Y-50101494D01*
X121563232Y-50279904D01*
X121575357Y-50456794D01*
X121619829Y-50629285D01*
X121695903Y-50794495D01*
X121802832Y-50949545D01*
X121804338Y-50951379D01*
X121832167Y-50982531D01*
X121881250Y-51034523D01*
X121949178Y-51104953D01*
X122033543Y-51191419D01*
X122131937Y-51291518D01*
X122241953Y-51402849D01*
X122361182Y-51523008D01*
X122487216Y-51649594D01*
X122617649Y-51780206D01*
X122750070Y-51912440D01*
X122882074Y-52043894D01*
X123011252Y-52172166D01*
X123135195Y-52294855D01*
X123251497Y-52409558D01*
X123357749Y-52513872D01*
X123451543Y-52605397D01*
X123530471Y-52681728D01*
X123592125Y-52740465D01*
X123634099Y-52779206D01*
X123650600Y-52793231D01*
X123767453Y-52868024D01*
X123901168Y-52930322D01*
X123980265Y-52957563D01*
X124072015Y-52977347D01*
X124181433Y-52989801D01*
X124293991Y-52994070D01*
X124395161Y-52989298D01*
X124432130Y-52984150D01*
X124605756Y-52935992D01*
X124767980Y-52856357D01*
X124917083Y-52746218D01*
X125006298Y-52658570D01*
X125116759Y-52513929D01*
X125197491Y-52355722D01*
X125248006Y-52187467D01*
X125267814Y-52012687D01*
X125266771Y-51996404D01*
X124940327Y-51996404D01*
X124918590Y-52137356D01*
X124868062Y-52272733D01*
X124790796Y-52395719D01*
X124757018Y-52435444D01*
X124648944Y-52534660D01*
X124533142Y-52603568D01*
X124404586Y-52644210D01*
X124258254Y-52658628D01*
X124209400Y-52658122D01*
X124126885Y-52653664D01*
X124064175Y-52644464D01*
X124007246Y-52627414D01*
X123942077Y-52599406D01*
X123939844Y-52598362D01*
X123907090Y-52581991D01*
X123874726Y-52562923D01*
X123839839Y-52538579D01*
X123799519Y-52506383D01*
X123750852Y-52463755D01*
X123690928Y-52408117D01*
X123616834Y-52336892D01*
X123525658Y-52247500D01*
X123414489Y-52137365D01*
X123376360Y-52099452D01*
X122930033Y-51655399D01*
X123930939Y-50656333D01*
X124368562Y-51096600D01*
X124495309Y-51224664D01*
X124600092Y-51332273D01*
X124685239Y-51422567D01*
X124753076Y-51498691D01*
X124805930Y-51563788D01*
X124846126Y-51621000D01*
X124875993Y-51673470D01*
X124897856Y-51724342D01*
X124914042Y-51776759D01*
X124926878Y-51833864D01*
X124931223Y-51856695D01*
X124940327Y-51996404D01*
X125266771Y-51996404D01*
X125256426Y-51834901D01*
X125213354Y-51657630D01*
X125162656Y-51532723D01*
X125146636Y-51501633D01*
X125127222Y-51469810D01*
X125102009Y-51434561D01*
X125068590Y-51393194D01*
X125024561Y-51343016D01*
X124967515Y-51281336D01*
X124895048Y-51205461D01*
X124804754Y-51112698D01*
X124694228Y-51000356D01*
X124619175Y-50924429D01*
X124485480Y-50789633D01*
X124334942Y-50638375D01*
X124174853Y-50477950D01*
X124012508Y-50315653D01*
X123855198Y-50158777D01*
X123710217Y-50014618D01*
X123636504Y-49941542D01*
X123510702Y-49817291D01*
X123406050Y-49714742D01*
X123396858Y-49705862D01*
X123057069Y-49705862D01*
X123048308Y-49711685D01*
X123022754Y-49714262D01*
X122976994Y-49713939D01*
X122907613Y-49711063D01*
X122811198Y-49705981D01*
X122685478Y-49699102D01*
X122578760Y-49693032D01*
X122478500Y-49686799D01*
X122391654Y-49680875D01*
X122325181Y-49675734D01*
X122287651Y-49672057D01*
X122211635Y-49662443D01*
X122250245Y-49631178D01*
X122287365Y-49608026D01*
X122342506Y-49581183D01*
X122385528Y-49563502D01*
X122440053Y-49545463D01*
X122492135Y-49535396D01*
X122553517Y-49531959D01*
X122635948Y-49533815D01*
X122643067Y-49534119D01*
X122761484Y-49545121D01*
X122857174Y-49568808D01*
X122939998Y-49608648D01*
X123016721Y-49665446D01*
X123037862Y-49683090D01*
X123052449Y-49696446D01*
X123057069Y-49705862D01*
X123396858Y-49705862D01*
X123319890Y-49631510D01*
X123249564Y-49565210D01*
X123192415Y-49513457D01*
X123145785Y-49473868D01*
X123107015Y-49444057D01*
X123073449Y-49421640D01*
X123042428Y-49404232D01*
X123031638Y-49398861D01*
X122859640Y-49332979D01*
X122685801Y-49298813D01*
X122513365Y-49294789D01*
X122345575Y-49319331D01*
G36*
X125895039Y-49336982D02*
X125722348Y-49384031D01*
X125562615Y-49462366D01*
X125415996Y-49571924D01*
X125369918Y-49615517D01*
X125249881Y-49757360D01*
X125161272Y-49911657D01*
X125103811Y-50079085D01*
X125077221Y-50260324D01*
X125075158Y-50334600D01*
X125077191Y-50424709D01*
X125084209Y-50495669D01*
X125098585Y-50562096D01*
X125122694Y-50638609D01*
X125126163Y-50648614D01*
X125157487Y-50728290D01*
X125194894Y-50808711D01*
X125231289Y-50874866D01*
X125238232Y-50885681D01*
X125259938Y-50912231D01*
X125303738Y-50960543D01*
X125367640Y-51028570D01*
X125449652Y-51114265D01*
X125547782Y-51215583D01*
X125660037Y-51330477D01*
X125784425Y-51456903D01*
X125918954Y-51592813D01*
X126061630Y-51736161D01*
X126210462Y-51884902D01*
X126236284Y-51910628D01*
X126410416Y-52083930D01*
X126562403Y-52234902D01*
X126694005Y-52365202D01*
X126806984Y-52476488D01*
X126903100Y-52570417D01*
X126984114Y-52648649D01*
X127051787Y-52712841D01*
X127107881Y-52764651D01*
X127154155Y-52805737D01*
X127192371Y-52837757D01*
X127224290Y-52862371D01*
X127251673Y-52881234D01*
X127276280Y-52896006D01*
X127291267Y-52904019D01*
X127366250Y-52938771D01*
X127447160Y-52970541D01*
X127513845Y-52991690D01*
X127603661Y-53007512D01*
X127712005Y-53015593D01*
X127826110Y-53015913D01*
X127933211Y-53008449D01*
X128020540Y-52993180D01*
X128022886Y-52992557D01*
X128171226Y-52940487D01*
X128304821Y-52866385D01*
X128431894Y-52765356D01*
X128476740Y-52722339D01*
X128597169Y-52582662D01*
X128685307Y-52435599D01*
X128742456Y-52278074D01*
X128769914Y-52107014D01*
X128772654Y-52029946D01*
X128446306Y-52029946D01*
X128423524Y-52170473D01*
X128373056Y-52304426D01*
X128297729Y-52425955D01*
X128200368Y-52529208D01*
X128093596Y-52603123D01*
X127988379Y-52652650D01*
X127888401Y-52680821D01*
X127779444Y-52690834D01*
X127708743Y-52689681D01*
X127628374Y-52683930D01*
X127566001Y-52672400D01*
X127505801Y-52651080D01*
X127446277Y-52623139D01*
X127411983Y-52604978D01*
X127377942Y-52583968D01*
X127341204Y-52557473D01*
X127298817Y-52522859D01*
X127247831Y-52477490D01*
X127185297Y-52418732D01*
X127108264Y-52343949D01*
X127013782Y-52250506D01*
X126898900Y-52135769D01*
X126884946Y-52121790D01*
X126444759Y-51680714D01*
X127435115Y-50690358D01*
X127876102Y-51130545D01*
X128003316Y-51258063D01*
X128108480Y-51365180D01*
X128193909Y-51455018D01*
X128261920Y-51530697D01*
X128314827Y-51595338D01*
X128354946Y-51652063D01*
X128384594Y-51703993D01*
X128406084Y-51754248D01*
X128421733Y-51805951D01*
X128433857Y-51862221D01*
X128438580Y-51888696D01*
X128446306Y-52029946D01*
X128772654Y-52029946D01*
X128772934Y-52022089D01*
X128767735Y-51894985D01*
X128749973Y-51783966D01*
X128716398Y-51674786D01*
X128668066Y-51562266D01*
X128600115Y-51418333D01*
X127640891Y-50460185D01*
X127464867Y-50284457D01*
X127310986Y-50131109D01*
X127177517Y-49998502D01*
X127062726Y-49884999D01*
X126964880Y-49788962D01*
X126910403Y-49736083D01*
X126579497Y-49736083D01*
X126579403Y-49745231D01*
X126560030Y-49748130D01*
X126515973Y-49746078D01*
X126469322Y-49742529D01*
X126406692Y-49737920D01*
X126320031Y-49731969D01*
X126219115Y-49725328D01*
X126113722Y-49718647D01*
X126072356Y-49716100D01*
X125976021Y-49710406D01*
X125888033Y-49705536D01*
X125815559Y-49701862D01*
X125765766Y-49699756D01*
X125750623Y-49699400D01*
X125699534Y-49699201D01*
X125775774Y-49649324D01*
X125886221Y-49594631D01*
X126012749Y-49561054D01*
X126142861Y-49551530D01*
X126181691Y-49553894D01*
X126257708Y-49568364D01*
X126343711Y-49595848D01*
X126429373Y-49631894D01*
X126504366Y-49672052D01*
X126558361Y-49711871D01*
X126565718Y-49719389D01*
X126579497Y-49736083D01*
X126910403Y-49736083D01*
X126882247Y-49708753D01*
X126813093Y-49642734D01*
X126755686Y-49589266D01*
X126708293Y-49546713D01*
X126669181Y-49513435D01*
X126636616Y-49487796D01*
X126608867Y-49468157D01*
X126584201Y-49452879D01*
X126563134Y-49441470D01*
X126434036Y-49382525D01*
X126315007Y-49345047D01*
X126192969Y-49325780D01*
X126080534Y-49321285D01*
X125895039Y-49336982D01*
X125895039Y-49336982D01*
G37*
X125895039Y-49336982D02*
X125722348Y-49384031D01*
X125562615Y-49462366D01*
X125415996Y-49571924D01*
X125369918Y-49615517D01*
X125249881Y-49757360D01*
X125161272Y-49911657D01*
X125103811Y-50079085D01*
X125077221Y-50260324D01*
X125075158Y-50334600D01*
X125077191Y-50424709D01*
X125084209Y-50495669D01*
X125098585Y-50562096D01*
X125122694Y-50638609D01*
X125126163Y-50648614D01*
X125157487Y-50728290D01*
X125194894Y-50808711D01*
X125231289Y-50874866D01*
X125238232Y-50885681D01*
X125259938Y-50912231D01*
X125303738Y-50960543D01*
X125367640Y-51028570D01*
X125449652Y-51114265D01*
X125547782Y-51215583D01*
X125660037Y-51330477D01*
X125784425Y-51456903D01*
X125918954Y-51592813D01*
X126061630Y-51736161D01*
X126210462Y-51884902D01*
X126236284Y-51910628D01*
X126410416Y-52083930D01*
X126562403Y-52234902D01*
X126694005Y-52365202D01*
X126806984Y-52476488D01*
X126903100Y-52570417D01*
X126984114Y-52648649D01*
X127051787Y-52712841D01*
X127107881Y-52764651D01*
X127154155Y-52805737D01*
X127192371Y-52837757D01*
X127224290Y-52862371D01*
X127251673Y-52881234D01*
X127276280Y-52896006D01*
X127291267Y-52904019D01*
X127366250Y-52938771D01*
X127447160Y-52970541D01*
X127513845Y-52991690D01*
X127603661Y-53007512D01*
X127712005Y-53015593D01*
X127826110Y-53015913D01*
X127933211Y-53008449D01*
X128020540Y-52993180D01*
X128022886Y-52992557D01*
X128171226Y-52940487D01*
X128304821Y-52866385D01*
X128431894Y-52765356D01*
X128476740Y-52722339D01*
X128597169Y-52582662D01*
X128685307Y-52435599D01*
X128742456Y-52278074D01*
X128769914Y-52107014D01*
X128772654Y-52029946D01*
X128446306Y-52029946D01*
X128423524Y-52170473D01*
X128373056Y-52304426D01*
X128297729Y-52425955D01*
X128200368Y-52529208D01*
X128093596Y-52603123D01*
X127988379Y-52652650D01*
X127888401Y-52680821D01*
X127779444Y-52690834D01*
X127708743Y-52689681D01*
X127628374Y-52683930D01*
X127566001Y-52672400D01*
X127505801Y-52651080D01*
X127446277Y-52623139D01*
X127411983Y-52604978D01*
X127377942Y-52583968D01*
X127341204Y-52557473D01*
X127298817Y-52522859D01*
X127247831Y-52477490D01*
X127185297Y-52418732D01*
X127108264Y-52343949D01*
X127013782Y-52250506D01*
X126898900Y-52135769D01*
X126884946Y-52121790D01*
X126444759Y-51680714D01*
X127435115Y-50690358D01*
X127876102Y-51130545D01*
X128003316Y-51258063D01*
X128108480Y-51365180D01*
X128193909Y-51455018D01*
X128261920Y-51530697D01*
X128314827Y-51595338D01*
X128354946Y-51652063D01*
X128384594Y-51703993D01*
X128406084Y-51754248D01*
X128421733Y-51805951D01*
X128433857Y-51862221D01*
X128438580Y-51888696D01*
X128446306Y-52029946D01*
X128772654Y-52029946D01*
X128772934Y-52022089D01*
X128767735Y-51894985D01*
X128749973Y-51783966D01*
X128716398Y-51674786D01*
X128668066Y-51562266D01*
X128600115Y-51418333D01*
X127640891Y-50460185D01*
X127464867Y-50284457D01*
X127310986Y-50131109D01*
X127177517Y-49998502D01*
X127062726Y-49884999D01*
X126964880Y-49788962D01*
X126910403Y-49736083D01*
X126579497Y-49736083D01*
X126579403Y-49745231D01*
X126560030Y-49748130D01*
X126515973Y-49746078D01*
X126469322Y-49742529D01*
X126406692Y-49737920D01*
X126320031Y-49731969D01*
X126219115Y-49725328D01*
X126113722Y-49718647D01*
X126072356Y-49716100D01*
X125976021Y-49710406D01*
X125888033Y-49705536D01*
X125815559Y-49701862D01*
X125765766Y-49699756D01*
X125750623Y-49699400D01*
X125699534Y-49699201D01*
X125775774Y-49649324D01*
X125886221Y-49594631D01*
X126012749Y-49561054D01*
X126142861Y-49551530D01*
X126181691Y-49553894D01*
X126257708Y-49568364D01*
X126343711Y-49595848D01*
X126429373Y-49631894D01*
X126504366Y-49672052D01*
X126558361Y-49711871D01*
X126565718Y-49719389D01*
X126579497Y-49736083D01*
X126910403Y-49736083D01*
X126882247Y-49708753D01*
X126813093Y-49642734D01*
X126755686Y-49589266D01*
X126708293Y-49546713D01*
X126669181Y-49513435D01*
X126636616Y-49487796D01*
X126608867Y-49468157D01*
X126584201Y-49452879D01*
X126563134Y-49441470D01*
X126434036Y-49382525D01*
X126315007Y-49345047D01*
X126192969Y-49325780D01*
X126080534Y-49321285D01*
X125895039Y-49336982D01*
G36*
X122495039Y-52805972D02*
X122326007Y-52839427D01*
X122165781Y-52900411D01*
X122018052Y-52986870D01*
X121886513Y-53096751D01*
X121774856Y-53227999D01*
X121686772Y-53378562D01*
X121639182Y-53500430D01*
X121616599Y-53599601D01*
X121603488Y-53716280D01*
X121599951Y-53839375D01*
X121606091Y-53957798D01*
X121622010Y-54060457D01*
X121633620Y-54102266D01*
X121648267Y-54145345D01*
X121662397Y-54184355D01*
X121677625Y-54221151D01*
X121695568Y-54257586D01*
X121717842Y-54295513D01*
X121746063Y-54336785D01*
X121781846Y-54383256D01*
X121826808Y-54436778D01*
X121882565Y-54499206D01*
X121950733Y-54572392D01*
X122032927Y-54658190D01*
X122130764Y-54758452D01*
X122245860Y-54875033D01*
X122379830Y-55009785D01*
X122534291Y-55164563D01*
X122710858Y-55341218D01*
X122734957Y-55365324D01*
X122910134Y-55540499D01*
X123063151Y-55693333D01*
X123195761Y-55825471D01*
X123309713Y-55938557D01*
X123406758Y-56034236D01*
X123488647Y-56114152D01*
X123557131Y-56179949D01*
X123613960Y-56233273D01*
X123660886Y-56275766D01*
X123699657Y-56309075D01*
X123732026Y-56334843D01*
X123759743Y-56354715D01*
X123784559Y-56370335D01*
X123808224Y-56383348D01*
X123830587Y-56394480D01*
X124009136Y-56463608D01*
X124189055Y-56498949D01*
X124370891Y-56500573D01*
X124505734Y-56480382D01*
X124671280Y-56427867D01*
X124824950Y-56346166D01*
X124963157Y-56238930D01*
X125082317Y-56109811D01*
X125178844Y-55962458D01*
X125249151Y-55800524D01*
X125278087Y-55693999D01*
X125297318Y-55523850D01*
X125290914Y-55425786D01*
X124960541Y-55425786D01*
X124959534Y-55513719D01*
X124953025Y-55602463D01*
X124941483Y-55669961D01*
X124922273Y-55728747D01*
X124907266Y-55762364D01*
X124824883Y-55896577D01*
X124718376Y-56008588D01*
X124591000Y-56095407D01*
X124500165Y-56136320D01*
X124403185Y-56159583D01*
X124288641Y-56167435D01*
X124168802Y-56160495D01*
X124055937Y-56139382D01*
X123972334Y-56109670D01*
X123941808Y-56093431D01*
X123908076Y-56071351D01*
X123868424Y-56040996D01*
X123820140Y-55999928D01*
X123760510Y-55945713D01*
X123686821Y-55875913D01*
X123596360Y-55788093D01*
X123486414Y-55679816D01*
X123417469Y-55611470D01*
X122964205Y-55161407D01*
X123459688Y-54665710D01*
X123955171Y-54170014D01*
X124383462Y-54597573D01*
X124485002Y-54699721D01*
X124580691Y-54797465D01*
X124667392Y-54887490D01*
X124741968Y-54966478D01*
X124801282Y-55031115D01*
X124842199Y-55078085D01*
X124859976Y-55101333D01*
X124915011Y-55204458D01*
X124947661Y-55309000D01*
X124960541Y-55425786D01*
X125290914Y-55425786D01*
X125285930Y-55349481D01*
X125245270Y-55177863D01*
X125176682Y-55015965D01*
X125132788Y-54941530D01*
X125105772Y-54907049D01*
X125054922Y-54849652D01*
X124980795Y-54769914D01*
X124883951Y-54668414D01*
X124764947Y-54545726D01*
X124624342Y-54402429D01*
X124462693Y-54239099D01*
X124280561Y-54056312D01*
X124138031Y-53913956D01*
X123958452Y-53734959D01*
X123800956Y-53578264D01*
X123663633Y-53442271D01*
X123544574Y-53325380D01*
X123441870Y-53225990D01*
X123436083Y-53220515D01*
X123108734Y-53220515D01*
X123015601Y-53219606D01*
X122968814Y-53218287D01*
X122895532Y-53215174D01*
X122803059Y-53210627D01*
X122698697Y-53205001D01*
X122596236Y-53199049D01*
X122489514Y-53191790D01*
X122398570Y-53183973D01*
X122327963Y-53176104D01*
X122282256Y-53168687D01*
X122266036Y-53162466D01*
X122277974Y-53146964D01*
X122313085Y-53122611D01*
X122363667Y-53094733D01*
X122412857Y-53071521D01*
X122455144Y-53056684D01*
X122500696Y-53048373D01*
X122559681Y-53044739D01*
X122642269Y-53043933D01*
X122643067Y-53043933D01*
X122726845Y-53044824D01*
X122786746Y-53048632D01*
X122832735Y-53057055D01*
X122874781Y-53071793D01*
X122914001Y-53090125D01*
X122974496Y-53123010D01*
X123030558Y-53158219D01*
X123057934Y-53178416D01*
X123108734Y-53220515D01*
X123436083Y-53220515D01*
X123353612Y-53142500D01*
X123277890Y-53073311D01*
X123212795Y-53016822D01*
X123156417Y-52971432D01*
X123106849Y-52935541D01*
X123062179Y-52907549D01*
X123020500Y-52885855D01*
X122979902Y-52868859D01*
X122938475Y-52854960D01*
X122894311Y-52842557D01*
X122845500Y-52830052D01*
X122844752Y-52829863D01*
X122669185Y-52802099D01*
X122495039Y-52805972D01*
X122495039Y-52805972D01*
G37*
X122495039Y-52805972D02*
X122326007Y-52839427D01*
X122165781Y-52900411D01*
X122018052Y-52986870D01*
X121886513Y-53096751D01*
X121774856Y-53227999D01*
X121686772Y-53378562D01*
X121639182Y-53500430D01*
X121616599Y-53599601D01*
X121603488Y-53716280D01*
X121599951Y-53839375D01*
X121606091Y-53957798D01*
X121622010Y-54060457D01*
X121633620Y-54102266D01*
X121648267Y-54145345D01*
X121662397Y-54184355D01*
X121677625Y-54221151D01*
X121695568Y-54257586D01*
X121717842Y-54295513D01*
X121746063Y-54336785D01*
X121781846Y-54383256D01*
X121826808Y-54436778D01*
X121882565Y-54499206D01*
X121950733Y-54572392D01*
X122032927Y-54658190D01*
X122130764Y-54758452D01*
X122245860Y-54875033D01*
X122379830Y-55009785D01*
X122534291Y-55164563D01*
X122710858Y-55341218D01*
X122734957Y-55365324D01*
X122910134Y-55540499D01*
X123063151Y-55693333D01*
X123195761Y-55825471D01*
X123309713Y-55938557D01*
X123406758Y-56034236D01*
X123488647Y-56114152D01*
X123557131Y-56179949D01*
X123613960Y-56233273D01*
X123660886Y-56275766D01*
X123699657Y-56309075D01*
X123732026Y-56334843D01*
X123759743Y-56354715D01*
X123784559Y-56370335D01*
X123808224Y-56383348D01*
X123830587Y-56394480D01*
X124009136Y-56463608D01*
X124189055Y-56498949D01*
X124370891Y-56500573D01*
X124505734Y-56480382D01*
X124671280Y-56427867D01*
X124824950Y-56346166D01*
X124963157Y-56238930D01*
X125082317Y-56109811D01*
X125178844Y-55962458D01*
X125249151Y-55800524D01*
X125278087Y-55693999D01*
X125297318Y-55523850D01*
X125290914Y-55425786D01*
X124960541Y-55425786D01*
X124959534Y-55513719D01*
X124953025Y-55602463D01*
X124941483Y-55669961D01*
X124922273Y-55728747D01*
X124907266Y-55762364D01*
X124824883Y-55896577D01*
X124718376Y-56008588D01*
X124591000Y-56095407D01*
X124500165Y-56136320D01*
X124403185Y-56159583D01*
X124288641Y-56167435D01*
X124168802Y-56160495D01*
X124055937Y-56139382D01*
X123972334Y-56109670D01*
X123941808Y-56093431D01*
X123908076Y-56071351D01*
X123868424Y-56040996D01*
X123820140Y-55999928D01*
X123760510Y-55945713D01*
X123686821Y-55875913D01*
X123596360Y-55788093D01*
X123486414Y-55679816D01*
X123417469Y-55611470D01*
X122964205Y-55161407D01*
X123459688Y-54665710D01*
X123955171Y-54170014D01*
X124383462Y-54597573D01*
X124485002Y-54699721D01*
X124580691Y-54797465D01*
X124667392Y-54887490D01*
X124741968Y-54966478D01*
X124801282Y-55031115D01*
X124842199Y-55078085D01*
X124859976Y-55101333D01*
X124915011Y-55204458D01*
X124947661Y-55309000D01*
X124960541Y-55425786D01*
X125290914Y-55425786D01*
X125285930Y-55349481D01*
X125245270Y-55177863D01*
X125176682Y-55015965D01*
X125132788Y-54941530D01*
X125105772Y-54907049D01*
X125054922Y-54849652D01*
X124980795Y-54769914D01*
X124883951Y-54668414D01*
X124764947Y-54545726D01*
X124624342Y-54402429D01*
X124462693Y-54239099D01*
X124280561Y-54056312D01*
X124138031Y-53913956D01*
X123958452Y-53734959D01*
X123800956Y-53578264D01*
X123663633Y-53442271D01*
X123544574Y-53325380D01*
X123441870Y-53225990D01*
X123436083Y-53220515D01*
X123108734Y-53220515D01*
X123015601Y-53219606D01*
X122968814Y-53218287D01*
X122895532Y-53215174D01*
X122803059Y-53210627D01*
X122698697Y-53205001D01*
X122596236Y-53199049D01*
X122489514Y-53191790D01*
X122398570Y-53183973D01*
X122327963Y-53176104D01*
X122282256Y-53168687D01*
X122266036Y-53162466D01*
X122277974Y-53146964D01*
X122313085Y-53122611D01*
X122363667Y-53094733D01*
X122412857Y-53071521D01*
X122455144Y-53056684D01*
X122500696Y-53048373D01*
X122559681Y-53044739D01*
X122642269Y-53043933D01*
X122643067Y-53043933D01*
X122726845Y-53044824D01*
X122786746Y-53048632D01*
X122832735Y-53057055D01*
X122874781Y-53071793D01*
X122914001Y-53090125D01*
X122974496Y-53123010D01*
X123030558Y-53158219D01*
X123057934Y-53178416D01*
X123108734Y-53220515D01*
X123436083Y-53220515D01*
X123353612Y-53142500D01*
X123277890Y-53073311D01*
X123212795Y-53016822D01*
X123156417Y-52971432D01*
X123106849Y-52935541D01*
X123062179Y-52907549D01*
X123020500Y-52885855D01*
X122979902Y-52868859D01*
X122938475Y-52854960D01*
X122894311Y-52842557D01*
X122845500Y-52830052D01*
X122844752Y-52829863D01*
X122669185Y-52802099D01*
X122495039Y-52805972D01*
G36*
X125926735Y-52845673D02*
X125754969Y-52891461D01*
X125595912Y-52968568D01*
X125448832Y-53077297D01*
X125394562Y-53128335D01*
X125276637Y-53269007D01*
X125188334Y-53423306D01*
X125130003Y-53587819D01*
X125101998Y-53759135D01*
X125104670Y-53933843D01*
X125138372Y-54108531D01*
X125203455Y-54279787D01*
X125264307Y-54390133D01*
X125285443Y-54416816D01*
X125328299Y-54464941D01*
X125390522Y-54532125D01*
X125469763Y-54615986D01*
X125563671Y-54714140D01*
X125669896Y-54824205D01*
X125786087Y-54943797D01*
X125909893Y-55070535D01*
X126038965Y-55202035D01*
X126170950Y-55335915D01*
X126303500Y-55469791D01*
X126434262Y-55601280D01*
X126560888Y-55728001D01*
X126681025Y-55847570D01*
X126792325Y-55957605D01*
X126892435Y-56055722D01*
X126979006Y-56139538D01*
X127049686Y-56206672D01*
X127102126Y-56254740D01*
X127113447Y-56264653D01*
X127266221Y-56376574D01*
X127429709Y-56459560D01*
X127600155Y-56512440D01*
X127773804Y-56534045D01*
X127944434Y-56523596D01*
X128121233Y-56479271D01*
X128284548Y-56405555D01*
X128431244Y-56305305D01*
X128558186Y-56181375D01*
X128662238Y-56036621D01*
X128740264Y-55873900D01*
X128773350Y-55768574D01*
X128802863Y-55591287D01*
X128800940Y-55486488D01*
X128472896Y-55486488D01*
X128462016Y-55632640D01*
X128420961Y-55772112D01*
X128350417Y-55900625D01*
X128273025Y-55992853D01*
X128152301Y-56091118D01*
X128018709Y-56158789D01*
X127875487Y-56195065D01*
X127725872Y-56199145D01*
X127573101Y-56170228D01*
X127565601Y-56167952D01*
X127517269Y-56151087D01*
X127470016Y-56129694D01*
X127420966Y-56101406D01*
X127367242Y-56063853D01*
X127305970Y-56014668D01*
X127234273Y-55951481D01*
X127149276Y-55871925D01*
X127048103Y-55773630D01*
X126927878Y-55654230D01*
X126863713Y-55589885D01*
X126470025Y-55194226D01*
X126970015Y-54694813D01*
X127470006Y-54195400D01*
X127909385Y-54637105D01*
X128026217Y-54754865D01*
X128121483Y-54851771D01*
X128197755Y-54930720D01*
X128257607Y-54994612D01*
X128303612Y-55046345D01*
X128338344Y-55088817D01*
X128364375Y-55124926D01*
X128384280Y-55157572D01*
X128400631Y-55189652D01*
X128401388Y-55191264D01*
X128452915Y-55337935D01*
X128472896Y-55486488D01*
X128800940Y-55486488D01*
X128799643Y-55415887D01*
X128763441Y-55239886D01*
X128704413Y-55083220D01*
X128688967Y-55050610D01*
X128672219Y-55019766D01*
X128651732Y-54987920D01*
X128625068Y-54952305D01*
X128589790Y-54910153D01*
X128543462Y-54858698D01*
X128483646Y-54795171D01*
X128407904Y-54716806D01*
X128313801Y-54620835D01*
X128198898Y-54504491D01*
X128161127Y-54466333D01*
X128028684Y-54332832D01*
X127879328Y-54182729D01*
X127720243Y-54023216D01*
X127558616Y-53861487D01*
X127401632Y-53704734D01*
X127256475Y-53560150D01*
X127178284Y-53482467D01*
X127052295Y-53357738D01*
X126947631Y-53254918D01*
X126599700Y-53254918D01*
X126595719Y-53255422D01*
X126575075Y-53254373D01*
X126525483Y-53251523D01*
X126451797Y-53247161D01*
X126358872Y-53241576D01*
X126251562Y-53235056D01*
X126173667Y-53230287D01*
X126059339Y-53223297D01*
X125956065Y-53217040D01*
X125868715Y-53211807D01*
X125802157Y-53207888D01*
X125761262Y-53205574D01*
X125750636Y-53205065D01*
X125753002Y-53196696D01*
X125777745Y-53175717D01*
X125797634Y-53161563D01*
X125918115Y-53099500D01*
X126051123Y-53065879D01*
X126190349Y-53060992D01*
X126329487Y-53085133D01*
X126448166Y-53131286D01*
X126496384Y-53158859D01*
X126541711Y-53190110D01*
X126578082Y-53219938D01*
X126599433Y-53243241D01*
X126599700Y-53254918D01*
X126947631Y-53254918D01*
X126947452Y-53254743D01*
X126861117Y-53171107D01*
X126790650Y-53104456D01*
X126733413Y-53052416D01*
X126686766Y-53012613D01*
X126648070Y-52982673D01*
X126614685Y-52960222D01*
X126583973Y-52942885D01*
X126571601Y-52936733D01*
X126415813Y-52874606D01*
X126260163Y-52840389D01*
X126111944Y-52830900D01*
X125926735Y-52845673D01*
X125926735Y-52845673D01*
G37*
X125926735Y-52845673D02*
X125754969Y-52891461D01*
X125595912Y-52968568D01*
X125448832Y-53077297D01*
X125394562Y-53128335D01*
X125276637Y-53269007D01*
X125188334Y-53423306D01*
X125130003Y-53587819D01*
X125101998Y-53759135D01*
X125104670Y-53933843D01*
X125138372Y-54108531D01*
X125203455Y-54279787D01*
X125264307Y-54390133D01*
X125285443Y-54416816D01*
X125328299Y-54464941D01*
X125390522Y-54532125D01*
X125469763Y-54615986D01*
X125563671Y-54714140D01*
X125669896Y-54824205D01*
X125786087Y-54943797D01*
X125909893Y-55070535D01*
X126038965Y-55202035D01*
X126170950Y-55335915D01*
X126303500Y-55469791D01*
X126434262Y-55601280D01*
X126560888Y-55728001D01*
X126681025Y-55847570D01*
X126792325Y-55957605D01*
X126892435Y-56055722D01*
X126979006Y-56139538D01*
X127049686Y-56206672D01*
X127102126Y-56254740D01*
X127113447Y-56264653D01*
X127266221Y-56376574D01*
X127429709Y-56459560D01*
X127600155Y-56512440D01*
X127773804Y-56534045D01*
X127944434Y-56523596D01*
X128121233Y-56479271D01*
X128284548Y-56405555D01*
X128431244Y-56305305D01*
X128558186Y-56181375D01*
X128662238Y-56036621D01*
X128740264Y-55873900D01*
X128773350Y-55768574D01*
X128802863Y-55591287D01*
X128800940Y-55486488D01*
X128472896Y-55486488D01*
X128462016Y-55632640D01*
X128420961Y-55772112D01*
X128350417Y-55900625D01*
X128273025Y-55992853D01*
X128152301Y-56091118D01*
X128018709Y-56158789D01*
X127875487Y-56195065D01*
X127725872Y-56199145D01*
X127573101Y-56170228D01*
X127565601Y-56167952D01*
X127517269Y-56151087D01*
X127470016Y-56129694D01*
X127420966Y-56101406D01*
X127367242Y-56063853D01*
X127305970Y-56014668D01*
X127234273Y-55951481D01*
X127149276Y-55871925D01*
X127048103Y-55773630D01*
X126927878Y-55654230D01*
X126863713Y-55589885D01*
X126470025Y-55194226D01*
X126970015Y-54694813D01*
X127470006Y-54195400D01*
X127909385Y-54637105D01*
X128026217Y-54754865D01*
X128121483Y-54851771D01*
X128197755Y-54930720D01*
X128257607Y-54994612D01*
X128303612Y-55046345D01*
X128338344Y-55088817D01*
X128364375Y-55124926D01*
X128384280Y-55157572D01*
X128400631Y-55189652D01*
X128401388Y-55191264D01*
X128452915Y-55337935D01*
X128472896Y-55486488D01*
X128800940Y-55486488D01*
X128799643Y-55415887D01*
X128763441Y-55239886D01*
X128704413Y-55083220D01*
X128688967Y-55050610D01*
X128672219Y-55019766D01*
X128651732Y-54987920D01*
X128625068Y-54952305D01*
X128589790Y-54910153D01*
X128543462Y-54858698D01*
X128483646Y-54795171D01*
X128407904Y-54716806D01*
X128313801Y-54620835D01*
X128198898Y-54504491D01*
X128161127Y-54466333D01*
X128028684Y-54332832D01*
X127879328Y-54182729D01*
X127720243Y-54023216D01*
X127558616Y-53861487D01*
X127401632Y-53704734D01*
X127256475Y-53560150D01*
X127178284Y-53482467D01*
X127052295Y-53357738D01*
X126947631Y-53254918D01*
X126599700Y-53254918D01*
X126595719Y-53255422D01*
X126575075Y-53254373D01*
X126525483Y-53251523D01*
X126451797Y-53247161D01*
X126358872Y-53241576D01*
X126251562Y-53235056D01*
X126173667Y-53230287D01*
X126059339Y-53223297D01*
X125956065Y-53217040D01*
X125868715Y-53211807D01*
X125802157Y-53207888D01*
X125761262Y-53205574D01*
X125750636Y-53205065D01*
X125753002Y-53196696D01*
X125777745Y-53175717D01*
X125797634Y-53161563D01*
X125918115Y-53099500D01*
X126051123Y-53065879D01*
X126190349Y-53060992D01*
X126329487Y-53085133D01*
X126448166Y-53131286D01*
X126496384Y-53158859D01*
X126541711Y-53190110D01*
X126578082Y-53219938D01*
X126599433Y-53243241D01*
X126599700Y-53254918D01*
X126947631Y-53254918D01*
X126947452Y-53254743D01*
X126861117Y-53171107D01*
X126790650Y-53104456D01*
X126733413Y-53052416D01*
X126686766Y-53012613D01*
X126648070Y-52982673D01*
X126614685Y-52960222D01*
X126583973Y-52942885D01*
X126571601Y-52936733D01*
X126415813Y-52874606D01*
X126260163Y-52840389D01*
X126111944Y-52830900D01*
X125926735Y-52845673D01*
G36*
X124916425Y-48273928D02*
X124624996Y-48274187D01*
X124337524Y-48274671D01*
X124056108Y-48275379D01*
X123782850Y-48276312D01*
X123519851Y-48277469D01*
X123269213Y-48278853D01*
X123033036Y-48280462D01*
X122813422Y-48282298D01*
X122612472Y-48284360D01*
X122432287Y-48286649D01*
X122274968Y-48289166D01*
X122142617Y-48291910D01*
X122037334Y-48294882D01*
X121961222Y-48298083D01*
X121916380Y-48301512D01*
X121910622Y-48302348D01*
X121682687Y-48358710D01*
X121468570Y-48444633D01*
X121270548Y-48557839D01*
X121090901Y-48696051D01*
X120931906Y-48856990D01*
X120795842Y-49038376D01*
X120684987Y-49237933D01*
X120601621Y-49453382D01*
X120551549Y-49661421D01*
X120548418Y-49682928D01*
X120545551Y-49710945D01*
X120542937Y-49746923D01*
X120540565Y-49792311D01*
X120538424Y-49848561D01*
X120536503Y-49917122D01*
X120534790Y-49999446D01*
X120533274Y-50096982D01*
X120531944Y-50211181D01*
X120530789Y-50343493D01*
X120529798Y-50495369D01*
X120528959Y-50668259D01*
X120528262Y-50863614D01*
X120527695Y-51082884D01*
X120527247Y-51327519D01*
X120526907Y-51598970D01*
X120526663Y-51898687D01*
X120526505Y-52228120D01*
X120526422Y-52588721D01*
X120526400Y-52925399D01*
X120526394Y-53315500D01*
X120526397Y-53673246D01*
X120526450Y-54000150D01*
X120526587Y-54297725D01*
X120526848Y-54567482D01*
X120527269Y-54810934D01*
X120527887Y-55029593D01*
X120528740Y-55224972D01*
X120529865Y-55398583D01*
X120531300Y-55551938D01*
X120533081Y-55686549D01*
X120535247Y-55803930D01*
X120537833Y-55905591D01*
X120540879Y-55993046D01*
X120544420Y-56067807D01*
X120548495Y-56131386D01*
X120553140Y-56185296D01*
X120558393Y-56231048D01*
X120564292Y-56270156D01*
X120570873Y-56304130D01*
X120578174Y-56334485D01*
X120586232Y-56362732D01*
X120595084Y-56390383D01*
X120604768Y-56418950D01*
X120613203Y-56443668D01*
X120699143Y-56646336D01*
X120814378Y-56838106D01*
X120955080Y-57015153D01*
X121117425Y-57173651D01*
X121297587Y-57309773D01*
X121491740Y-57419695D01*
X121656332Y-57486797D01*
X121686685Y-57497165D01*
X121714887Y-57506673D01*
X121742446Y-57515360D01*
X121770869Y-57523260D01*
X121801666Y-57530411D01*
X121836344Y-57536848D01*
X121876413Y-57542608D01*
X121923379Y-57547728D01*
X121978752Y-57552244D01*
X122044040Y-57556192D01*
X122120751Y-57559609D01*
X122210394Y-57562531D01*
X122314477Y-57564995D01*
X122434508Y-57567036D01*
X122571995Y-57568692D01*
X122728447Y-57569998D01*
X122905373Y-57570992D01*
X123104280Y-57571709D01*
X123326677Y-57572186D01*
X123574072Y-57572460D01*
X123847973Y-57572566D01*
X124149889Y-57572542D01*
X124481329Y-57572423D01*
X124843799Y-57572246D01*
X125189519Y-57572071D01*
X125588483Y-57571834D01*
X125954878Y-57571520D01*
X126289999Y-57571121D01*
X126595142Y-57570628D01*
X126871605Y-57570030D01*
X127120684Y-57569319D01*
X127343675Y-57568485D01*
X127541875Y-57567519D01*
X127716581Y-57566411D01*
X127869088Y-57565152D01*
X128000693Y-57563733D01*
X128112693Y-57562144D01*
X128206384Y-57560376D01*
X128283062Y-57558419D01*
X128344025Y-57556264D01*
X128390569Y-57553902D01*
X128423990Y-57551324D01*
X128445584Y-57548519D01*
X128445606Y-57548515D01*
X128673456Y-57490567D01*
X128887351Y-57403186D01*
X129085013Y-57288662D01*
X129264165Y-57149285D01*
X129422528Y-56987345D01*
X129557826Y-56805131D01*
X129667781Y-56604933D01*
X129750114Y-56389040D01*
X129797652Y-56189378D01*
X129800784Y-56167867D01*
X129803651Y-56139848D01*
X129806265Y-56103872D01*
X129808637Y-56058487D01*
X129810778Y-56002241D01*
X129812699Y-55933685D01*
X129814411Y-55851367D01*
X129815925Y-55753836D01*
X129817253Y-55639641D01*
X129818406Y-55507331D01*
X129819394Y-55355455D01*
X129820229Y-55182562D01*
X129820923Y-54987202D01*
X129821486Y-54767922D01*
X129821929Y-54523273D01*
X129822264Y-54251803D01*
X129822502Y-53952062D01*
X129822654Y-53622598D01*
X129822731Y-53261960D01*
X129822746Y-52927415D01*
X129822754Y-52536596D01*
X129822764Y-52178129D01*
X129822731Y-51850503D01*
X129822712Y-51800053D01*
X129458923Y-51800053D01*
X129458868Y-52124399D01*
X129458787Y-52479357D01*
X129458735Y-52866413D01*
X129458734Y-52942333D01*
X129458734Y-56108866D01*
X129419787Y-56243375D01*
X129345531Y-56442396D01*
X129244392Y-56623759D01*
X129118924Y-56785193D01*
X128971680Y-56924431D01*
X128805212Y-57039205D01*
X128622073Y-57127246D01*
X128424816Y-57186286D01*
X128341531Y-57201423D01*
X128315989Y-57202718D01*
X128258306Y-57203950D01*
X128170206Y-57205115D01*
X128053415Y-57206208D01*
X127909658Y-57207222D01*
X127740660Y-57208151D01*
X127548147Y-57208992D01*
X127333842Y-57209738D01*
X127099473Y-57210383D01*
X126846763Y-57210922D01*
X126577437Y-57211350D01*
X126293222Y-57211662D01*
X125995842Y-57211851D01*
X125687022Y-57211912D01*
X125368487Y-57211840D01*
X125115334Y-57211688D01*
X121974201Y-57209296D01*
X121850333Y-57170950D01*
X121643204Y-57090498D01*
X121457974Y-56984651D01*
X121295690Y-56854465D01*
X121157398Y-56700997D01*
X121044143Y-56525301D01*
X120956970Y-56328433D01*
X120928680Y-56240700D01*
X120890467Y-56108866D01*
X120890467Y-49741933D01*
X120928708Y-49609997D01*
X121004456Y-49406574D01*
X121107354Y-49222375D01*
X121235600Y-49059206D01*
X121387391Y-48918873D01*
X121560924Y-48803183D01*
X121754398Y-48713940D01*
X121856625Y-48680213D01*
X121991134Y-48641266D01*
X125157667Y-48641266D01*
X125550429Y-48641232D01*
X125910812Y-48641165D01*
X126240304Y-48641118D01*
X126540393Y-48641142D01*
X126812566Y-48641290D01*
X127058312Y-48641616D01*
X127279119Y-48642170D01*
X127476474Y-48643006D01*
X127651865Y-48644177D01*
X127806779Y-48645733D01*
X127942705Y-48647729D01*
X128061131Y-48650216D01*
X128163544Y-48653247D01*
X128251432Y-48656875D01*
X128326283Y-48661151D01*
X128389585Y-48666128D01*
X128442826Y-48671859D01*
X128487492Y-48678396D01*
X128525074Y-48685791D01*
X128557057Y-48694098D01*
X128584930Y-48703368D01*
X128610180Y-48713653D01*
X128634297Y-48725007D01*
X128658766Y-48737482D01*
X128685077Y-48751130D01*
X128714716Y-48766004D01*
X128716143Y-48766698D01*
X128900247Y-48873221D01*
X129059032Y-49001958D01*
X129193804Y-49154196D01*
X129305870Y-49331222D01*
X129322876Y-49364111D01*
X129339031Y-49395355D01*
X129353859Y-49422965D01*
X129367418Y-49448428D01*
X129379762Y-49473235D01*
X129390950Y-49498874D01*
X129401037Y-49526834D01*
X129410080Y-49558604D01*
X129418136Y-49595673D01*
X129425261Y-49639530D01*
X129431512Y-49691663D01*
X129436944Y-49753563D01*
X129441616Y-49826717D01*
X129445582Y-49912614D01*
X129448901Y-50012745D01*
X129451627Y-50128596D01*
X129453819Y-50261658D01*
X129455531Y-50413419D01*
X129456822Y-50585369D01*
X129457747Y-50778996D01*
X129458363Y-50995788D01*
X129458727Y-51237236D01*
X129458894Y-51504828D01*
X129458923Y-51800053D01*
X129822712Y-51800053D01*
X129822613Y-51552202D01*
X129822365Y-51281713D01*
X129821946Y-51037524D01*
X129821311Y-50818119D01*
X129820417Y-50621985D01*
X129819221Y-50447610D01*
X129817679Y-50293479D01*
X129815748Y-50158078D01*
X129813384Y-50039894D01*
X129810545Y-49937414D01*
X129807186Y-49849124D01*
X129803265Y-49773511D01*
X129798738Y-49709059D01*
X129793562Y-49654257D01*
X129787693Y-49607591D01*
X129781087Y-49567546D01*
X129773703Y-49532610D01*
X129765495Y-49501268D01*
X129756422Y-49472008D01*
X129746439Y-49443315D01*
X129735503Y-49413676D01*
X129723570Y-49381577D01*
X129720935Y-49374384D01*
X129625319Y-49160500D01*
X129502360Y-48964633D01*
X129354634Y-48788938D01*
X129184720Y-48635570D01*
X128995196Y-48506685D01*
X128788640Y-48404437D01*
X128567629Y-48330982D01*
X128439844Y-48303460D01*
X128402654Y-48299964D01*
X128333700Y-48296687D01*
X128235082Y-48293627D01*
X128108902Y-48290787D01*
X127957260Y-48288165D01*
X127782259Y-48285764D01*
X127585998Y-48283581D01*
X127370580Y-48281619D01*
X127138106Y-48279878D01*
X126890677Y-48278357D01*
X126630393Y-48277058D01*
X126359357Y-48275980D01*
X126079669Y-48275124D01*
X125793430Y-48274491D01*
X125502743Y-48274080D01*
X125209707Y-48273892D01*
X124916425Y-48273928D01*
X124916425Y-48273928D01*
G37*
X124916425Y-48273928D02*
X124624996Y-48274187D01*
X124337524Y-48274671D01*
X124056108Y-48275379D01*
X123782850Y-48276312D01*
X123519851Y-48277469D01*
X123269213Y-48278853D01*
X123033036Y-48280462D01*
X122813422Y-48282298D01*
X122612472Y-48284360D01*
X122432287Y-48286649D01*
X122274968Y-48289166D01*
X122142617Y-48291910D01*
X122037334Y-48294882D01*
X121961222Y-48298083D01*
X121916380Y-48301512D01*
X121910622Y-48302348D01*
X121682687Y-48358710D01*
X121468570Y-48444633D01*
X121270548Y-48557839D01*
X121090901Y-48696051D01*
X120931906Y-48856990D01*
X120795842Y-49038376D01*
X120684987Y-49237933D01*
X120601621Y-49453382D01*
X120551549Y-49661421D01*
X120548418Y-49682928D01*
X120545551Y-49710945D01*
X120542937Y-49746923D01*
X120540565Y-49792311D01*
X120538424Y-49848561D01*
X120536503Y-49917122D01*
X120534790Y-49999446D01*
X120533274Y-50096982D01*
X120531944Y-50211181D01*
X120530789Y-50343493D01*
X120529798Y-50495369D01*
X120528959Y-50668259D01*
X120528262Y-50863614D01*
X120527695Y-51082884D01*
X120527247Y-51327519D01*
X120526907Y-51598970D01*
X120526663Y-51898687D01*
X120526505Y-52228120D01*
X120526422Y-52588721D01*
X120526400Y-52925399D01*
X120526394Y-53315500D01*
X120526397Y-53673246D01*
X120526450Y-54000150D01*
X120526587Y-54297725D01*
X120526848Y-54567482D01*
X120527269Y-54810934D01*
X120527887Y-55029593D01*
X120528740Y-55224972D01*
X120529865Y-55398583D01*
X120531300Y-55551938D01*
X120533081Y-55686549D01*
X120535247Y-55803930D01*
X120537833Y-55905591D01*
X120540879Y-55993046D01*
X120544420Y-56067807D01*
X120548495Y-56131386D01*
X120553140Y-56185296D01*
X120558393Y-56231048D01*
X120564292Y-56270156D01*
X120570873Y-56304130D01*
X120578174Y-56334485D01*
X120586232Y-56362732D01*
X120595084Y-56390383D01*
X120604768Y-56418950D01*
X120613203Y-56443668D01*
X120699143Y-56646336D01*
X120814378Y-56838106D01*
X120955080Y-57015153D01*
X121117425Y-57173651D01*
X121297587Y-57309773D01*
X121491740Y-57419695D01*
X121656332Y-57486797D01*
X121686685Y-57497165D01*
X121714887Y-57506673D01*
X121742446Y-57515360D01*
X121770869Y-57523260D01*
X121801666Y-57530411D01*
X121836344Y-57536848D01*
X121876413Y-57542608D01*
X121923379Y-57547728D01*
X121978752Y-57552244D01*
X122044040Y-57556192D01*
X122120751Y-57559609D01*
X122210394Y-57562531D01*
X122314477Y-57564995D01*
X122434508Y-57567036D01*
X122571995Y-57568692D01*
X122728447Y-57569998D01*
X122905373Y-57570992D01*
X123104280Y-57571709D01*
X123326677Y-57572186D01*
X123574072Y-57572460D01*
X123847973Y-57572566D01*
X124149889Y-57572542D01*
X124481329Y-57572423D01*
X124843799Y-57572246D01*
X125189519Y-57572071D01*
X125588483Y-57571834D01*
X125954878Y-57571520D01*
X126289999Y-57571121D01*
X126595142Y-57570628D01*
X126871605Y-57570030D01*
X127120684Y-57569319D01*
X127343675Y-57568485D01*
X127541875Y-57567519D01*
X127716581Y-57566411D01*
X127869088Y-57565152D01*
X128000693Y-57563733D01*
X128112693Y-57562144D01*
X128206384Y-57560376D01*
X128283062Y-57558419D01*
X128344025Y-57556264D01*
X128390569Y-57553902D01*
X128423990Y-57551324D01*
X128445584Y-57548519D01*
X128445606Y-57548515D01*
X128673456Y-57490567D01*
X128887351Y-57403186D01*
X129085013Y-57288662D01*
X129264165Y-57149285D01*
X129422528Y-56987345D01*
X129557826Y-56805131D01*
X129667781Y-56604933D01*
X129750114Y-56389040D01*
X129797652Y-56189378D01*
X129800784Y-56167867D01*
X129803651Y-56139848D01*
X129806265Y-56103872D01*
X129808637Y-56058487D01*
X129810778Y-56002241D01*
X129812699Y-55933685D01*
X129814411Y-55851367D01*
X129815925Y-55753836D01*
X129817253Y-55639641D01*
X129818406Y-55507331D01*
X129819394Y-55355455D01*
X129820229Y-55182562D01*
X129820923Y-54987202D01*
X129821486Y-54767922D01*
X129821929Y-54523273D01*
X129822264Y-54251803D01*
X129822502Y-53952062D01*
X129822654Y-53622598D01*
X129822731Y-53261960D01*
X129822746Y-52927415D01*
X129822754Y-52536596D01*
X129822764Y-52178129D01*
X129822731Y-51850503D01*
X129822712Y-51800053D01*
X129458923Y-51800053D01*
X129458868Y-52124399D01*
X129458787Y-52479357D01*
X129458735Y-52866413D01*
X129458734Y-52942333D01*
X129458734Y-56108866D01*
X129419787Y-56243375D01*
X129345531Y-56442396D01*
X129244392Y-56623759D01*
X129118924Y-56785193D01*
X128971680Y-56924431D01*
X128805212Y-57039205D01*
X128622073Y-57127246D01*
X128424816Y-57186286D01*
X128341531Y-57201423D01*
X128315989Y-57202718D01*
X128258306Y-57203950D01*
X128170206Y-57205115D01*
X128053415Y-57206208D01*
X127909658Y-57207222D01*
X127740660Y-57208151D01*
X127548147Y-57208992D01*
X127333842Y-57209738D01*
X127099473Y-57210383D01*
X126846763Y-57210922D01*
X126577437Y-57211350D01*
X126293222Y-57211662D01*
X125995842Y-57211851D01*
X125687022Y-57211912D01*
X125368487Y-57211840D01*
X125115334Y-57211688D01*
X121974201Y-57209296D01*
X121850333Y-57170950D01*
X121643204Y-57090498D01*
X121457974Y-56984651D01*
X121295690Y-56854465D01*
X121157398Y-56700997D01*
X121044143Y-56525301D01*
X120956970Y-56328433D01*
X120928680Y-56240700D01*
X120890467Y-56108866D01*
X120890467Y-49741933D01*
X120928708Y-49609997D01*
X121004456Y-49406574D01*
X121107354Y-49222375D01*
X121235600Y-49059206D01*
X121387391Y-48918873D01*
X121560924Y-48803183D01*
X121754398Y-48713940D01*
X121856625Y-48680213D01*
X121991134Y-48641266D01*
X125157667Y-48641266D01*
X125550429Y-48641232D01*
X125910812Y-48641165D01*
X126240304Y-48641118D01*
X126540393Y-48641142D01*
X126812566Y-48641290D01*
X127058312Y-48641616D01*
X127279119Y-48642170D01*
X127476474Y-48643006D01*
X127651865Y-48644177D01*
X127806779Y-48645733D01*
X127942705Y-48647729D01*
X128061131Y-48650216D01*
X128163544Y-48653247D01*
X128251432Y-48656875D01*
X128326283Y-48661151D01*
X128389585Y-48666128D01*
X128442826Y-48671859D01*
X128487492Y-48678396D01*
X128525074Y-48685791D01*
X128557057Y-48694098D01*
X128584930Y-48703368D01*
X128610180Y-48713653D01*
X128634297Y-48725007D01*
X128658766Y-48737482D01*
X128685077Y-48751130D01*
X128714716Y-48766004D01*
X128716143Y-48766698D01*
X128900247Y-48873221D01*
X129059032Y-49001958D01*
X129193804Y-49154196D01*
X129305870Y-49331222D01*
X129322876Y-49364111D01*
X129339031Y-49395355D01*
X129353859Y-49422965D01*
X129367418Y-49448428D01*
X129379762Y-49473235D01*
X129390950Y-49498874D01*
X129401037Y-49526834D01*
X129410080Y-49558604D01*
X129418136Y-49595673D01*
X129425261Y-49639530D01*
X129431512Y-49691663D01*
X129436944Y-49753563D01*
X129441616Y-49826717D01*
X129445582Y-49912614D01*
X129448901Y-50012745D01*
X129451627Y-50128596D01*
X129453819Y-50261658D01*
X129455531Y-50413419D01*
X129456822Y-50585369D01*
X129457747Y-50778996D01*
X129458363Y-50995788D01*
X129458727Y-51237236D01*
X129458894Y-51504828D01*
X129458923Y-51800053D01*
X129822712Y-51800053D01*
X129822613Y-51552202D01*
X129822365Y-51281713D01*
X129821946Y-51037524D01*
X129821311Y-50818119D01*
X129820417Y-50621985D01*
X129819221Y-50447610D01*
X129817679Y-50293479D01*
X129815748Y-50158078D01*
X129813384Y-50039894D01*
X129810545Y-49937414D01*
X129807186Y-49849124D01*
X129803265Y-49773511D01*
X129798738Y-49709059D01*
X129793562Y-49654257D01*
X129787693Y-49607591D01*
X129781087Y-49567546D01*
X129773703Y-49532610D01*
X129765495Y-49501268D01*
X129756422Y-49472008D01*
X129746439Y-49443315D01*
X129735503Y-49413676D01*
X129723570Y-49381577D01*
X129720935Y-49374384D01*
X129625319Y-49160500D01*
X129502360Y-48964633D01*
X129354634Y-48788938D01*
X129184720Y-48635570D01*
X128995196Y-48506685D01*
X128788640Y-48404437D01*
X128567629Y-48330982D01*
X128439844Y-48303460D01*
X128402654Y-48299964D01*
X128333700Y-48296687D01*
X128235082Y-48293627D01*
X128108902Y-48290787D01*
X127957260Y-48288165D01*
X127782259Y-48285764D01*
X127585998Y-48283581D01*
X127370580Y-48281619D01*
X127138106Y-48279878D01*
X126890677Y-48278357D01*
X126630393Y-48277058D01*
X126359357Y-48275980D01*
X126079669Y-48275124D01*
X125793430Y-48274491D01*
X125502743Y-48274080D01*
X125209707Y-48273892D01*
X124916425Y-48273928D01*
D12*
G04 #@! TO.C,J1*
X158011570Y-39000000D02*
X158011570Y-51700000D01*
X151661570Y-39000000D02*
X152931570Y-39000000D01*
X152931570Y-39000000D02*
X152931570Y-37730000D01*
X158011570Y-51700000D02*
X151661570Y-51700000D01*
X151661570Y-51700000D02*
X151661570Y-39000000D01*
X156741570Y-39000000D02*
X158011570Y-39000000D01*
X152931570Y-37730000D02*
X156741570Y-37730000D01*
X156741570Y-37730000D02*
X156741570Y-39000000D01*
G04 #@! TO.C,D1*
X64700000Y-75440000D02*
X63300000Y-75440000D01*
X64700000Y-74400000D02*
X64000000Y-75440000D01*
X63300000Y-74400000D02*
X64700000Y-74400000D01*
X64000000Y-75440000D02*
X63300000Y-74400000D01*
G04 #@! TO.C,D2*
X64000000Y-94440000D02*
X63300000Y-93400000D01*
X63300000Y-93400000D02*
X64700000Y-93400000D01*
X64700000Y-93400000D02*
X64000000Y-94440000D01*
X64700000Y-94440000D02*
X63300000Y-94440000D01*
G04 #@! TO.C,D3*
X64000000Y-113440000D02*
X63300000Y-112400000D01*
X63300000Y-112400000D02*
X64700000Y-112400000D01*
X64700000Y-112400000D02*
X64000000Y-113440000D01*
X64700000Y-113440000D02*
X63300000Y-113440000D01*
G04 #@! TO.C,D4*
X64000000Y-132440000D02*
X63300000Y-131400000D01*
X63300000Y-131400000D02*
X64700000Y-131400000D01*
X64700000Y-131400000D02*
X64000000Y-132440000D01*
X64700000Y-132440000D02*
X63300000Y-132440000D01*
G04 #@! TO.C,D5*
X64700000Y-151440000D02*
X63300000Y-151440000D01*
X64700000Y-150400000D02*
X64000000Y-151440000D01*
X63300000Y-150400000D02*
X64700000Y-150400000D01*
X64000000Y-151440000D02*
X63300000Y-150400000D01*
G04 #@! TO.C,D6*
X64700000Y-170440000D02*
X63300000Y-170440000D01*
X64700000Y-169400000D02*
X64000000Y-170440000D01*
X63300000Y-169400000D02*
X64700000Y-169400000D01*
X64000000Y-170440000D02*
X63300000Y-169400000D01*
G04 #@! TO.C,D7*
X67000000Y-75440000D02*
X66300000Y-74400000D01*
X66300000Y-74400000D02*
X67700000Y-74400000D01*
X67700000Y-74400000D02*
X67000000Y-75440000D01*
X67700000Y-75440000D02*
X66300000Y-75440000D01*
G04 #@! TO.C,D8*
X67700000Y-94440000D02*
X66300000Y-94440000D01*
X67700000Y-93400000D02*
X67000000Y-94440000D01*
X66300000Y-93400000D02*
X67700000Y-93400000D01*
X67000000Y-94440000D02*
X66300000Y-93400000D01*
G04 #@! TO.C,D9*
X67000000Y-113440000D02*
X66300000Y-112400000D01*
X66300000Y-112400000D02*
X67700000Y-112400000D01*
X67700000Y-112400000D02*
X67000000Y-113440000D01*
X67700000Y-113440000D02*
X66300000Y-113440000D01*
G04 #@! TO.C,D10*
X67000000Y-132440000D02*
X66300000Y-131400000D01*
X66300000Y-131400000D02*
X67700000Y-131400000D01*
X67700000Y-131400000D02*
X67000000Y-132440000D01*
X67700000Y-132440000D02*
X66300000Y-132440000D01*
G04 #@! TO.C,D11*
X67000000Y-151440000D02*
X66300000Y-150400000D01*
X66300000Y-150400000D02*
X67700000Y-150400000D01*
X67700000Y-150400000D02*
X67000000Y-151440000D01*
X67700000Y-151440000D02*
X66300000Y-151440000D01*
G04 #@! TO.C,D12*
X67700000Y-170440000D02*
X66300000Y-170440000D01*
X67700000Y-169400000D02*
X67000000Y-170440000D01*
X66300000Y-169400000D02*
X67700000Y-169400000D01*
X67000000Y-170440000D02*
X66300000Y-169400000D01*
G04 #@! TO.C,D13*
X102000000Y-75440000D02*
X101300000Y-74400000D01*
X101300000Y-74400000D02*
X102700000Y-74400000D01*
X102700000Y-74400000D02*
X102000000Y-75440000D01*
X102700000Y-75440000D02*
X101300000Y-75440000D01*
G04 #@! TO.C,D14*
X102000000Y-94440000D02*
X101300000Y-93400000D01*
X101300000Y-93400000D02*
X102700000Y-93400000D01*
X102700000Y-93400000D02*
X102000000Y-94440000D01*
X102700000Y-94440000D02*
X101300000Y-94440000D01*
G04 #@! TO.C,D15*
X102000000Y-113440000D02*
X101300000Y-112400000D01*
X101300000Y-112400000D02*
X102700000Y-112400000D01*
X102700000Y-112400000D02*
X102000000Y-113440000D01*
X102700000Y-113440000D02*
X101300000Y-113440000D01*
G04 #@! TO.C,D16*
X102700000Y-132440000D02*
X101300000Y-132440000D01*
X102700000Y-131400000D02*
X102000000Y-132440000D01*
X101300000Y-131400000D02*
X102700000Y-131400000D01*
X102000000Y-132440000D02*
X101300000Y-131400000D01*
G04 #@! TO.C,D17*
X102000000Y-151440000D02*
X101300000Y-150400000D01*
X101300000Y-150400000D02*
X102700000Y-150400000D01*
X102700000Y-150400000D02*
X102000000Y-151440000D01*
X102700000Y-151440000D02*
X101300000Y-151440000D01*
G04 #@! TO.C,D18*
X102700000Y-170440000D02*
X101300000Y-170440000D01*
X102700000Y-169400000D02*
X102000000Y-170440000D01*
X101300000Y-169400000D02*
X102700000Y-169400000D01*
X102000000Y-170440000D02*
X101300000Y-169400000D01*
G04 #@! TO.C,D19*
X105700000Y-75440000D02*
X104300000Y-75440000D01*
X105700000Y-74400000D02*
X105000000Y-75440000D01*
X104300000Y-74400000D02*
X105700000Y-74400000D01*
X105000000Y-75440000D02*
X104300000Y-74400000D01*
G04 #@! TO.C,D20*
X105700000Y-94440000D02*
X104300000Y-94440000D01*
X105700000Y-93400000D02*
X105000000Y-94440000D01*
X104300000Y-93400000D02*
X105700000Y-93400000D01*
X105000000Y-94440000D02*
X104300000Y-93400000D01*
G04 #@! TO.C,D21*
X105000000Y-113440000D02*
X104300000Y-112400000D01*
X104300000Y-112400000D02*
X105700000Y-112400000D01*
X105700000Y-112400000D02*
X105000000Y-113440000D01*
X105700000Y-113440000D02*
X104300000Y-113440000D01*
G04 #@! TO.C,D22*
X105700000Y-132440000D02*
X104300000Y-132440000D01*
X105700000Y-131400000D02*
X105000000Y-132440000D01*
X104300000Y-131400000D02*
X105700000Y-131400000D01*
X105000000Y-132440000D02*
X104300000Y-131400000D01*
G04 #@! TO.C,D23*
X105000000Y-151440000D02*
X104300000Y-150400000D01*
X104300000Y-150400000D02*
X105700000Y-150400000D01*
X105700000Y-150400000D02*
X105000000Y-151440000D01*
X105700000Y-151440000D02*
X104300000Y-151440000D01*
G04 #@! TO.C,D24*
X105700000Y-170440000D02*
X104300000Y-170440000D01*
X105700000Y-169400000D02*
X105000000Y-170440000D01*
X104300000Y-169400000D02*
X105700000Y-169400000D01*
X105000000Y-170440000D02*
X104300000Y-169400000D01*
G04 #@! TO.C,D25*
X140000000Y-75440000D02*
X139300000Y-74400000D01*
X139300000Y-74400000D02*
X140700000Y-74400000D01*
X140700000Y-74400000D02*
X140000000Y-75440000D01*
X140700000Y-75440000D02*
X139300000Y-75440000D01*
G04 #@! TO.C,D26*
X140000000Y-94440000D02*
X139300000Y-93400000D01*
X139300000Y-93400000D02*
X140700000Y-93400000D01*
X140700000Y-93400000D02*
X140000000Y-94440000D01*
X140700000Y-94440000D02*
X139300000Y-94440000D01*
G04 #@! TO.C,D27*
X140000000Y-113440000D02*
X139300000Y-112400000D01*
X139300000Y-112400000D02*
X140700000Y-112400000D01*
X140700000Y-112400000D02*
X140000000Y-113440000D01*
X140700000Y-113440000D02*
X139300000Y-113440000D01*
G04 #@! TO.C,D28*
X140700000Y-132440000D02*
X139300000Y-132440000D01*
X140700000Y-131400000D02*
X140000000Y-132440000D01*
X139300000Y-131400000D02*
X140700000Y-131400000D01*
X140000000Y-132440000D02*
X139300000Y-131400000D01*
G04 #@! TO.C,D29*
X140000000Y-151440000D02*
X139300000Y-150400000D01*
X139300000Y-150400000D02*
X140700000Y-150400000D01*
X140700000Y-150400000D02*
X140000000Y-151440000D01*
X140700000Y-151440000D02*
X139300000Y-151440000D01*
G04 #@! TO.C,D30*
X140700000Y-170440000D02*
X139300000Y-170440000D01*
X140700000Y-169400000D02*
X140000000Y-170440000D01*
X139300000Y-169400000D02*
X140700000Y-169400000D01*
X140000000Y-170440000D02*
X139300000Y-169400000D01*
G04 #@! TO.C,D31*
X143700000Y-75440000D02*
X142300000Y-75440000D01*
X143700000Y-74400000D02*
X143000000Y-75440000D01*
X142300000Y-74400000D02*
X143700000Y-74400000D01*
X143000000Y-75440000D02*
X142300000Y-74400000D01*
G04 #@! TO.C,D32*
X143700000Y-94440000D02*
X142300000Y-94440000D01*
X143700000Y-93400000D02*
X143000000Y-94440000D01*
X142300000Y-93400000D02*
X143700000Y-93400000D01*
X143000000Y-94440000D02*
X142300000Y-93400000D01*
G04 #@! TO.C,D33*
X143000000Y-113440000D02*
X142300000Y-112400000D01*
X142300000Y-112400000D02*
X143700000Y-112400000D01*
X143700000Y-112400000D02*
X143000000Y-113440000D01*
X143700000Y-113440000D02*
X142300000Y-113440000D01*
G04 #@! TO.C,D34*
X143700000Y-132440000D02*
X142300000Y-132440000D01*
X143700000Y-131400000D02*
X143000000Y-132440000D01*
X142300000Y-131400000D02*
X143700000Y-131400000D01*
X143000000Y-132440000D02*
X142300000Y-131400000D01*
G04 #@! TO.C,D35*
X143700000Y-151440000D02*
X142300000Y-151440000D01*
X143700000Y-150400000D02*
X143000000Y-151440000D01*
X142300000Y-150400000D02*
X143700000Y-150400000D01*
X143000000Y-151440000D02*
X142300000Y-150400000D01*
G04 #@! TO.C,D36*
X143700000Y-170440000D02*
X142300000Y-170440000D01*
X143700000Y-169400000D02*
X143000000Y-170440000D01*
X142300000Y-169400000D02*
X143700000Y-169400000D01*
X143000000Y-170440000D02*
X142300000Y-169400000D01*
D13*
G04 #@! TO.C,R1*
X110185200Y-52247800D02*
X110337600Y-51816000D01*
X110032800Y-51816000D02*
X110185200Y-52247800D01*
X109880400Y-51384200D02*
X110032800Y-51816000D01*
X109728000Y-51816000D02*
X109880400Y-51384200D01*
X109575600Y-52247800D02*
X109728000Y-51816000D01*
X109423200Y-51816000D02*
X109575600Y-52247800D01*
X109270800Y-51384200D02*
X109423200Y-51816000D01*
X109118400Y-51816000D02*
X109270800Y-51384200D01*
X109118400Y-51816000D02*
X109270800Y-51384200D01*
X109270800Y-51384200D02*
X109423200Y-51816000D01*
X109423200Y-51816000D02*
X109575600Y-52247800D01*
X109575600Y-52247800D02*
X109728000Y-51816000D01*
X109728000Y-51816000D02*
X109880400Y-51384200D01*
X109880400Y-51384200D02*
X110032800Y-51816000D01*
X110032800Y-51816000D02*
X110185200Y-52247800D01*
X110185200Y-52247800D02*
X110337600Y-51816000D01*
G04 #@! TO.C,R2*
X110164200Y-55549800D02*
X110316600Y-55118000D01*
X110011800Y-55118000D02*
X110164200Y-55549800D01*
X109859400Y-54686200D02*
X110011800Y-55118000D01*
X109707000Y-55118000D02*
X109859400Y-54686200D01*
X109554600Y-55549800D02*
X109707000Y-55118000D01*
X109402200Y-55118000D02*
X109554600Y-55549800D01*
X109249800Y-54686200D02*
X109402200Y-55118000D01*
X109097400Y-55118000D02*
X109249800Y-54686200D01*
X109097400Y-55118000D02*
X109249800Y-54686200D01*
X109249800Y-54686200D02*
X109402200Y-55118000D01*
X109402200Y-55118000D02*
X109554600Y-55549800D01*
X109554600Y-55549800D02*
X109707000Y-55118000D01*
X109707000Y-55118000D02*
X109859400Y-54686200D01*
X109859400Y-54686200D02*
X110011800Y-55118000D01*
X110011800Y-55118000D02*
X110164200Y-55549800D01*
X110164200Y-55549800D02*
X110316600Y-55118000D01*
G04 #@! TO.C,U1*
X143952000Y-39878000D02*
X85532000Y-39878000D01*
X85532000Y-39878000D02*
X85532000Y-65278000D01*
X85532000Y-65278000D02*
X143952000Y-65278000D01*
X143952000Y-65278000D02*
X143952000Y-39878000D01*
X86802000Y-48768000D02*
X91882000Y-48768000D01*
X91882000Y-48768000D02*
X91882000Y-56388000D01*
X91882000Y-56388000D02*
X86802000Y-56388000D01*
D12*
G04 #@! TO.C,U2*
X100032000Y-53508000D02*
X100540000Y-53508000D01*
X100032000Y-52238000D02*
X100032000Y-53508000D01*
X100540000Y-52238000D02*
X100032000Y-52238000D01*
X100540000Y-55286000D02*
X100540000Y-50714000D01*
X95460000Y-55286000D02*
X100540000Y-55286000D01*
X95460000Y-50714000D02*
X95460000Y-55286000D01*
X100540000Y-50714000D02*
X95460000Y-50714000D01*
D14*
G04 #@! TO.C,0.1u*
X101000000Y-50250000D02*
X101000000Y-50950000D01*
X102200000Y-50950000D02*
X102200000Y-50250000D01*
G04 #@! TO.C,U1*
D12*
X134988908Y-45397846D02*
X135036527Y-45540703D01*
X135084146Y-45588322D01*
X135179384Y-45635941D01*
X135322241Y-45635941D01*
X135417479Y-45588322D01*
X135465098Y-45540703D01*
X135512717Y-45445465D01*
X135512717Y-45064513D01*
X134512717Y-45064513D01*
X134512717Y-45397846D01*
X134560337Y-45493084D01*
X134607956Y-45540703D01*
X134703194Y-45588322D01*
X134798432Y-45588322D01*
X134893670Y-45540703D01*
X134941289Y-45493084D01*
X134988908Y-45397846D01*
X134988908Y-45064513D01*
X135512717Y-46588322D02*
X135512717Y-46016894D01*
X135512717Y-46302608D02*
X134512717Y-46302608D01*
X134655575Y-46207370D01*
X134750813Y-46112132D01*
X134798432Y-46016894D01*
X134607956Y-46969275D02*
X134560337Y-47016894D01*
X134512717Y-47112132D01*
X134512717Y-47350227D01*
X134560337Y-47445465D01*
X134607956Y-47493084D01*
X134703194Y-47540703D01*
X134798432Y-47540703D01*
X134941289Y-47493084D01*
X135512717Y-46921656D01*
X135512717Y-47540703D01*
X93920337Y-46540703D02*
X93872717Y-46445465D01*
X93872717Y-46302608D01*
X93920337Y-46159751D01*
X94015575Y-46064513D01*
X94110813Y-46016894D01*
X94301289Y-45969275D01*
X94444146Y-45969275D01*
X94634622Y-46016894D01*
X94729860Y-46064513D01*
X94825098Y-46159751D01*
X94872717Y-46302608D01*
X94872717Y-46397846D01*
X94825098Y-46540703D01*
X94777479Y-46588322D01*
X94444146Y-46588322D01*
X94444146Y-46397846D01*
X112367003Y-45088322D02*
X112367003Y-45564513D01*
X112652717Y-44993084D02*
X111652717Y-45326418D01*
X112652717Y-45659751D01*
X112652717Y-46516894D02*
X112652717Y-45945465D01*
X112652717Y-46231179D02*
X111652717Y-46231179D01*
X111795575Y-46135941D01*
X111890813Y-46040703D01*
X111938432Y-45945465D01*
X111652717Y-47421656D02*
X111652717Y-46945465D01*
X112128908Y-46897846D01*
X112081289Y-46945465D01*
X112033670Y-47040703D01*
X112033670Y-47278799D01*
X112081289Y-47374037D01*
X112128908Y-47421656D01*
X112224146Y-47469275D01*
X112462241Y-47469275D01*
X112557479Y-47421656D01*
X112605098Y-47374037D01*
X112652717Y-47278799D01*
X112652717Y-47040703D01*
X112605098Y-46945465D01*
X112557479Y-46897846D01*
X125067003Y-45564513D02*
X125067003Y-46040703D01*
X125352717Y-45469275D02*
X124352717Y-45802608D01*
X125352717Y-46135941D01*
X124781289Y-46612132D02*
X124733670Y-46516894D01*
X124686051Y-46469275D01*
X124590813Y-46421656D01*
X124543194Y-46421656D01*
X124447956Y-46469275D01*
X124400337Y-46516894D01*
X124352717Y-46612132D01*
X124352717Y-46802608D01*
X124400337Y-46897846D01*
X124447956Y-46945465D01*
X124543194Y-46993084D01*
X124590813Y-46993084D01*
X124686051Y-46945465D01*
X124733670Y-46897846D01*
X124781289Y-46802608D01*
X124781289Y-46612132D01*
X124828908Y-46516894D01*
X124876527Y-46469275D01*
X124971765Y-46421656D01*
X125162241Y-46421656D01*
X125257479Y-46469275D01*
X125305098Y-46516894D01*
X125352717Y-46612132D01*
X125352717Y-46802608D01*
X125305098Y-46897846D01*
X125257479Y-46945465D01*
X125162241Y-46993084D01*
X124971765Y-46993084D01*
X124876527Y-46945465D01*
X124828908Y-46897846D01*
X124781289Y-46802608D01*
X114907003Y-45088322D02*
X114907003Y-45564513D01*
X115192717Y-44993084D02*
X114192717Y-45326418D01*
X115192717Y-45659751D01*
X115192717Y-46516894D02*
X115192717Y-45945465D01*
X115192717Y-46231179D02*
X114192717Y-46231179D01*
X114335575Y-46135941D01*
X114430813Y-46040703D01*
X114478432Y-45945465D01*
X114287956Y-46897846D02*
X114240337Y-46945465D01*
X114192717Y-47040703D01*
X114192717Y-47278799D01*
X114240337Y-47374037D01*
X114287956Y-47421656D01*
X114383194Y-47469275D01*
X114478432Y-47469275D01*
X114621289Y-47421656D01*
X115192717Y-46850227D01*
X115192717Y-47469275D01*
X122527003Y-45564513D02*
X122527003Y-46040703D01*
X122812717Y-45469275D02*
X121812717Y-45802608D01*
X122812717Y-46135941D01*
X122812717Y-46516894D02*
X122812717Y-46707370D01*
X122765098Y-46802608D01*
X122717479Y-46850227D01*
X122574622Y-46945465D01*
X122384146Y-46993084D01*
X122003194Y-46993084D01*
X121907956Y-46945465D01*
X121860337Y-46897846D01*
X121812717Y-46802608D01*
X121812717Y-46612132D01*
X121860337Y-46516894D01*
X121907956Y-46469275D01*
X122003194Y-46421656D01*
X122241289Y-46421656D01*
X122336527Y-46469275D01*
X122384146Y-46516894D01*
X122431765Y-46612132D01*
X122431765Y-46802608D01*
X122384146Y-46897846D01*
X122336527Y-46945465D01*
X122241289Y-46993084D01*
X96412717Y-45469275D02*
X97412717Y-45802608D01*
X96412717Y-46135941D01*
X96412717Y-46374037D02*
X96412717Y-46993084D01*
X96793670Y-46659751D01*
X96793670Y-46802608D01*
X96841289Y-46897846D01*
X96888908Y-46945465D01*
X96984146Y-46993084D01*
X97222241Y-46993084D01*
X97317479Y-46945465D01*
X97365098Y-46897846D01*
X97412717Y-46802608D01*
X97412717Y-46516894D01*
X97365098Y-46421656D01*
X97317479Y-46374037D01*
X107048908Y-45874037D02*
X107096527Y-46016894D01*
X107144146Y-46064513D01*
X107239384Y-46112132D01*
X107382241Y-46112132D01*
X107477479Y-46064513D01*
X107525098Y-46016894D01*
X107572717Y-45921656D01*
X107572717Y-45540703D01*
X106572717Y-45540703D01*
X106572717Y-45874037D01*
X106620337Y-45969275D01*
X106667956Y-46016894D01*
X106763194Y-46064513D01*
X106858432Y-46064513D01*
X106953670Y-46016894D01*
X107001289Y-45969275D01*
X107048908Y-45874037D01*
X107048908Y-45540703D01*
X106906051Y-46969275D02*
X107572717Y-46969275D01*
X106525098Y-46731179D02*
X107239384Y-46493084D01*
X107239384Y-47112132D01*
X99428908Y-45874037D02*
X99476527Y-46016894D01*
X99524146Y-46064513D01*
X99619384Y-46112132D01*
X99762241Y-46112132D01*
X99857479Y-46064513D01*
X99905098Y-46016894D01*
X99952717Y-45921656D01*
X99952717Y-45540703D01*
X98952717Y-45540703D01*
X98952717Y-45874037D01*
X99000337Y-45969275D01*
X99047956Y-46016894D01*
X99143194Y-46064513D01*
X99238432Y-46064513D01*
X99333670Y-46016894D01*
X99381289Y-45969275D01*
X99428908Y-45874037D01*
X99428908Y-45540703D01*
X98952717Y-46445465D02*
X98952717Y-47112132D01*
X99952717Y-46683560D01*
X127368908Y-45397846D02*
X127416527Y-45540703D01*
X127464146Y-45588322D01*
X127559384Y-45635941D01*
X127702241Y-45635941D01*
X127797479Y-45588322D01*
X127845098Y-45540703D01*
X127892717Y-45445465D01*
X127892717Y-45064513D01*
X126892717Y-45064513D01*
X126892717Y-45397846D01*
X126940337Y-45493084D01*
X126987956Y-45540703D01*
X127083194Y-45588322D01*
X127178432Y-45588322D01*
X127273670Y-45540703D01*
X127321289Y-45493084D01*
X127368908Y-45397846D01*
X127368908Y-45064513D01*
X127892717Y-46588322D02*
X127892717Y-46016894D01*
X127892717Y-46302608D02*
X126892717Y-46302608D01*
X127035575Y-46207370D01*
X127130813Y-46112132D01*
X127178432Y-46016894D01*
X126892717Y-47493084D02*
X126892717Y-47016894D01*
X127368908Y-46969275D01*
X127321289Y-47016894D01*
X127273670Y-47112132D01*
X127273670Y-47350227D01*
X127321289Y-47445465D01*
X127368908Y-47493084D01*
X127464146Y-47540703D01*
X127702241Y-47540703D01*
X127797479Y-47493084D01*
X127845098Y-47445465D01*
X127892717Y-47350227D01*
X127892717Y-47112132D01*
X127845098Y-47016894D01*
X127797479Y-46969275D01*
X101968908Y-45874037D02*
X102016527Y-46016894D01*
X102064146Y-46064513D01*
X102159384Y-46112132D01*
X102302241Y-46112132D01*
X102397479Y-46064513D01*
X102445098Y-46016894D01*
X102492717Y-45921656D01*
X102492717Y-45540703D01*
X101492717Y-45540703D01*
X101492717Y-45874037D01*
X101540337Y-45969275D01*
X101587956Y-46016894D01*
X101683194Y-46064513D01*
X101778432Y-46064513D01*
X101873670Y-46016894D01*
X101921289Y-45969275D01*
X101968908Y-45874037D01*
X101968908Y-45540703D01*
X101492717Y-46969275D02*
X101492717Y-46778799D01*
X101540337Y-46683560D01*
X101587956Y-46635941D01*
X101730813Y-46540703D01*
X101921289Y-46493084D01*
X102302241Y-46493084D01*
X102397479Y-46540703D01*
X102445098Y-46588322D01*
X102492717Y-46683560D01*
X102492717Y-46874037D01*
X102445098Y-46969275D01*
X102397479Y-47016894D01*
X102302241Y-47064513D01*
X102064146Y-47064513D01*
X101968908Y-47016894D01*
X101921289Y-46969275D01*
X101873670Y-46874037D01*
X101873670Y-46683560D01*
X101921289Y-46588322D01*
X101968908Y-46540703D01*
X102064146Y-46493084D01*
X104508908Y-45874037D02*
X104556527Y-46016894D01*
X104604146Y-46064513D01*
X104699384Y-46112132D01*
X104842241Y-46112132D01*
X104937479Y-46064513D01*
X104985098Y-46016894D01*
X105032717Y-45921656D01*
X105032717Y-45540703D01*
X104032717Y-45540703D01*
X104032717Y-45874037D01*
X104080337Y-45969275D01*
X104127956Y-46016894D01*
X104223194Y-46064513D01*
X104318432Y-46064513D01*
X104413670Y-46016894D01*
X104461289Y-45969275D01*
X104508908Y-45874037D01*
X104508908Y-45540703D01*
X104032717Y-47016894D02*
X104032717Y-46540703D01*
X104508908Y-46493084D01*
X104461289Y-46540703D01*
X104413670Y-46635941D01*
X104413670Y-46874037D01*
X104461289Y-46969275D01*
X104508908Y-47016894D01*
X104604146Y-47064513D01*
X104842241Y-47064513D01*
X104937479Y-47016894D01*
X104985098Y-46969275D01*
X105032717Y-46874037D01*
X105032717Y-46635941D01*
X104985098Y-46540703D01*
X104937479Y-46493084D01*
X119987003Y-45088322D02*
X119987003Y-45564513D01*
X120272717Y-44993084D02*
X119272717Y-45326418D01*
X120272717Y-45659751D01*
X120272717Y-46516894D02*
X120272717Y-45945465D01*
X120272717Y-46231179D02*
X119272717Y-46231179D01*
X119415575Y-46135941D01*
X119510813Y-46040703D01*
X119558432Y-45945465D01*
X119272717Y-47135941D02*
X119272717Y-47231179D01*
X119320337Y-47326418D01*
X119367956Y-47374037D01*
X119463194Y-47421656D01*
X119653670Y-47469275D01*
X119891765Y-47469275D01*
X120082241Y-47421656D01*
X120177479Y-47374037D01*
X120225098Y-47326418D01*
X120272717Y-47231179D01*
X120272717Y-47135941D01*
X120225098Y-47040703D01*
X120177479Y-46993084D01*
X120082241Y-46945465D01*
X119891765Y-46897846D01*
X119653670Y-46897846D01*
X119463194Y-46945465D01*
X119367956Y-46993084D01*
X119320337Y-47040703D01*
X119272717Y-47135941D01*
X129908908Y-45397846D02*
X129956527Y-45540703D01*
X130004146Y-45588322D01*
X130099384Y-45635941D01*
X130242241Y-45635941D01*
X130337479Y-45588322D01*
X130385098Y-45540703D01*
X130432717Y-45445465D01*
X130432717Y-45064513D01*
X129432717Y-45064513D01*
X129432717Y-45397846D01*
X129480337Y-45493084D01*
X129527956Y-45540703D01*
X129623194Y-45588322D01*
X129718432Y-45588322D01*
X129813670Y-45540703D01*
X129861289Y-45493084D01*
X129908908Y-45397846D01*
X129908908Y-45064513D01*
X130432717Y-46588322D02*
X130432717Y-46016894D01*
X130432717Y-46302608D02*
X129432717Y-46302608D01*
X129575575Y-46207370D01*
X129670813Y-46112132D01*
X129718432Y-46016894D01*
X129766051Y-47445465D02*
X130432717Y-47445465D01*
X129385098Y-47207370D02*
X130099384Y-46969275D01*
X130099384Y-47588322D01*
X117447003Y-45088322D02*
X117447003Y-45564513D01*
X117732717Y-44993084D02*
X116732717Y-45326418D01*
X117732717Y-45659751D01*
X117732717Y-46516894D02*
X117732717Y-45945465D01*
X117732717Y-46231179D02*
X116732717Y-46231179D01*
X116875575Y-46135941D01*
X116970813Y-46040703D01*
X117018432Y-45945465D01*
X117732717Y-47469275D02*
X117732717Y-46897846D01*
X117732717Y-47183560D02*
X116732717Y-47183560D01*
X116875575Y-47088322D01*
X116970813Y-46993084D01*
X117018432Y-46897846D01*
X132448908Y-45397846D02*
X132496527Y-45540703D01*
X132544146Y-45588322D01*
X132639384Y-45635941D01*
X132782241Y-45635941D01*
X132877479Y-45588322D01*
X132925098Y-45540703D01*
X132972717Y-45445465D01*
X132972717Y-45064513D01*
X131972717Y-45064513D01*
X131972717Y-45397846D01*
X132020337Y-45493084D01*
X132067956Y-45540703D01*
X132163194Y-45588322D01*
X132258432Y-45588322D01*
X132353670Y-45540703D01*
X132401289Y-45493084D01*
X132448908Y-45397846D01*
X132448908Y-45064513D01*
X132972717Y-46588322D02*
X132972717Y-46016894D01*
X132972717Y-46302608D02*
X131972717Y-46302608D01*
X132115575Y-46207370D01*
X132210813Y-46112132D01*
X132258432Y-46016894D01*
X131972717Y-46921656D02*
X131972717Y-47540703D01*
X132353670Y-47207370D01*
X132353670Y-47350227D01*
X132401289Y-47445465D01*
X132448908Y-47493084D01*
X132544146Y-47540703D01*
X132782241Y-47540703D01*
X132877479Y-47493084D01*
X132925098Y-47445465D01*
X132972717Y-47350227D01*
X132972717Y-47064513D01*
X132925098Y-46969275D01*
X132877479Y-46921656D01*
X109588908Y-45874037D02*
X109636527Y-46016894D01*
X109684146Y-46064513D01*
X109779384Y-46112132D01*
X109922241Y-46112132D01*
X110017479Y-46064513D01*
X110065098Y-46016894D01*
X110112717Y-45921656D01*
X110112717Y-45540703D01*
X109112717Y-45540703D01*
X109112717Y-45874037D01*
X109160337Y-45969275D01*
X109207956Y-46016894D01*
X109303194Y-46064513D01*
X109398432Y-46064513D01*
X109493670Y-46016894D01*
X109541289Y-45969275D01*
X109588908Y-45874037D01*
X109588908Y-45540703D01*
X109112717Y-46445465D02*
X109112717Y-47064513D01*
X109493670Y-46731179D01*
X109493670Y-46874037D01*
X109541289Y-46969275D01*
X109588908Y-47016894D01*
X109684146Y-47064513D01*
X109922241Y-47064513D01*
X110017479Y-47016894D01*
X110065098Y-46969275D01*
X110112717Y-46874037D01*
X110112717Y-46588322D01*
X110065098Y-46493084D01*
X110017479Y-46445465D01*
X119994662Y-58266077D02*
X119994662Y-58742267D01*
X120280376Y-58170839D02*
X119280376Y-58504172D01*
X120280376Y-58837505D01*
X119280376Y-59647029D02*
X119280376Y-59170839D01*
X119756567Y-59123220D01*
X119708948Y-59170839D01*
X119661329Y-59266077D01*
X119661329Y-59504172D01*
X119708948Y-59599410D01*
X119756567Y-59647029D01*
X119851805Y-59694648D01*
X120089900Y-59694648D01*
X120185138Y-59647029D01*
X120232757Y-59599410D01*
X120280376Y-59504172D01*
X120280376Y-59266077D01*
X120232757Y-59170839D01*
X120185138Y-59123220D01*
X127376567Y-58575601D02*
X127424186Y-58718458D01*
X127471805Y-58766077D01*
X127567043Y-58813696D01*
X127709900Y-58813696D01*
X127805138Y-58766077D01*
X127852757Y-58718458D01*
X127900376Y-58623220D01*
X127900376Y-58242267D01*
X126900376Y-58242267D01*
X126900376Y-58575601D01*
X126947996Y-58670839D01*
X126995615Y-58718458D01*
X127090853Y-58766077D01*
X127186091Y-58766077D01*
X127281329Y-58718458D01*
X127328948Y-58670839D01*
X127376567Y-58575601D01*
X127376567Y-58242267D01*
X126900376Y-59432743D02*
X126900376Y-59527982D01*
X126947996Y-59623220D01*
X126995615Y-59670839D01*
X127090853Y-59718458D01*
X127281329Y-59766077D01*
X127519424Y-59766077D01*
X127709900Y-59718458D01*
X127805138Y-59670839D01*
X127852757Y-59623220D01*
X127900376Y-59527982D01*
X127900376Y-59432743D01*
X127852757Y-59337505D01*
X127805138Y-59289886D01*
X127709900Y-59242267D01*
X127519424Y-59194648D01*
X127281329Y-59194648D01*
X127090853Y-59242267D01*
X126995615Y-59289886D01*
X126947996Y-59337505D01*
X126900376Y-59432743D01*
X125074662Y-58266077D02*
X125074662Y-58742267D01*
X125360376Y-58170839D02*
X124360376Y-58504172D01*
X125360376Y-58837505D01*
X124360376Y-59075601D02*
X124360376Y-59742267D01*
X125360376Y-59313696D01*
X134996567Y-58099410D02*
X135044186Y-58242267D01*
X135091805Y-58289886D01*
X135187043Y-58337505D01*
X135329900Y-58337505D01*
X135425138Y-58289886D01*
X135472757Y-58242267D01*
X135520376Y-58147029D01*
X135520376Y-57766077D01*
X134520376Y-57766077D01*
X134520376Y-58099410D01*
X134567996Y-58194648D01*
X134615615Y-58242267D01*
X134710853Y-58289886D01*
X134806091Y-58289886D01*
X134901329Y-58242267D01*
X134948948Y-58194648D01*
X134996567Y-58099410D01*
X134996567Y-57766077D01*
X135520376Y-59289886D02*
X135520376Y-58718458D01*
X135520376Y-59004172D02*
X134520376Y-59004172D01*
X134663234Y-58908934D01*
X134758472Y-58813696D01*
X134806091Y-58718458D01*
X135520376Y-60242267D02*
X135520376Y-59670839D01*
X135520376Y-59956553D02*
X134520376Y-59956553D01*
X134663234Y-59861315D01*
X134758472Y-59766077D01*
X134806091Y-59670839D01*
X105040376Y-58432743D02*
X104564186Y-58099410D01*
X105040376Y-57861315D02*
X104040376Y-57861315D01*
X104040376Y-58242267D01*
X104087996Y-58337505D01*
X104135615Y-58385124D01*
X104230853Y-58432743D01*
X104373710Y-58432743D01*
X104468948Y-58385124D01*
X104516567Y-58337505D01*
X104564186Y-58242267D01*
X104564186Y-57861315D01*
X104992757Y-58813696D02*
X105040376Y-58956553D01*
X105040376Y-59194648D01*
X104992757Y-59289886D01*
X104945138Y-59337505D01*
X104849900Y-59385124D01*
X104754662Y-59385124D01*
X104659424Y-59337505D01*
X104611805Y-59289886D01*
X104564186Y-59194648D01*
X104516567Y-59004172D01*
X104468948Y-58908934D01*
X104421329Y-58861315D01*
X104326091Y-58813696D01*
X104230853Y-58813696D01*
X104135615Y-58861315D01*
X104087996Y-58908934D01*
X104040376Y-59004172D01*
X104040376Y-59242267D01*
X104087996Y-59385124D01*
X104040376Y-59670839D02*
X104040376Y-60242267D01*
X105040376Y-59956553D02*
X104040376Y-59956553D01*
X117454662Y-58266077D02*
X117454662Y-58742267D01*
X117740376Y-58170839D02*
X116740376Y-58504172D01*
X117740376Y-58837505D01*
X117073710Y-59599410D02*
X117740376Y-59599410D01*
X116692757Y-59361315D02*
X117407043Y-59123220D01*
X117407043Y-59742267D01*
X107294662Y-58266077D02*
X107294662Y-58742267D01*
X107580376Y-58170839D02*
X106580376Y-58504172D01*
X107580376Y-58837505D01*
X106580376Y-59361315D02*
X106580376Y-59456553D01*
X106627996Y-59551791D01*
X106675615Y-59599410D01*
X106770853Y-59647029D01*
X106961329Y-59694648D01*
X107199424Y-59694648D01*
X107389900Y-59647029D01*
X107485138Y-59599410D01*
X107532757Y-59551791D01*
X107580376Y-59456553D01*
X107580376Y-59361315D01*
X107532757Y-59266077D01*
X107485138Y-59218458D01*
X107389900Y-59170839D01*
X107199424Y-59123220D01*
X106961329Y-59123220D01*
X106770853Y-59170839D01*
X106675615Y-59218458D01*
X106627996Y-59266077D01*
X106580376Y-59361315D01*
X114914662Y-58266077D02*
X114914662Y-58742267D01*
X115200376Y-58170839D02*
X114200376Y-58504172D01*
X115200376Y-58837505D01*
X114200376Y-59075601D02*
X114200376Y-59694648D01*
X114581329Y-59361315D01*
X114581329Y-59504172D01*
X114628948Y-59599410D01*
X114676567Y-59647029D01*
X114771805Y-59694648D01*
X115009900Y-59694648D01*
X115105138Y-59647029D01*
X115152757Y-59599410D01*
X115200376Y-59504172D01*
X115200376Y-59218458D01*
X115152757Y-59123220D01*
X115105138Y-59075601D01*
X112374662Y-58266077D02*
X112374662Y-58742267D01*
X112660376Y-58170839D02*
X111660376Y-58504172D01*
X112660376Y-58837505D01*
X111755615Y-59123220D02*
X111707996Y-59170839D01*
X111660376Y-59266077D01*
X111660376Y-59504172D01*
X111707996Y-59599410D01*
X111755615Y-59647029D01*
X111850853Y-59694648D01*
X111946091Y-59694648D01*
X112088948Y-59647029D01*
X112660376Y-59075601D01*
X112660376Y-59694648D01*
X129916567Y-58575601D02*
X129964186Y-58718458D01*
X130011805Y-58766077D01*
X130107043Y-58813696D01*
X130249900Y-58813696D01*
X130345138Y-58766077D01*
X130392757Y-58718458D01*
X130440376Y-58623220D01*
X130440376Y-58242267D01*
X129440376Y-58242267D01*
X129440376Y-58575601D01*
X129487996Y-58670839D01*
X129535615Y-58718458D01*
X129630853Y-58766077D01*
X129726091Y-58766077D01*
X129821329Y-58718458D01*
X129868948Y-58670839D01*
X129916567Y-58575601D01*
X129916567Y-58242267D01*
X130440376Y-59766077D02*
X130440376Y-59194648D01*
X130440376Y-59480363D02*
X129440376Y-59480363D01*
X129583234Y-59385124D01*
X129678472Y-59289886D01*
X129726091Y-59194648D01*
X96896567Y-58575601D02*
X96944186Y-58718458D01*
X96991805Y-58766077D01*
X97087043Y-58813696D01*
X97229900Y-58813696D01*
X97325138Y-58766077D01*
X97372757Y-58718458D01*
X97420376Y-58623220D01*
X97420376Y-58242267D01*
X96420376Y-58242267D01*
X96420376Y-58575601D01*
X96467996Y-58670839D01*
X96515615Y-58718458D01*
X96610853Y-58766077D01*
X96706091Y-58766077D01*
X96801329Y-58718458D01*
X96848948Y-58670839D01*
X96896567Y-58575601D01*
X96896567Y-58242267D01*
X96848948Y-59385124D02*
X96801329Y-59289886D01*
X96753710Y-59242267D01*
X96658472Y-59194648D01*
X96610853Y-59194648D01*
X96515615Y-59242267D01*
X96467996Y-59289886D01*
X96420376Y-59385124D01*
X96420376Y-59575601D01*
X96467996Y-59670839D01*
X96515615Y-59718458D01*
X96610853Y-59766077D01*
X96658472Y-59766077D01*
X96753710Y-59718458D01*
X96801329Y-59670839D01*
X96848948Y-59575601D01*
X96848948Y-59385124D01*
X96896567Y-59289886D01*
X96944186Y-59242267D01*
X97039424Y-59194648D01*
X97229900Y-59194648D01*
X97325138Y-59242267D01*
X97372757Y-59289886D01*
X97420376Y-59385124D01*
X97420376Y-59575601D01*
X97372757Y-59670839D01*
X97325138Y-59718458D01*
X97229900Y-59766077D01*
X97039424Y-59766077D01*
X96944186Y-59718458D01*
X96896567Y-59670839D01*
X96848948Y-59575601D01*
X122534662Y-58266077D02*
X122534662Y-58742267D01*
X122820376Y-58170839D02*
X121820376Y-58504172D01*
X122820376Y-58837505D01*
X121820376Y-59599410D02*
X121820376Y-59408934D01*
X121867996Y-59313696D01*
X121915615Y-59266077D01*
X122058472Y-59170839D01*
X122248948Y-59123220D01*
X122629900Y-59123220D01*
X122725138Y-59170839D01*
X122772757Y-59218458D01*
X122820376Y-59313696D01*
X122820376Y-59504172D01*
X122772757Y-59599410D01*
X122725138Y-59647029D01*
X122629900Y-59694648D01*
X122391805Y-59694648D01*
X122296567Y-59647029D01*
X122248948Y-59599410D01*
X122201329Y-59504172D01*
X122201329Y-59313696D01*
X122248948Y-59218458D01*
X122296567Y-59170839D01*
X122391805Y-59123220D01*
X99436567Y-58575601D02*
X99484186Y-58718458D01*
X99531805Y-58766077D01*
X99627043Y-58813696D01*
X99769900Y-58813696D01*
X99865138Y-58766077D01*
X99912757Y-58718458D01*
X99960376Y-58623220D01*
X99960376Y-58242267D01*
X98960376Y-58242267D01*
X98960376Y-58575601D01*
X99007996Y-58670839D01*
X99055615Y-58718458D01*
X99150853Y-58766077D01*
X99246091Y-58766077D01*
X99341329Y-58718458D01*
X99388948Y-58670839D01*
X99436567Y-58575601D01*
X99436567Y-58242267D01*
X99960376Y-59289886D02*
X99960376Y-59480363D01*
X99912757Y-59575601D01*
X99865138Y-59623220D01*
X99722281Y-59718458D01*
X99531805Y-59766077D01*
X99150853Y-59766077D01*
X99055615Y-59718458D01*
X99007996Y-59670839D01*
X98960376Y-59575601D01*
X98960376Y-59385124D01*
X99007996Y-59289886D01*
X99055615Y-59242267D01*
X99150853Y-59194648D01*
X99388948Y-59194648D01*
X99484186Y-59242267D01*
X99531805Y-59289886D01*
X99579424Y-59385124D01*
X99579424Y-59575601D01*
X99531805Y-59670839D01*
X99484186Y-59718458D01*
X99388948Y-59766077D01*
X93927996Y-59242267D02*
X93880376Y-59147029D01*
X93880376Y-59004172D01*
X93927996Y-58861315D01*
X94023234Y-58766077D01*
X94118472Y-58718458D01*
X94308948Y-58670839D01*
X94451805Y-58670839D01*
X94642281Y-58718458D01*
X94737519Y-58766077D01*
X94832757Y-58861315D01*
X94880376Y-59004172D01*
X94880376Y-59099410D01*
X94832757Y-59242267D01*
X94785138Y-59289886D01*
X94451805Y-59289886D01*
X94451805Y-59099410D01*
X132456567Y-58099410D02*
X132504186Y-58242267D01*
X132551805Y-58289886D01*
X132647043Y-58337505D01*
X132789900Y-58337505D01*
X132885138Y-58289886D01*
X132932757Y-58242267D01*
X132980376Y-58147029D01*
X132980376Y-57766077D01*
X131980376Y-57766077D01*
X131980376Y-58099410D01*
X132027996Y-58194648D01*
X132075615Y-58242267D01*
X132170853Y-58289886D01*
X132266091Y-58289886D01*
X132361329Y-58242267D01*
X132408948Y-58194648D01*
X132456567Y-58099410D01*
X132456567Y-57766077D01*
X132980376Y-59289886D02*
X132980376Y-58718458D01*
X132980376Y-59004172D02*
X131980376Y-59004172D01*
X132123234Y-58908934D01*
X132218472Y-58813696D01*
X132266091Y-58718458D01*
X131980376Y-59908934D02*
X131980376Y-60004172D01*
X132027996Y-60099410D01*
X132075615Y-60147029D01*
X132170853Y-60194648D01*
X132361329Y-60242267D01*
X132599424Y-60242267D01*
X132789900Y-60194648D01*
X132885138Y-60147029D01*
X132932757Y-60099410D01*
X132980376Y-60004172D01*
X132980376Y-59908934D01*
X132932757Y-59813696D01*
X132885138Y-59766077D01*
X132789900Y-59718458D01*
X132599424Y-59670839D01*
X132361329Y-59670839D01*
X132170853Y-59718458D01*
X132075615Y-59766077D01*
X132027996Y-59813696D01*
X131980376Y-59908934D01*
X109834662Y-58266077D02*
X109834662Y-58742267D01*
X110120376Y-58170839D02*
X109120376Y-58504172D01*
X110120376Y-58837505D01*
X110120376Y-59694648D02*
X110120376Y-59123220D01*
X110120376Y-59408934D02*
X109120376Y-59408934D01*
X109263234Y-59313696D01*
X109358472Y-59218458D01*
X109406091Y-59123220D01*
X102405138Y-58337505D02*
X102452757Y-58289886D01*
X102500376Y-58147029D01*
X102500376Y-58051791D01*
X102452757Y-57908934D01*
X102357519Y-57813696D01*
X102262281Y-57766077D01*
X102071805Y-57718458D01*
X101928948Y-57718458D01*
X101738472Y-57766077D01*
X101643234Y-57813696D01*
X101547996Y-57908934D01*
X101500376Y-58051791D01*
X101500376Y-58147029D01*
X101547996Y-58289886D01*
X101595615Y-58337505D01*
X102500376Y-59289886D02*
X102500376Y-58718458D01*
X102500376Y-59004172D02*
X101500376Y-59004172D01*
X101643234Y-58908934D01*
X101738472Y-58813696D01*
X101786091Y-58718458D01*
X101500376Y-59623220D02*
X101500376Y-60242267D01*
X101881329Y-59908934D01*
X101881329Y-60051791D01*
X101928948Y-60147029D01*
X101976567Y-60194648D01*
X102071805Y-60242267D01*
X102309900Y-60242267D01*
X102405138Y-60194648D01*
X102452757Y-60147029D01*
X102500376Y-60051791D01*
X102500376Y-59766077D01*
X102452757Y-59670839D01*
X102405138Y-59623220D01*
X87524380Y-51316095D02*
X88333904Y-51316095D01*
X88429142Y-51363714D01*
X88476761Y-51411333D01*
X88524380Y-51506571D01*
X88524380Y-51697047D01*
X88476761Y-51792285D01*
X88429142Y-51839904D01*
X88333904Y-51887523D01*
X87524380Y-51887523D01*
X88476761Y-52316095D02*
X88524380Y-52458952D01*
X88524380Y-52697047D01*
X88476761Y-52792285D01*
X88429142Y-52839904D01*
X88333904Y-52887523D01*
X88238666Y-52887523D01*
X88143428Y-52839904D01*
X88095809Y-52792285D01*
X88048190Y-52697047D01*
X88000571Y-52506571D01*
X87952952Y-52411333D01*
X87905333Y-52363714D01*
X87810095Y-52316095D01*
X87714857Y-52316095D01*
X87619619Y-52363714D01*
X87572000Y-52411333D01*
X87524380Y-52506571D01*
X87524380Y-52744666D01*
X87572000Y-52887523D01*
X88000571Y-53649428D02*
X88048190Y-53792285D01*
X88095809Y-53839904D01*
X88191047Y-53887523D01*
X88333904Y-53887523D01*
X88429142Y-53839904D01*
X88476761Y-53792285D01*
X88524380Y-53697047D01*
X88524380Y-53316095D01*
X87524380Y-53316095D01*
X87524380Y-53649428D01*
X87572000Y-53744666D01*
X87619619Y-53792285D01*
X87714857Y-53839904D01*
X87810095Y-53839904D01*
X87905333Y-53792285D01*
X87952952Y-53744666D01*
X88000571Y-53649428D01*
X88000571Y-53316095D01*
G04 #@! TO.C,U2*
X98761904Y-51182380D02*
X98761904Y-51991904D01*
X98714285Y-52087142D01*
X98666666Y-52134761D01*
X98571428Y-52182380D01*
X98380952Y-52182380D01*
X98285714Y-52134761D01*
X98238095Y-52087142D01*
X98190476Y-51991904D01*
X98190476Y-51182380D01*
X97761904Y-51277619D02*
X97714285Y-51230000D01*
X97619047Y-51182380D01*
X97380952Y-51182380D01*
X97285714Y-51230000D01*
X97238095Y-51277619D01*
X97190476Y-51372857D01*
X97190476Y-51468095D01*
X97238095Y-51610952D01*
X97809523Y-52182380D01*
X97190476Y-52182380D01*
G04 #@! TO.C,SDA1*
X159390476Y-54504761D02*
X159247619Y-54552380D01*
X159009523Y-54552380D01*
X158914285Y-54504761D01*
X158866666Y-54457142D01*
X158819047Y-54361904D01*
X158819047Y-54266666D01*
X158866666Y-54171428D01*
X158914285Y-54123809D01*
X159009523Y-54076190D01*
X159200000Y-54028571D01*
X159295238Y-53980952D01*
X159342857Y-53933333D01*
X159390476Y-53838095D01*
X159390476Y-53742857D01*
X159342857Y-53647619D01*
X159295238Y-53600000D01*
X159200000Y-53552380D01*
X158961904Y-53552380D01*
X158819047Y-53600000D01*
X158390476Y-54552380D02*
X158390476Y-53552380D01*
X158152380Y-53552380D01*
X158009523Y-53600000D01*
X157914285Y-53695238D01*
X157866666Y-53790476D01*
X157819047Y-53980952D01*
X157819047Y-54123809D01*
X157866666Y-54314285D01*
X157914285Y-54409523D01*
X158009523Y-54504761D01*
X158152380Y-54552380D01*
X158390476Y-54552380D01*
X157438095Y-54266666D02*
X156961904Y-54266666D01*
X157533333Y-54552380D02*
X157200000Y-53552380D01*
X156866666Y-54552380D01*
X156009523Y-54552380D02*
X156580952Y-54552380D01*
X156295238Y-54552380D02*
X156295238Y-53552380D01*
X156390476Y-53695238D01*
X156485714Y-53790476D01*
X156580952Y-53838095D01*
G04 #@! TO.C,SCL1 *
X151847619Y-54504761D02*
X151704761Y-54552380D01*
X151466666Y-54552380D01*
X151371428Y-54504761D01*
X151323809Y-54457142D01*
X151276190Y-54361904D01*
X151276190Y-54266666D01*
X151323809Y-54171428D01*
X151371428Y-54123809D01*
X151466666Y-54076190D01*
X151657142Y-54028571D01*
X151752380Y-53980952D01*
X151800000Y-53933333D01*
X151847619Y-53838095D01*
X151847619Y-53742857D01*
X151800000Y-53647619D01*
X151752380Y-53600000D01*
X151657142Y-53552380D01*
X151419047Y-53552380D01*
X151276190Y-53600000D01*
X150276190Y-54457142D02*
X150323809Y-54504761D01*
X150466666Y-54552380D01*
X150561904Y-54552380D01*
X150704761Y-54504761D01*
X150800000Y-54409523D01*
X150847619Y-54314285D01*
X150895238Y-54123809D01*
X150895238Y-53980952D01*
X150847619Y-53790476D01*
X150800000Y-53695238D01*
X150704761Y-53600000D01*
X150561904Y-53552380D01*
X150466666Y-53552380D01*
X150323809Y-53600000D01*
X150276190Y-53647619D01*
X149371428Y-54552380D02*
X149847619Y-54552380D01*
X149847619Y-53552380D01*
X148514285Y-54552380D02*
X149085714Y-54552380D01*
X148800000Y-54552380D02*
X148800000Y-53552380D01*
X148895238Y-53695238D01*
X148990476Y-53790476D01*
X149085714Y-53838095D01*
G04 #@! TO.C,0.1u*
X102552380Y-49335714D02*
X102552380Y-49430952D01*
X102600000Y-49526190D01*
X102647619Y-49573809D01*
X102742857Y-49621428D01*
X102933333Y-49669047D01*
X103171428Y-49669047D01*
X103361904Y-49621428D01*
X103457142Y-49573809D01*
X103504761Y-49526190D01*
X103552380Y-49430952D01*
X103552380Y-49335714D01*
X103504761Y-49240476D01*
X103457142Y-49192857D01*
X103361904Y-49145238D01*
X103171428Y-49097619D01*
X102933333Y-49097619D01*
X102742857Y-49145238D01*
X102647619Y-49192857D01*
X102600000Y-49240476D01*
X102552380Y-49335714D01*
X103457142Y-50097619D02*
X103504761Y-50145238D01*
X103552380Y-50097619D01*
X103504761Y-50050000D01*
X103457142Y-50097619D01*
X103552380Y-50097619D01*
X103552380Y-51097619D02*
X103552380Y-50526190D01*
X103552380Y-50811904D02*
X102552380Y-50811904D01*
X102695238Y-50716666D01*
X102790476Y-50621428D01*
X102838095Y-50526190D01*
X102885714Y-51954761D02*
X103552380Y-51954761D01*
X102885714Y-51526190D02*
X103409523Y-51526190D01*
X103504761Y-51573809D01*
X103552380Y-51669047D01*
X103552380Y-51811904D01*
X103504761Y-51907142D01*
X103457142Y-51954761D01*
G04 #@! TD*
%LPC*%
D15*
G04 #@! TO.C,SW2*
X59175000Y-90190000D03*
D16*
X58736629Y-89291206D02*
X59613371Y-91088794D01*
D17*
X52190000Y-91460000D03*
D18*
X61080000Y-94000000D03*
X50920000Y-94000000D03*
D19*
X56000000Y-94000000D03*
D17*
X53460000Y-88920000D03*
X58540000Y-88920000D03*
X59810000Y-91460000D03*
D15*
X52825000Y-90190000D03*
D16*
X53263371Y-89291206D02*
X52386629Y-91088794D01*
G04 #@! TD*
D20*
G04 #@! TO.C,J1*
X154931570Y-40500000D03*
D21*
X152931570Y-45300000D03*
X152931570Y-49300000D03*
D20*
X154931570Y-47500000D03*
D21*
X156931570Y-50800000D03*
X152931570Y-42300000D03*
D20*
X153500000Y-47500000D03*
D21*
X155500000Y-42300000D03*
X155500000Y-49300000D03*
X151500000Y-50800000D03*
X155500000Y-45300000D03*
D20*
X153500000Y-40500000D03*
G04 #@! TD*
D22*
G04 #@! TO.C,D1*
X64000000Y-73290000D03*
D23*
X64000000Y-78730000D03*
D24*
X64000000Y-71110000D03*
D22*
X64000000Y-76550000D03*
G04 #@! TD*
G04 #@! TO.C,D2*
X64000000Y-95550000D03*
D24*
X64000000Y-90110000D03*
D23*
X64000000Y-97730000D03*
D22*
X64000000Y-92290000D03*
G04 #@! TD*
G04 #@! TO.C,D3*
X64000000Y-114550000D03*
D24*
X64000000Y-109110000D03*
D23*
X64000000Y-116730000D03*
D22*
X64000000Y-111290000D03*
G04 #@! TD*
G04 #@! TO.C,D4*
X64000000Y-133550000D03*
D24*
X64000000Y-128110000D03*
D23*
X64000000Y-135730000D03*
D22*
X64000000Y-130290000D03*
G04 #@! TD*
G04 #@! TO.C,D5*
X64000000Y-149290000D03*
D23*
X64000000Y-154730000D03*
D24*
X64000000Y-147110000D03*
D22*
X64000000Y-152550000D03*
G04 #@! TD*
G04 #@! TO.C,D6*
X64000000Y-168290000D03*
D23*
X64000000Y-173730000D03*
D24*
X64000000Y-166110000D03*
D22*
X64000000Y-171550000D03*
G04 #@! TD*
G04 #@! TO.C,D7*
X67000000Y-76550000D03*
D24*
X67000000Y-71110000D03*
D23*
X67000000Y-78730000D03*
D22*
X67000000Y-73290000D03*
G04 #@! TD*
G04 #@! TO.C,D8*
X67000000Y-92290000D03*
D23*
X67000000Y-97730000D03*
D24*
X67000000Y-90110000D03*
D22*
X67000000Y-95550000D03*
G04 #@! TD*
G04 #@! TO.C,D9*
X67000000Y-114550000D03*
D24*
X67000000Y-109110000D03*
D23*
X67000000Y-116730000D03*
D22*
X67000000Y-111290000D03*
G04 #@! TD*
G04 #@! TO.C,D10*
X67000000Y-133550000D03*
D24*
X67000000Y-128110000D03*
D23*
X67000000Y-135730000D03*
D22*
X67000000Y-130290000D03*
G04 #@! TD*
G04 #@! TO.C,D11*
X67000000Y-152550000D03*
D24*
X67000000Y-147110000D03*
D23*
X67000000Y-154730000D03*
D22*
X67000000Y-149290000D03*
G04 #@! TD*
G04 #@! TO.C,D12*
X67000000Y-168290000D03*
D23*
X67000000Y-173730000D03*
D24*
X67000000Y-166110000D03*
D22*
X67000000Y-171550000D03*
G04 #@! TD*
G04 #@! TO.C,D13*
X102000000Y-76550000D03*
D24*
X102000000Y-71110000D03*
D23*
X102000000Y-78730000D03*
D22*
X102000000Y-73290000D03*
G04 #@! TD*
G04 #@! TO.C,D14*
X102000000Y-95550000D03*
D24*
X102000000Y-90110000D03*
D23*
X102000000Y-97730000D03*
D22*
X102000000Y-92290000D03*
G04 #@! TD*
G04 #@! TO.C,D15*
X102000000Y-114550000D03*
D24*
X102000000Y-109110000D03*
D23*
X102000000Y-116730000D03*
D22*
X102000000Y-111290000D03*
G04 #@! TD*
G04 #@! TO.C,D16*
X102000000Y-130290000D03*
D23*
X102000000Y-135730000D03*
D24*
X102000000Y-128110000D03*
D22*
X102000000Y-133550000D03*
G04 #@! TD*
G04 #@! TO.C,D17*
X102000000Y-152550000D03*
D24*
X102000000Y-147110000D03*
D23*
X102000000Y-154730000D03*
D22*
X102000000Y-149290000D03*
G04 #@! TD*
G04 #@! TO.C,D18*
X102000000Y-168290000D03*
D23*
X102000000Y-173730000D03*
D24*
X102000000Y-166110000D03*
D22*
X102000000Y-171550000D03*
G04 #@! TD*
G04 #@! TO.C,D19*
X105000000Y-73290000D03*
D23*
X105000000Y-78730000D03*
D24*
X105000000Y-71110000D03*
D22*
X105000000Y-76550000D03*
G04 #@! TD*
G04 #@! TO.C,D20*
X105000000Y-92290000D03*
D23*
X105000000Y-97730000D03*
D24*
X105000000Y-90110000D03*
D22*
X105000000Y-95550000D03*
G04 #@! TD*
G04 #@! TO.C,D21*
X105000000Y-114550000D03*
D24*
X105000000Y-109110000D03*
D23*
X105000000Y-116730000D03*
D22*
X105000000Y-111290000D03*
G04 #@! TD*
G04 #@! TO.C,D22*
X105000000Y-130290000D03*
D23*
X105000000Y-135730000D03*
D24*
X105000000Y-128110000D03*
D22*
X105000000Y-133550000D03*
G04 #@! TD*
G04 #@! TO.C,D23*
X105000000Y-152550000D03*
D24*
X105000000Y-147110000D03*
D23*
X105000000Y-154730000D03*
D22*
X105000000Y-149290000D03*
G04 #@! TD*
G04 #@! TO.C,D24*
X105000000Y-168290000D03*
D23*
X105000000Y-173730000D03*
D24*
X105000000Y-166110000D03*
D22*
X105000000Y-171550000D03*
G04 #@! TD*
G04 #@! TO.C,D25*
X140000000Y-76550000D03*
D24*
X140000000Y-71110000D03*
D23*
X140000000Y-78730000D03*
D22*
X140000000Y-73290000D03*
G04 #@! TD*
G04 #@! TO.C,D26*
X140000000Y-95550000D03*
D24*
X140000000Y-90110000D03*
D23*
X140000000Y-97730000D03*
D22*
X140000000Y-92290000D03*
G04 #@! TD*
G04 #@! TO.C,D27*
X140000000Y-114550000D03*
D24*
X140000000Y-109110000D03*
D23*
X140000000Y-116730000D03*
D22*
X140000000Y-111290000D03*
G04 #@! TD*
G04 #@! TO.C,D28*
X140000000Y-130290000D03*
D23*
X140000000Y-135730000D03*
D24*
X140000000Y-128110000D03*
D22*
X140000000Y-133550000D03*
G04 #@! TD*
G04 #@! TO.C,D29*
X140000000Y-152550000D03*
D24*
X140000000Y-147110000D03*
D23*
X140000000Y-154730000D03*
D22*
X140000000Y-149290000D03*
G04 #@! TD*
G04 #@! TO.C,D30*
X140000000Y-168290000D03*
D23*
X140000000Y-173730000D03*
D24*
X140000000Y-166110000D03*
D22*
X140000000Y-171550000D03*
G04 #@! TD*
G04 #@! TO.C,D31*
X143000000Y-73290000D03*
D23*
X143000000Y-78730000D03*
D24*
X143000000Y-71110000D03*
D22*
X143000000Y-76550000D03*
G04 #@! TD*
G04 #@! TO.C,D32*
X143000000Y-92290000D03*
D23*
X143000000Y-97730000D03*
D24*
X143000000Y-90110000D03*
D22*
X143000000Y-95550000D03*
G04 #@! TD*
G04 #@! TO.C,D33*
X143000000Y-114550000D03*
D24*
X143000000Y-109110000D03*
D23*
X143000000Y-116730000D03*
D22*
X143000000Y-111290000D03*
G04 #@! TD*
G04 #@! TO.C,D34*
X143000000Y-130290000D03*
D23*
X143000000Y-135730000D03*
D24*
X143000000Y-128110000D03*
D22*
X143000000Y-133550000D03*
G04 #@! TD*
G04 #@! TO.C,D35*
X143000000Y-149290000D03*
D23*
X143000000Y-154730000D03*
D24*
X143000000Y-147110000D03*
D22*
X143000000Y-152550000D03*
G04 #@! TD*
G04 #@! TO.C,D36*
X143000000Y-168290000D03*
D23*
X143000000Y-173730000D03*
D24*
X143000000Y-166110000D03*
D22*
X143000000Y-171550000D03*
G04 #@! TD*
D25*
G04 #@! TO.C,R1*
X108098000Y-51816000D03*
D23*
X113538000Y-51816000D03*
X105918000Y-51816000D03*
D25*
X111358000Y-51816000D03*
G04 #@! TD*
G04 #@! TO.C,R2*
X111337000Y-55118000D03*
D23*
X105897000Y-55118000D03*
X113517000Y-55118000D03*
D25*
X108077000Y-55118000D03*
G04 #@! TD*
D15*
G04 #@! TO.C,SW1*
X59175000Y-71190000D03*
D16*
X58736629Y-70291206D02*
X59613371Y-72088794D01*
D17*
X52190000Y-72460000D03*
D18*
X61080000Y-75000000D03*
X50920000Y-75000000D03*
D19*
X56000000Y-75000000D03*
D17*
X53460000Y-69920000D03*
X58540000Y-69920000D03*
X59810000Y-72460000D03*
D15*
X52825000Y-71190000D03*
D16*
X53263371Y-70291206D02*
X52386629Y-72088794D01*
G04 #@! TD*
D15*
G04 #@! TO.C,SW3*
X59175000Y-109190000D03*
D16*
X58736629Y-108291206D02*
X59613371Y-110088794D01*
D17*
X52190000Y-110460000D03*
D18*
X61080000Y-113000000D03*
X50920000Y-113000000D03*
D19*
X56000000Y-113000000D03*
D17*
X53460000Y-107920000D03*
X58540000Y-107920000D03*
X59810000Y-110460000D03*
D15*
X52825000Y-109190000D03*
D16*
X53263371Y-108291206D02*
X52386629Y-110088794D01*
G04 #@! TD*
D15*
G04 #@! TO.C,SW4*
X52825000Y-128190000D03*
D16*
X53263371Y-127291206D02*
X52386629Y-129088794D01*
D17*
X59810000Y-129460000D03*
X58540000Y-126920000D03*
X53460000Y-126920000D03*
D19*
X56000000Y-132000000D03*
D18*
X50920000Y-132000000D03*
X61080000Y-132000000D03*
D17*
X52190000Y-129460000D03*
D15*
X59175000Y-128190000D03*
D16*
X58736629Y-127291206D02*
X59613371Y-129088794D01*
G04 #@! TD*
D15*
G04 #@! TO.C,SW5*
X52825000Y-147190000D03*
D16*
X53263371Y-146291206D02*
X52386629Y-148088794D01*
D17*
X59810000Y-148460000D03*
X58540000Y-145920000D03*
X53460000Y-145920000D03*
D19*
X56000000Y-151000000D03*
D18*
X50920000Y-151000000D03*
X61080000Y-151000000D03*
D17*
X52190000Y-148460000D03*
D15*
X59175000Y-147190000D03*
D16*
X58736629Y-146291206D02*
X59613371Y-148088794D01*
G04 #@! TD*
D15*
G04 #@! TO.C,SW6*
X52825000Y-166190000D03*
D16*
X53263371Y-165291206D02*
X52386629Y-167088794D01*
D17*
X59810000Y-167460000D03*
X58540000Y-164920000D03*
X53460000Y-164920000D03*
D19*
X56000000Y-170000000D03*
D18*
X50920000Y-170000000D03*
X61080000Y-170000000D03*
D17*
X52190000Y-167460000D03*
D15*
X59175000Y-166190000D03*
D16*
X58736629Y-165291206D02*
X59613371Y-167088794D01*
G04 #@! TD*
D15*
G04 #@! TO.C,SW7*
X78175000Y-71190000D03*
D16*
X77736629Y-70291206D02*
X78613371Y-72088794D01*
D17*
X71190000Y-72460000D03*
D18*
X80080000Y-75000000D03*
X69920000Y-75000000D03*
D19*
X75000000Y-75000000D03*
D17*
X72460000Y-69920000D03*
X77540000Y-69920000D03*
X78810000Y-72460000D03*
D15*
X71825000Y-71190000D03*
D16*
X72263371Y-70291206D02*
X71386629Y-72088794D01*
G04 #@! TD*
D15*
G04 #@! TO.C,SW8*
X78175000Y-90190000D03*
D16*
X77736629Y-89291206D02*
X78613371Y-91088794D01*
D17*
X71190000Y-91460000D03*
D18*
X80080000Y-94000000D03*
X69920000Y-94000000D03*
D19*
X75000000Y-94000000D03*
D17*
X72460000Y-88920000D03*
X77540000Y-88920000D03*
X78810000Y-91460000D03*
D15*
X71825000Y-90190000D03*
D16*
X72263371Y-89291206D02*
X71386629Y-91088794D01*
G04 #@! TD*
D15*
G04 #@! TO.C,SW9*
X78175000Y-109190000D03*
D16*
X77736629Y-108291206D02*
X78613371Y-110088794D01*
D17*
X71190000Y-110460000D03*
D18*
X80080000Y-113000000D03*
X69920000Y-113000000D03*
D19*
X75000000Y-113000000D03*
D17*
X72460000Y-107920000D03*
X77540000Y-107920000D03*
X78810000Y-110460000D03*
D15*
X71825000Y-109190000D03*
D16*
X72263371Y-108291206D02*
X71386629Y-110088794D01*
G04 #@! TD*
D15*
G04 #@! TO.C,SW10*
X71825000Y-128190000D03*
D16*
X72263371Y-127291206D02*
X71386629Y-129088794D01*
D17*
X78810000Y-129460000D03*
X77540000Y-126920000D03*
X72460000Y-126920000D03*
D19*
X75000000Y-132000000D03*
D18*
X69920000Y-132000000D03*
X80080000Y-132000000D03*
D17*
X71190000Y-129460000D03*
D15*
X78175000Y-128190000D03*
D16*
X77736629Y-127291206D02*
X78613371Y-129088794D01*
G04 #@! TD*
D15*
G04 #@! TO.C,SW11*
X71825000Y-147190000D03*
D16*
X72263371Y-146291206D02*
X71386629Y-148088794D01*
D17*
X78810000Y-148460000D03*
X77540000Y-145920000D03*
X72460000Y-145920000D03*
D19*
X75000000Y-151000000D03*
D18*
X69920000Y-151000000D03*
X80080000Y-151000000D03*
D17*
X71190000Y-148460000D03*
D15*
X78175000Y-147190000D03*
D16*
X77736629Y-146291206D02*
X78613371Y-148088794D01*
G04 #@! TD*
D15*
G04 #@! TO.C,SW12*
X71825000Y-166190000D03*
D16*
X72263371Y-165291206D02*
X71386629Y-167088794D01*
D17*
X78810000Y-167460000D03*
X77540000Y-164920000D03*
X72460000Y-164920000D03*
D19*
X75000000Y-170000000D03*
D18*
X69920000Y-170000000D03*
X80080000Y-170000000D03*
D17*
X71190000Y-167460000D03*
D15*
X78175000Y-166190000D03*
D16*
X77736629Y-165291206D02*
X78613371Y-167088794D01*
G04 #@! TD*
D15*
G04 #@! TO.C,SW13*
X90825000Y-71190000D03*
D16*
X91263371Y-70291206D02*
X90386629Y-72088794D01*
D17*
X97810000Y-72460000D03*
X96540000Y-69920000D03*
X91460000Y-69920000D03*
D19*
X94000000Y-75000000D03*
D18*
X88920000Y-75000000D03*
X99080000Y-75000000D03*
D17*
X90190000Y-72460000D03*
D15*
X97175000Y-71190000D03*
D16*
X96736629Y-70291206D02*
X97613371Y-72088794D01*
G04 #@! TD*
D15*
G04 #@! TO.C,SW14*
X97175000Y-90190000D03*
D16*
X96736629Y-89291206D02*
X97613371Y-91088794D01*
D17*
X90190000Y-91460000D03*
D18*
X99080000Y-94000000D03*
X88920000Y-94000000D03*
D19*
X94000000Y-94000000D03*
D17*
X91460000Y-88920000D03*
X96540000Y-88920000D03*
X97810000Y-91460000D03*
D15*
X90825000Y-90190000D03*
D16*
X91263371Y-89291206D02*
X90386629Y-91088794D01*
G04 #@! TD*
D15*
G04 #@! TO.C,SW15*
X97175000Y-109190000D03*
D16*
X96736629Y-108291206D02*
X97613371Y-110088794D01*
D17*
X90190000Y-110460000D03*
D18*
X99080000Y-113000000D03*
X88920000Y-113000000D03*
D19*
X94000000Y-113000000D03*
D17*
X91460000Y-107920000D03*
X96540000Y-107920000D03*
X97810000Y-110460000D03*
D15*
X90825000Y-109190000D03*
D16*
X91263371Y-108291206D02*
X90386629Y-110088794D01*
G04 #@! TD*
D15*
G04 #@! TO.C,SW16*
X90825000Y-128190000D03*
D16*
X91263371Y-127291206D02*
X90386629Y-129088794D01*
D17*
X97810000Y-129460000D03*
X96540000Y-126920000D03*
X91460000Y-126920000D03*
D19*
X94000000Y-132000000D03*
D18*
X88920000Y-132000000D03*
X99080000Y-132000000D03*
D17*
X90190000Y-129460000D03*
D15*
X97175000Y-128190000D03*
D16*
X96736629Y-127291206D02*
X97613371Y-129088794D01*
G04 #@! TD*
D15*
G04 #@! TO.C,SW17*
X97175000Y-147190000D03*
D16*
X96736629Y-146291206D02*
X97613371Y-148088794D01*
D17*
X90190000Y-148460000D03*
D18*
X99080000Y-151000000D03*
X88920000Y-151000000D03*
D19*
X94000000Y-151000000D03*
D17*
X91460000Y-145920000D03*
X96540000Y-145920000D03*
X97810000Y-148460000D03*
D15*
X90825000Y-147190000D03*
D16*
X91263371Y-146291206D02*
X90386629Y-148088794D01*
G04 #@! TD*
D15*
G04 #@! TO.C,SW18*
X90825000Y-166190000D03*
D16*
X91263371Y-165291206D02*
X90386629Y-167088794D01*
D17*
X97810000Y-167460000D03*
X96540000Y-164920000D03*
X91460000Y-164920000D03*
D19*
X94000000Y-170000000D03*
D18*
X88920000Y-170000000D03*
X99080000Y-170000000D03*
D17*
X90190000Y-167460000D03*
D15*
X97175000Y-166190000D03*
D16*
X96736629Y-165291206D02*
X97613371Y-167088794D01*
G04 #@! TD*
D15*
G04 #@! TO.C,SW19*
X109825000Y-71190000D03*
D16*
X110263371Y-70291206D02*
X109386629Y-72088794D01*
D17*
X116810000Y-72460000D03*
X115540000Y-69920000D03*
X110460000Y-69920000D03*
D19*
X113000000Y-75000000D03*
D18*
X107920000Y-75000000D03*
X118080000Y-75000000D03*
D17*
X109190000Y-72460000D03*
D15*
X116175000Y-71190000D03*
D16*
X115736629Y-70291206D02*
X116613371Y-72088794D01*
G04 #@! TD*
D15*
G04 #@! TO.C,SW20*
X116175000Y-90190000D03*
D16*
X115736629Y-89291206D02*
X116613371Y-91088794D01*
D17*
X109190000Y-91460000D03*
D18*
X118080000Y-94000000D03*
X107920000Y-94000000D03*
D19*
X113000000Y-94000000D03*
D17*
X110460000Y-88920000D03*
X115540000Y-88920000D03*
X116810000Y-91460000D03*
D15*
X109825000Y-90190000D03*
D16*
X110263371Y-89291206D02*
X109386629Y-91088794D01*
G04 #@! TD*
D15*
G04 #@! TO.C,SW21*
X116175000Y-109190000D03*
D16*
X115736629Y-108291206D02*
X116613371Y-110088794D01*
D17*
X109190000Y-110460000D03*
D18*
X118080000Y-113000000D03*
X107920000Y-113000000D03*
D19*
X113000000Y-113000000D03*
D17*
X110460000Y-107920000D03*
X115540000Y-107920000D03*
X116810000Y-110460000D03*
D15*
X109825000Y-109190000D03*
D16*
X110263371Y-108291206D02*
X109386629Y-110088794D01*
G04 #@! TD*
D15*
G04 #@! TO.C,SW22*
X109825000Y-128190000D03*
D16*
X110263371Y-127291206D02*
X109386629Y-129088794D01*
D17*
X116810000Y-129460000D03*
X115540000Y-126920000D03*
X110460000Y-126920000D03*
D19*
X113000000Y-132000000D03*
D18*
X107920000Y-132000000D03*
X118080000Y-132000000D03*
D17*
X109190000Y-129460000D03*
D15*
X116175000Y-128190000D03*
D16*
X115736629Y-127291206D02*
X116613371Y-129088794D01*
G04 #@! TD*
D15*
G04 #@! TO.C,SW23*
X109825000Y-147190000D03*
D16*
X110263371Y-146291206D02*
X109386629Y-148088794D01*
D17*
X116810000Y-148460000D03*
X115540000Y-145920000D03*
X110460000Y-145920000D03*
D19*
X113000000Y-151000000D03*
D18*
X107920000Y-151000000D03*
X118080000Y-151000000D03*
D17*
X109190000Y-148460000D03*
D15*
X116175000Y-147190000D03*
D16*
X115736629Y-146291206D02*
X116613371Y-148088794D01*
G04 #@! TD*
D15*
G04 #@! TO.C,SW24*
X109825000Y-166190000D03*
D16*
X110263371Y-165291206D02*
X109386629Y-167088794D01*
D17*
X116810000Y-167460000D03*
X115540000Y-164920000D03*
X110460000Y-164920000D03*
D19*
X113000000Y-170000000D03*
D18*
X107920000Y-170000000D03*
X118080000Y-170000000D03*
D17*
X109190000Y-167460000D03*
D15*
X116175000Y-166190000D03*
D16*
X115736629Y-165291206D02*
X116613371Y-167088794D01*
G04 #@! TD*
D15*
G04 #@! TO.C,SW25*
X135175000Y-71190000D03*
D16*
X134736629Y-70291206D02*
X135613371Y-72088794D01*
D17*
X128190000Y-72460000D03*
D18*
X137080000Y-75000000D03*
X126920000Y-75000000D03*
D19*
X132000000Y-75000000D03*
D17*
X129460000Y-69920000D03*
X134540000Y-69920000D03*
X135810000Y-72460000D03*
D15*
X128825000Y-71190000D03*
D16*
X129263371Y-70291206D02*
X128386629Y-72088794D01*
G04 #@! TD*
D15*
G04 #@! TO.C,SW26*
X135175000Y-90190000D03*
D16*
X134736629Y-89291206D02*
X135613371Y-91088794D01*
D17*
X128190000Y-91460000D03*
D18*
X137080000Y-94000000D03*
X126920000Y-94000000D03*
D19*
X132000000Y-94000000D03*
D17*
X129460000Y-88920000D03*
X134540000Y-88920000D03*
X135810000Y-91460000D03*
D15*
X128825000Y-90190000D03*
D16*
X129263371Y-89291206D02*
X128386629Y-91088794D01*
G04 #@! TD*
D15*
G04 #@! TO.C,SW27*
X135175000Y-109190000D03*
D16*
X134736629Y-108291206D02*
X135613371Y-110088794D01*
D17*
X128190000Y-110460000D03*
D18*
X137080000Y-113000000D03*
X126920000Y-113000000D03*
D19*
X132000000Y-113000000D03*
D17*
X129460000Y-107920000D03*
X134540000Y-107920000D03*
X135810000Y-110460000D03*
D15*
X128825000Y-109190000D03*
D16*
X129263371Y-108291206D02*
X128386629Y-110088794D01*
G04 #@! TD*
D15*
G04 #@! TO.C,SW28*
X128825000Y-128190000D03*
D16*
X129263371Y-127291206D02*
X128386629Y-129088794D01*
D17*
X135810000Y-129460000D03*
X134540000Y-126920000D03*
X129460000Y-126920000D03*
D19*
X132000000Y-132000000D03*
D18*
X126920000Y-132000000D03*
X137080000Y-132000000D03*
D17*
X128190000Y-129460000D03*
D15*
X135175000Y-128190000D03*
D16*
X134736629Y-127291206D02*
X135613371Y-129088794D01*
G04 #@! TD*
D15*
G04 #@! TO.C,SW29*
X128825000Y-147190000D03*
D16*
X129263371Y-146291206D02*
X128386629Y-148088794D01*
D17*
X135810000Y-148460000D03*
X134540000Y-145920000D03*
X129460000Y-145920000D03*
D19*
X132000000Y-151000000D03*
D18*
X126920000Y-151000000D03*
X137080000Y-151000000D03*
D17*
X128190000Y-148460000D03*
D15*
X135175000Y-147190000D03*
D16*
X134736629Y-146291206D02*
X135613371Y-148088794D01*
G04 #@! TD*
D15*
G04 #@! TO.C,SW30*
X128825000Y-166190000D03*
D16*
X129263371Y-165291206D02*
X128386629Y-167088794D01*
D17*
X135810000Y-167460000D03*
X134540000Y-164920000D03*
X129460000Y-164920000D03*
D19*
X132000000Y-170000000D03*
D18*
X126920000Y-170000000D03*
X137080000Y-170000000D03*
D17*
X128190000Y-167460000D03*
D15*
X135175000Y-166190000D03*
D16*
X134736629Y-165291206D02*
X135613371Y-167088794D01*
G04 #@! TD*
D15*
G04 #@! TO.C,SW31*
X154175000Y-71190000D03*
D16*
X153736629Y-70291206D02*
X154613371Y-72088794D01*
D17*
X147190000Y-72460000D03*
D18*
X156080000Y-75000000D03*
X145920000Y-75000000D03*
D19*
X151000000Y-75000000D03*
D17*
X148460000Y-69920000D03*
X153540000Y-69920000D03*
X154810000Y-72460000D03*
D15*
X147825000Y-71190000D03*
D16*
X148263371Y-70291206D02*
X147386629Y-72088794D01*
G04 #@! TD*
D15*
G04 #@! TO.C,SW32*
X154175000Y-90190000D03*
D16*
X153736629Y-89291206D02*
X154613371Y-91088794D01*
D17*
X147190000Y-91460000D03*
D18*
X156080000Y-94000000D03*
X145920000Y-94000000D03*
D19*
X151000000Y-94000000D03*
D17*
X148460000Y-88920000D03*
X153540000Y-88920000D03*
X154810000Y-91460000D03*
D15*
X147825000Y-90190000D03*
D16*
X148263371Y-89291206D02*
X147386629Y-91088794D01*
G04 #@! TD*
D15*
G04 #@! TO.C,SW33*
X154175000Y-109190000D03*
D16*
X153736629Y-108291206D02*
X154613371Y-110088794D01*
D17*
X147190000Y-110460000D03*
D18*
X156080000Y-113000000D03*
X145920000Y-113000000D03*
D19*
X151000000Y-113000000D03*
D17*
X148460000Y-107920000D03*
X153540000Y-107920000D03*
X154810000Y-110460000D03*
D15*
X147825000Y-109190000D03*
D16*
X148263371Y-108291206D02*
X147386629Y-110088794D01*
G04 #@! TD*
D15*
G04 #@! TO.C,SW34*
X154175000Y-128190000D03*
D16*
X153736629Y-127291206D02*
X154613371Y-129088794D01*
D17*
X147190000Y-129460000D03*
D18*
X156080000Y-132000000D03*
X145920000Y-132000000D03*
D19*
X151000000Y-132000000D03*
D17*
X148460000Y-126920000D03*
X153540000Y-126920000D03*
X154810000Y-129460000D03*
D15*
X147825000Y-128190000D03*
D16*
X148263371Y-127291206D02*
X147386629Y-129088794D01*
G04 #@! TD*
D15*
G04 #@! TO.C,SW35*
X147825000Y-147190000D03*
D16*
X148263371Y-146291206D02*
X147386629Y-148088794D01*
D17*
X154810000Y-148460000D03*
X153540000Y-145920000D03*
X148460000Y-145920000D03*
D19*
X151000000Y-151000000D03*
D18*
X145920000Y-151000000D03*
X156080000Y-151000000D03*
D17*
X147190000Y-148460000D03*
D15*
X154175000Y-147190000D03*
D16*
X153736629Y-146291206D02*
X154613371Y-148088794D01*
G04 #@! TD*
D15*
G04 #@! TO.C,SW36*
X147825000Y-166190000D03*
D16*
X148263371Y-165291206D02*
X147386629Y-167088794D01*
D17*
X154810000Y-167460000D03*
X153540000Y-164920000D03*
X148460000Y-164920000D03*
D19*
X151000000Y-170000000D03*
D18*
X145920000Y-170000000D03*
X156080000Y-170000000D03*
D17*
X147190000Y-167460000D03*
D15*
X154175000Y-166190000D03*
D16*
X153736629Y-165291206D02*
X154613371Y-167088794D01*
G04 #@! TD*
D15*
G04 #@! TO.C,RESET*
X157500000Y-58000000D03*
X157500000Y-62500000D03*
X151000000Y-58000000D03*
X151000000Y-62500000D03*
G04 #@! TD*
D26*
G04 #@! TO.C,U1*
X135062000Y-43688000D03*
X132522000Y-43688000D03*
X129982000Y-43688000D03*
X127442000Y-43688000D03*
X124902000Y-43688000D03*
X122362000Y-43688000D03*
X119822000Y-43688000D03*
X117282000Y-43688000D03*
X114742000Y-43688000D03*
X112202000Y-43688000D03*
X109662000Y-43688000D03*
X107122000Y-43688000D03*
X104582000Y-43688000D03*
X102042000Y-43688000D03*
X99502000Y-43688000D03*
X96962000Y-43688000D03*
X94422000Y-43688000D03*
X94422000Y-61468000D03*
X96962000Y-61468000D03*
X99502000Y-61468000D03*
X102042000Y-61468000D03*
X104582000Y-61468000D03*
X107122000Y-61468000D03*
X109662000Y-61468000D03*
X112202000Y-61468000D03*
X114742000Y-61468000D03*
X117282000Y-61468000D03*
X119822000Y-61468000D03*
X122362000Y-61468000D03*
X124902000Y-61468000D03*
X127442000Y-61468000D03*
X129982000Y-61468000D03*
X132522000Y-61468000D03*
X135062000Y-61468000D03*
G04 #@! TD*
D27*
G04 #@! TO.C,U2*
X99905000Y-56175000D03*
X98635000Y-56175000D03*
X97365000Y-56175000D03*
X96095000Y-56175000D03*
X96095000Y-49825000D03*
X97365000Y-49825000D03*
X98635000Y-49825000D03*
X99905000Y-49825000D03*
G04 #@! TD*
D28*
G04 #@! TO.C,SDA1*
X154940000Y-54483000D03*
X154940000Y-53721000D03*
D29*
X154940000Y-54102000D03*
G04 #@! TD*
G04 #@! TO.C,SCL1 *
X152913000Y-54102000D03*
D28*
X152913000Y-53721000D03*
X152913000Y-54483000D03*
G04 #@! TD*
D30*
G04 #@! TO.C,TP1*
X132522000Y-40767000D03*
G04 #@! TD*
G04 #@! TO.C,TP2*
X127442000Y-40767000D03*
G04 #@! TD*
G04 #@! TO.C,TP3*
X122362000Y-40767000D03*
G04 #@! TD*
G04 #@! TO.C,TP4*
X117282000Y-40767000D03*
G04 #@! TD*
G04 #@! TO.C,TP5*
X112202000Y-40767000D03*
G04 #@! TD*
G04 #@! TO.C,TP6*
X107122000Y-40767000D03*
G04 #@! TD*
G04 #@! TO.C,TP7*
X102042000Y-40767000D03*
G04 #@! TD*
G04 #@! TO.C,TP8*
X135062000Y-40767000D03*
G04 #@! TD*
G04 #@! TO.C,TP9*
X129982000Y-40767000D03*
G04 #@! TD*
G04 #@! TO.C,TP10*
X124902000Y-40767000D03*
G04 #@! TD*
G04 #@! TO.C,TP11*
X119822000Y-40767000D03*
G04 #@! TD*
G04 #@! TO.C,TP12*
X114742000Y-40767000D03*
G04 #@! TD*
G04 #@! TO.C,TP13*
X109662000Y-40767000D03*
G04 #@! TD*
G04 #@! TO.C,TP14*
X104582000Y-40767000D03*
G04 #@! TD*
G04 #@! TO.C,TP15*
X99502000Y-40767000D03*
G04 #@! TD*
G04 #@! TO.C,TP16*
X135062000Y-64389000D03*
G04 #@! TD*
G04 #@! TO.C,TP17*
X129982000Y-64389000D03*
G04 #@! TD*
G04 #@! TO.C,TP18*
X124902000Y-64389000D03*
G04 #@! TD*
G04 #@! TO.C,TP19*
X119822000Y-64389000D03*
G04 #@! TD*
G04 #@! TO.C,TP20*
X114742000Y-64389000D03*
G04 #@! TD*
G04 #@! TO.C,TP21*
X109662000Y-64389000D03*
G04 #@! TD*
G04 #@! TO.C,TP22*
X102042000Y-64389000D03*
G04 #@! TD*
G04 #@! TO.C,TP23*
X96962000Y-64389000D03*
G04 #@! TD*
G04 #@! TO.C,TP24*
X132522000Y-64389000D03*
G04 #@! TD*
G04 #@! TO.C,TP25*
X127442000Y-64389000D03*
G04 #@! TD*
G04 #@! TO.C,TP26*
X122362000Y-64389000D03*
G04 #@! TD*
G04 #@! TO.C,TP27*
X117282000Y-64389000D03*
G04 #@! TD*
G04 #@! TO.C,TP28*
X112202000Y-64389000D03*
G04 #@! TD*
G04 #@! TO.C,TP29*
X107122000Y-64389000D03*
G04 #@! TD*
G04 #@! TO.C,TP30*
X99502000Y-64389000D03*
G04 #@! TD*
G04 #@! TO.C,R1*
X147320000Y-45720000D03*
G04 #@! TD*
G04 #@! TO.C,R2*
X147320000Y-43180000D03*
G04 #@! TD*
D31*
G04 #@! TO.C,0.1u*
X101600000Y-49850000D03*
X101600000Y-51350000D03*
G04 #@! TD*
D32*
G04 #@! TO.C,*
X103500000Y-122500000D03*
G04 #@! TD*
M02*
