M48
;DRILL file {KiCad (5.0.0)} date 09/01/18 09:02:02
;FORMAT={-:-/ absolute / metric / decimal}
FMAT,2
METRIC,TZ
T1C0.991
T2C1.702
T3C3.988
T4C5.000
%
G90
G05
M71
T1
X153.5Y-40.5
X153.5Y-47.5
X154.932Y-40.5
X154.932Y-47.5
T2
X145.92Y-75.
X156.08Y-75.
X88.92Y-170.
X99.08Y-170.
X50.92Y-170.
X61.08Y-170.
X126.92Y-170.
X137.08Y-170.
X145.92Y-94.
X156.08Y-94.
X126.92Y-75.
X137.08Y-75.
X88.92Y-151.
X99.08Y-151.
X69.92Y-113.
X80.08Y-113.
X107.92Y-113.
X118.08Y-113.
X126.92Y-113.
X137.08Y-113.
X126.92Y-151.
X137.08Y-151.
X88.92Y-113.
X99.08Y-113.
X145.92Y-132.
X156.08Y-132.
X50.92Y-75.
X61.08Y-75.
X69.92Y-151.
X80.08Y-151.
X50.92Y-132.
X61.08Y-132.
X145.92Y-170.
X156.08Y-170.
X107.92Y-132.
X118.08Y-132.
X126.92Y-94.
X137.08Y-94.
X69.92Y-132.
X80.08Y-132.
X88.92Y-75.
X99.08Y-75.
X69.92Y-94.
X80.08Y-94.
X50.92Y-113.
X61.08Y-113.
X50.92Y-94.
X61.08Y-94.
X145.92Y-151.
X156.08Y-151.
X107.92Y-170.
X118.08Y-170.
X88.92Y-94.
X99.08Y-94.
X145.92Y-113.
X156.08Y-113.
X107.92Y-75.
X118.08Y-75.
X69.92Y-170.
X80.08Y-170.
X50.92Y-151.
X61.08Y-151.
X107.92Y-151.
X118.08Y-151.
X107.92Y-94.
X118.08Y-94.
X88.92Y-132.
X99.08Y-132.
X69.92Y-75.
X80.08Y-75.
X126.92Y-132.
X137.08Y-132.
T3
X151.Y-113.
X113.Y-75.
X75.Y-170.
X56.Y-151.
X113.Y-151.
X113.Y-94.
X94.Y-132.
X75.Y-75.
X132.Y-132.
X151.Y-75.
X94.Y-170.
X56.Y-170.
X132.Y-170.
X151.Y-94.
X132.Y-75.
X94.Y-151.
X75.Y-113.
X113.Y-113.
X132.Y-113.
X132.Y-151.
X94.Y-113.
X151.Y-132.
X56.Y-75.
X75.Y-151.
X56.Y-132.
X151.Y-170.
X113.Y-132.
X132.Y-94.
X75.Y-132.
X94.Y-75.
X75.Y-94.
X56.Y-113.
X56.Y-94.
X151.Y-151.
X113.Y-170.
X94.Y-94.
T4
X103.5Y-122.5
T0
M30
