G04 #@! TF.GenerationSoftware,KiCad,Pcbnew,(5.0.0)*
G04 #@! TF.CreationDate,2018-08-31T23:56:11+09:00*
G04 #@! TF.ProjectId,pillcase36,70696C6C6361736533362E6B69636164,rev?*
G04 #@! TF.SameCoordinates,Original*
G04 #@! TF.FileFunction,Soldermask,Bot*
G04 #@! TF.FilePolarity,Negative*
%FSLAX46Y46*%
G04 Gerber Fmt 4.6, Leading zero omitted, Abs format (unit mm)*
G04 Created by KiCad (PCBNEW (5.0.0)) date 08/31/18 23:56:11*
%MOMM*%
%LPD*%
G01*
G04 APERTURE LIST*
%ADD10C,2.400000*%
%ADD11C,2.400000*%
%ADD12C,3.000000*%
%ADD13C,2.101800*%
%ADD14C,4.387800*%
%ADD15C,1.390600*%
%ADD16O,1.250000X2.152600*%
%ADD17R,1.600000X2.000000*%
%ADD18R,2.000000X2.000000*%
%ADD19O,2.000000X2.000000*%
%ADD20R,2.000000X1.600000*%
%ADD21C,1.924000*%
%ADD22R,0.908000X1.543000*%
%ADD23R,1.400000X0.900000*%
%ADD24R,0.700000X0.900000*%
%ADD25C,1.900000*%
%ADD26R,1.150000X1.200000*%
%ADD27C,5.400000*%
G04 APERTURE END LIST*
D10*
G04 #@! TO.C,SW2*
X59175000Y-90190000D03*
D11*
X58736629Y-89291206D02*
X59613371Y-91088794D01*
D12*
X52190000Y-91460000D03*
D13*
X61080000Y-94000000D03*
X50920000Y-94000000D03*
D14*
X56000000Y-94000000D03*
D12*
X53460000Y-88920000D03*
X58540000Y-88920000D03*
X59810000Y-91460000D03*
D10*
X52825000Y-90190000D03*
D11*
X53263371Y-89291206D02*
X52386629Y-91088794D01*
G04 #@! TD*
D15*
G04 #@! TO.C,J1*
X154931570Y-40500000D03*
D16*
X152931570Y-45300000D03*
X152931570Y-49300000D03*
D15*
X154931570Y-47500000D03*
D16*
X156931570Y-50800000D03*
X152931570Y-42300000D03*
D15*
X153500000Y-47500000D03*
D16*
X155500000Y-42300000D03*
X155500000Y-49300000D03*
X151500000Y-50800000D03*
X155500000Y-45300000D03*
D15*
X153500000Y-40500000D03*
G04 #@! TD*
D17*
G04 #@! TO.C,D1*
X64000000Y-73290000D03*
D18*
X64000000Y-78730000D03*
D19*
X64000000Y-71110000D03*
D17*
X64000000Y-76550000D03*
G04 #@! TD*
G04 #@! TO.C,D2*
X64000000Y-95550000D03*
D19*
X64000000Y-90110000D03*
D18*
X64000000Y-97730000D03*
D17*
X64000000Y-92290000D03*
G04 #@! TD*
G04 #@! TO.C,D3*
X64000000Y-114550000D03*
D19*
X64000000Y-109110000D03*
D18*
X64000000Y-116730000D03*
D17*
X64000000Y-111290000D03*
G04 #@! TD*
G04 #@! TO.C,D4*
X64000000Y-133550000D03*
D19*
X64000000Y-128110000D03*
D18*
X64000000Y-135730000D03*
D17*
X64000000Y-130290000D03*
G04 #@! TD*
G04 #@! TO.C,D5*
X64000000Y-149290000D03*
D18*
X64000000Y-154730000D03*
D19*
X64000000Y-147110000D03*
D17*
X64000000Y-152550000D03*
G04 #@! TD*
G04 #@! TO.C,D6*
X64000000Y-168290000D03*
D18*
X64000000Y-173730000D03*
D19*
X64000000Y-166110000D03*
D17*
X64000000Y-171550000D03*
G04 #@! TD*
G04 #@! TO.C,D7*
X67000000Y-76550000D03*
D19*
X67000000Y-71110000D03*
D18*
X67000000Y-78730000D03*
D17*
X67000000Y-73290000D03*
G04 #@! TD*
G04 #@! TO.C,D8*
X67000000Y-92290000D03*
D18*
X67000000Y-97730000D03*
D19*
X67000000Y-90110000D03*
D17*
X67000000Y-95550000D03*
G04 #@! TD*
G04 #@! TO.C,D9*
X67000000Y-114550000D03*
D19*
X67000000Y-109110000D03*
D18*
X67000000Y-116730000D03*
D17*
X67000000Y-111290000D03*
G04 #@! TD*
G04 #@! TO.C,D10*
X67000000Y-133550000D03*
D19*
X67000000Y-128110000D03*
D18*
X67000000Y-135730000D03*
D17*
X67000000Y-130290000D03*
G04 #@! TD*
G04 #@! TO.C,D11*
X67000000Y-152550000D03*
D19*
X67000000Y-147110000D03*
D18*
X67000000Y-154730000D03*
D17*
X67000000Y-149290000D03*
G04 #@! TD*
G04 #@! TO.C,D12*
X67000000Y-168290000D03*
D18*
X67000000Y-173730000D03*
D19*
X67000000Y-166110000D03*
D17*
X67000000Y-171550000D03*
G04 #@! TD*
G04 #@! TO.C,D13*
X102000000Y-76550000D03*
D19*
X102000000Y-71110000D03*
D18*
X102000000Y-78730000D03*
D17*
X102000000Y-73290000D03*
G04 #@! TD*
G04 #@! TO.C,D14*
X102000000Y-95550000D03*
D19*
X102000000Y-90110000D03*
D18*
X102000000Y-97730000D03*
D17*
X102000000Y-92290000D03*
G04 #@! TD*
G04 #@! TO.C,D15*
X102000000Y-114550000D03*
D19*
X102000000Y-109110000D03*
D18*
X102000000Y-116730000D03*
D17*
X102000000Y-111290000D03*
G04 #@! TD*
G04 #@! TO.C,D16*
X102000000Y-130290000D03*
D18*
X102000000Y-135730000D03*
D19*
X102000000Y-128110000D03*
D17*
X102000000Y-133550000D03*
G04 #@! TD*
G04 #@! TO.C,D17*
X102000000Y-152550000D03*
D19*
X102000000Y-147110000D03*
D18*
X102000000Y-154730000D03*
D17*
X102000000Y-149290000D03*
G04 #@! TD*
G04 #@! TO.C,D18*
X102000000Y-168290000D03*
D18*
X102000000Y-173730000D03*
D19*
X102000000Y-166110000D03*
D17*
X102000000Y-171550000D03*
G04 #@! TD*
G04 #@! TO.C,D19*
X105000000Y-73290000D03*
D18*
X105000000Y-78730000D03*
D19*
X105000000Y-71110000D03*
D17*
X105000000Y-76550000D03*
G04 #@! TD*
G04 #@! TO.C,D20*
X105000000Y-92290000D03*
D18*
X105000000Y-97730000D03*
D19*
X105000000Y-90110000D03*
D17*
X105000000Y-95550000D03*
G04 #@! TD*
G04 #@! TO.C,D21*
X105000000Y-114550000D03*
D19*
X105000000Y-109110000D03*
D18*
X105000000Y-116730000D03*
D17*
X105000000Y-111290000D03*
G04 #@! TD*
G04 #@! TO.C,D22*
X105000000Y-130290000D03*
D18*
X105000000Y-135730000D03*
D19*
X105000000Y-128110000D03*
D17*
X105000000Y-133550000D03*
G04 #@! TD*
G04 #@! TO.C,D23*
X105000000Y-152550000D03*
D19*
X105000000Y-147110000D03*
D18*
X105000000Y-154730000D03*
D17*
X105000000Y-149290000D03*
G04 #@! TD*
G04 #@! TO.C,D24*
X105000000Y-168290000D03*
D18*
X105000000Y-173730000D03*
D19*
X105000000Y-166110000D03*
D17*
X105000000Y-171550000D03*
G04 #@! TD*
G04 #@! TO.C,D25*
X140000000Y-76550000D03*
D19*
X140000000Y-71110000D03*
D18*
X140000000Y-78730000D03*
D17*
X140000000Y-73290000D03*
G04 #@! TD*
G04 #@! TO.C,D26*
X140000000Y-95550000D03*
D19*
X140000000Y-90110000D03*
D18*
X140000000Y-97730000D03*
D17*
X140000000Y-92290000D03*
G04 #@! TD*
G04 #@! TO.C,D27*
X140000000Y-114550000D03*
D19*
X140000000Y-109110000D03*
D18*
X140000000Y-116730000D03*
D17*
X140000000Y-111290000D03*
G04 #@! TD*
G04 #@! TO.C,D28*
X140000000Y-130290000D03*
D18*
X140000000Y-135730000D03*
D19*
X140000000Y-128110000D03*
D17*
X140000000Y-133550000D03*
G04 #@! TD*
G04 #@! TO.C,D29*
X140000000Y-152550000D03*
D19*
X140000000Y-147110000D03*
D18*
X140000000Y-154730000D03*
D17*
X140000000Y-149290000D03*
G04 #@! TD*
G04 #@! TO.C,D30*
X140000000Y-168290000D03*
D18*
X140000000Y-173730000D03*
D19*
X140000000Y-166110000D03*
D17*
X140000000Y-171550000D03*
G04 #@! TD*
G04 #@! TO.C,D31*
X143000000Y-73290000D03*
D18*
X143000000Y-78730000D03*
D19*
X143000000Y-71110000D03*
D17*
X143000000Y-76550000D03*
G04 #@! TD*
G04 #@! TO.C,D32*
X143000000Y-92290000D03*
D18*
X143000000Y-97730000D03*
D19*
X143000000Y-90110000D03*
D17*
X143000000Y-95550000D03*
G04 #@! TD*
G04 #@! TO.C,D33*
X143000000Y-114550000D03*
D19*
X143000000Y-109110000D03*
D18*
X143000000Y-116730000D03*
D17*
X143000000Y-111290000D03*
G04 #@! TD*
G04 #@! TO.C,D34*
X143000000Y-130290000D03*
D18*
X143000000Y-135730000D03*
D19*
X143000000Y-128110000D03*
D17*
X143000000Y-133550000D03*
G04 #@! TD*
G04 #@! TO.C,D35*
X143000000Y-149290000D03*
D18*
X143000000Y-154730000D03*
D19*
X143000000Y-147110000D03*
D17*
X143000000Y-152550000D03*
G04 #@! TD*
G04 #@! TO.C,D36*
X143000000Y-168290000D03*
D18*
X143000000Y-173730000D03*
D19*
X143000000Y-166110000D03*
D17*
X143000000Y-171550000D03*
G04 #@! TD*
D20*
G04 #@! TO.C,R1*
X108098000Y-51816000D03*
D18*
X113538000Y-51816000D03*
X105918000Y-51816000D03*
D20*
X111358000Y-51816000D03*
G04 #@! TD*
G04 #@! TO.C,R2*
X111337000Y-55118000D03*
D18*
X105897000Y-55118000D03*
X113517000Y-55118000D03*
D20*
X108077000Y-55118000D03*
G04 #@! TD*
D10*
G04 #@! TO.C,SW1*
X59175000Y-71190000D03*
D11*
X58736629Y-70291206D02*
X59613371Y-72088794D01*
D12*
X52190000Y-72460000D03*
D13*
X61080000Y-75000000D03*
X50920000Y-75000000D03*
D14*
X56000000Y-75000000D03*
D12*
X53460000Y-69920000D03*
X58540000Y-69920000D03*
X59810000Y-72460000D03*
D10*
X52825000Y-71190000D03*
D11*
X53263371Y-70291206D02*
X52386629Y-72088794D01*
G04 #@! TD*
D10*
G04 #@! TO.C,SW3*
X59175000Y-109190000D03*
D11*
X58736629Y-108291206D02*
X59613371Y-110088794D01*
D12*
X52190000Y-110460000D03*
D13*
X61080000Y-113000000D03*
X50920000Y-113000000D03*
D14*
X56000000Y-113000000D03*
D12*
X53460000Y-107920000D03*
X58540000Y-107920000D03*
X59810000Y-110460000D03*
D10*
X52825000Y-109190000D03*
D11*
X53263371Y-108291206D02*
X52386629Y-110088794D01*
G04 #@! TD*
D10*
G04 #@! TO.C,SW4*
X52825000Y-128190000D03*
D11*
X53263371Y-127291206D02*
X52386629Y-129088794D01*
D12*
X59810000Y-129460000D03*
X58540000Y-126920000D03*
X53460000Y-126920000D03*
D14*
X56000000Y-132000000D03*
D13*
X50920000Y-132000000D03*
X61080000Y-132000000D03*
D12*
X52190000Y-129460000D03*
D10*
X59175000Y-128190000D03*
D11*
X58736629Y-127291206D02*
X59613371Y-129088794D01*
G04 #@! TD*
D10*
G04 #@! TO.C,SW5*
X52825000Y-147190000D03*
D11*
X53263371Y-146291206D02*
X52386629Y-148088794D01*
D12*
X59810000Y-148460000D03*
X58540000Y-145920000D03*
X53460000Y-145920000D03*
D14*
X56000000Y-151000000D03*
D13*
X50920000Y-151000000D03*
X61080000Y-151000000D03*
D12*
X52190000Y-148460000D03*
D10*
X59175000Y-147190000D03*
D11*
X58736629Y-146291206D02*
X59613371Y-148088794D01*
G04 #@! TD*
D10*
G04 #@! TO.C,SW6*
X52825000Y-166190000D03*
D11*
X53263371Y-165291206D02*
X52386629Y-167088794D01*
D12*
X59810000Y-167460000D03*
X58540000Y-164920000D03*
X53460000Y-164920000D03*
D14*
X56000000Y-170000000D03*
D13*
X50920000Y-170000000D03*
X61080000Y-170000000D03*
D12*
X52190000Y-167460000D03*
D10*
X59175000Y-166190000D03*
D11*
X58736629Y-165291206D02*
X59613371Y-167088794D01*
G04 #@! TD*
D10*
G04 #@! TO.C,SW7*
X78175000Y-71190000D03*
D11*
X77736629Y-70291206D02*
X78613371Y-72088794D01*
D12*
X71190000Y-72460000D03*
D13*
X80080000Y-75000000D03*
X69920000Y-75000000D03*
D14*
X75000000Y-75000000D03*
D12*
X72460000Y-69920000D03*
X77540000Y-69920000D03*
X78810000Y-72460000D03*
D10*
X71825000Y-71190000D03*
D11*
X72263371Y-70291206D02*
X71386629Y-72088794D01*
G04 #@! TD*
D10*
G04 #@! TO.C,SW8*
X78175000Y-90190000D03*
D11*
X77736629Y-89291206D02*
X78613371Y-91088794D01*
D12*
X71190000Y-91460000D03*
D13*
X80080000Y-94000000D03*
X69920000Y-94000000D03*
D14*
X75000000Y-94000000D03*
D12*
X72460000Y-88920000D03*
X77540000Y-88920000D03*
X78810000Y-91460000D03*
D10*
X71825000Y-90190000D03*
D11*
X72263371Y-89291206D02*
X71386629Y-91088794D01*
G04 #@! TD*
D10*
G04 #@! TO.C,SW9*
X78175000Y-109190000D03*
D11*
X77736629Y-108291206D02*
X78613371Y-110088794D01*
D12*
X71190000Y-110460000D03*
D13*
X80080000Y-113000000D03*
X69920000Y-113000000D03*
D14*
X75000000Y-113000000D03*
D12*
X72460000Y-107920000D03*
X77540000Y-107920000D03*
X78810000Y-110460000D03*
D10*
X71825000Y-109190000D03*
D11*
X72263371Y-108291206D02*
X71386629Y-110088794D01*
G04 #@! TD*
D10*
G04 #@! TO.C,SW10*
X71825000Y-128190000D03*
D11*
X72263371Y-127291206D02*
X71386629Y-129088794D01*
D12*
X78810000Y-129460000D03*
X77540000Y-126920000D03*
X72460000Y-126920000D03*
D14*
X75000000Y-132000000D03*
D13*
X69920000Y-132000000D03*
X80080000Y-132000000D03*
D12*
X71190000Y-129460000D03*
D10*
X78175000Y-128190000D03*
D11*
X77736629Y-127291206D02*
X78613371Y-129088794D01*
G04 #@! TD*
D10*
G04 #@! TO.C,SW11*
X71825000Y-147190000D03*
D11*
X72263371Y-146291206D02*
X71386629Y-148088794D01*
D12*
X78810000Y-148460000D03*
X77540000Y-145920000D03*
X72460000Y-145920000D03*
D14*
X75000000Y-151000000D03*
D13*
X69920000Y-151000000D03*
X80080000Y-151000000D03*
D12*
X71190000Y-148460000D03*
D10*
X78175000Y-147190000D03*
D11*
X77736629Y-146291206D02*
X78613371Y-148088794D01*
G04 #@! TD*
D10*
G04 #@! TO.C,SW12*
X71825000Y-166190000D03*
D11*
X72263371Y-165291206D02*
X71386629Y-167088794D01*
D12*
X78810000Y-167460000D03*
X77540000Y-164920000D03*
X72460000Y-164920000D03*
D14*
X75000000Y-170000000D03*
D13*
X69920000Y-170000000D03*
X80080000Y-170000000D03*
D12*
X71190000Y-167460000D03*
D10*
X78175000Y-166190000D03*
D11*
X77736629Y-165291206D02*
X78613371Y-167088794D01*
G04 #@! TD*
D10*
G04 #@! TO.C,SW13*
X90825000Y-71190000D03*
D11*
X91263371Y-70291206D02*
X90386629Y-72088794D01*
D12*
X97810000Y-72460000D03*
X96540000Y-69920000D03*
X91460000Y-69920000D03*
D14*
X94000000Y-75000000D03*
D13*
X88920000Y-75000000D03*
X99080000Y-75000000D03*
D12*
X90190000Y-72460000D03*
D10*
X97175000Y-71190000D03*
D11*
X96736629Y-70291206D02*
X97613371Y-72088794D01*
G04 #@! TD*
D10*
G04 #@! TO.C,SW14*
X97175000Y-90190000D03*
D11*
X96736629Y-89291206D02*
X97613371Y-91088794D01*
D12*
X90190000Y-91460000D03*
D13*
X99080000Y-94000000D03*
X88920000Y-94000000D03*
D14*
X94000000Y-94000000D03*
D12*
X91460000Y-88920000D03*
X96540000Y-88920000D03*
X97810000Y-91460000D03*
D10*
X90825000Y-90190000D03*
D11*
X91263371Y-89291206D02*
X90386629Y-91088794D01*
G04 #@! TD*
D10*
G04 #@! TO.C,SW15*
X97175000Y-109190000D03*
D11*
X96736629Y-108291206D02*
X97613371Y-110088794D01*
D12*
X90190000Y-110460000D03*
D13*
X99080000Y-113000000D03*
X88920000Y-113000000D03*
D14*
X94000000Y-113000000D03*
D12*
X91460000Y-107920000D03*
X96540000Y-107920000D03*
X97810000Y-110460000D03*
D10*
X90825000Y-109190000D03*
D11*
X91263371Y-108291206D02*
X90386629Y-110088794D01*
G04 #@! TD*
D10*
G04 #@! TO.C,SW16*
X90825000Y-128190000D03*
D11*
X91263371Y-127291206D02*
X90386629Y-129088794D01*
D12*
X97810000Y-129460000D03*
X96540000Y-126920000D03*
X91460000Y-126920000D03*
D14*
X94000000Y-132000000D03*
D13*
X88920000Y-132000000D03*
X99080000Y-132000000D03*
D12*
X90190000Y-129460000D03*
D10*
X97175000Y-128190000D03*
D11*
X96736629Y-127291206D02*
X97613371Y-129088794D01*
G04 #@! TD*
D10*
G04 #@! TO.C,SW17*
X97175000Y-147190000D03*
D11*
X96736629Y-146291206D02*
X97613371Y-148088794D01*
D12*
X90190000Y-148460000D03*
D13*
X99080000Y-151000000D03*
X88920000Y-151000000D03*
D14*
X94000000Y-151000000D03*
D12*
X91460000Y-145920000D03*
X96540000Y-145920000D03*
X97810000Y-148460000D03*
D10*
X90825000Y-147190000D03*
D11*
X91263371Y-146291206D02*
X90386629Y-148088794D01*
G04 #@! TD*
D10*
G04 #@! TO.C,SW18*
X90825000Y-166190000D03*
D11*
X91263371Y-165291206D02*
X90386629Y-167088794D01*
D12*
X97810000Y-167460000D03*
X96540000Y-164920000D03*
X91460000Y-164920000D03*
D14*
X94000000Y-170000000D03*
D13*
X88920000Y-170000000D03*
X99080000Y-170000000D03*
D12*
X90190000Y-167460000D03*
D10*
X97175000Y-166190000D03*
D11*
X96736629Y-165291206D02*
X97613371Y-167088794D01*
G04 #@! TD*
D10*
G04 #@! TO.C,SW19*
X109825000Y-71190000D03*
D11*
X110263371Y-70291206D02*
X109386629Y-72088794D01*
D12*
X116810000Y-72460000D03*
X115540000Y-69920000D03*
X110460000Y-69920000D03*
D14*
X113000000Y-75000000D03*
D13*
X107920000Y-75000000D03*
X118080000Y-75000000D03*
D12*
X109190000Y-72460000D03*
D10*
X116175000Y-71190000D03*
D11*
X115736629Y-70291206D02*
X116613371Y-72088794D01*
G04 #@! TD*
D10*
G04 #@! TO.C,SW20*
X116175000Y-90190000D03*
D11*
X115736629Y-89291206D02*
X116613371Y-91088794D01*
D12*
X109190000Y-91460000D03*
D13*
X118080000Y-94000000D03*
X107920000Y-94000000D03*
D14*
X113000000Y-94000000D03*
D12*
X110460000Y-88920000D03*
X115540000Y-88920000D03*
X116810000Y-91460000D03*
D10*
X109825000Y-90190000D03*
D11*
X110263371Y-89291206D02*
X109386629Y-91088794D01*
G04 #@! TD*
D10*
G04 #@! TO.C,SW21*
X116175000Y-109190000D03*
D11*
X115736629Y-108291206D02*
X116613371Y-110088794D01*
D12*
X109190000Y-110460000D03*
D13*
X118080000Y-113000000D03*
X107920000Y-113000000D03*
D14*
X113000000Y-113000000D03*
D12*
X110460000Y-107920000D03*
X115540000Y-107920000D03*
X116810000Y-110460000D03*
D10*
X109825000Y-109190000D03*
D11*
X110263371Y-108291206D02*
X109386629Y-110088794D01*
G04 #@! TD*
D10*
G04 #@! TO.C,SW22*
X109825000Y-128190000D03*
D11*
X110263371Y-127291206D02*
X109386629Y-129088794D01*
D12*
X116810000Y-129460000D03*
X115540000Y-126920000D03*
X110460000Y-126920000D03*
D14*
X113000000Y-132000000D03*
D13*
X107920000Y-132000000D03*
X118080000Y-132000000D03*
D12*
X109190000Y-129460000D03*
D10*
X116175000Y-128190000D03*
D11*
X115736629Y-127291206D02*
X116613371Y-129088794D01*
G04 #@! TD*
D10*
G04 #@! TO.C,SW23*
X109825000Y-147190000D03*
D11*
X110263371Y-146291206D02*
X109386629Y-148088794D01*
D12*
X116810000Y-148460000D03*
X115540000Y-145920000D03*
X110460000Y-145920000D03*
D14*
X113000000Y-151000000D03*
D13*
X107920000Y-151000000D03*
X118080000Y-151000000D03*
D12*
X109190000Y-148460000D03*
D10*
X116175000Y-147190000D03*
D11*
X115736629Y-146291206D02*
X116613371Y-148088794D01*
G04 #@! TD*
D10*
G04 #@! TO.C,SW24*
X109825000Y-166190000D03*
D11*
X110263371Y-165291206D02*
X109386629Y-167088794D01*
D12*
X116810000Y-167460000D03*
X115540000Y-164920000D03*
X110460000Y-164920000D03*
D14*
X113000000Y-170000000D03*
D13*
X107920000Y-170000000D03*
X118080000Y-170000000D03*
D12*
X109190000Y-167460000D03*
D10*
X116175000Y-166190000D03*
D11*
X115736629Y-165291206D02*
X116613371Y-167088794D01*
G04 #@! TD*
D10*
G04 #@! TO.C,SW25*
X135175000Y-71190000D03*
D11*
X134736629Y-70291206D02*
X135613371Y-72088794D01*
D12*
X128190000Y-72460000D03*
D13*
X137080000Y-75000000D03*
X126920000Y-75000000D03*
D14*
X132000000Y-75000000D03*
D12*
X129460000Y-69920000D03*
X134540000Y-69920000D03*
X135810000Y-72460000D03*
D10*
X128825000Y-71190000D03*
D11*
X129263371Y-70291206D02*
X128386629Y-72088794D01*
G04 #@! TD*
D10*
G04 #@! TO.C,SW26*
X135175000Y-90190000D03*
D11*
X134736629Y-89291206D02*
X135613371Y-91088794D01*
D12*
X128190000Y-91460000D03*
D13*
X137080000Y-94000000D03*
X126920000Y-94000000D03*
D14*
X132000000Y-94000000D03*
D12*
X129460000Y-88920000D03*
X134540000Y-88920000D03*
X135810000Y-91460000D03*
D10*
X128825000Y-90190000D03*
D11*
X129263371Y-89291206D02*
X128386629Y-91088794D01*
G04 #@! TD*
D10*
G04 #@! TO.C,SW27*
X135175000Y-109190000D03*
D11*
X134736629Y-108291206D02*
X135613371Y-110088794D01*
D12*
X128190000Y-110460000D03*
D13*
X137080000Y-113000000D03*
X126920000Y-113000000D03*
D14*
X132000000Y-113000000D03*
D12*
X129460000Y-107920000D03*
X134540000Y-107920000D03*
X135810000Y-110460000D03*
D10*
X128825000Y-109190000D03*
D11*
X129263371Y-108291206D02*
X128386629Y-110088794D01*
G04 #@! TD*
D10*
G04 #@! TO.C,SW28*
X128825000Y-128190000D03*
D11*
X129263371Y-127291206D02*
X128386629Y-129088794D01*
D12*
X135810000Y-129460000D03*
X134540000Y-126920000D03*
X129460000Y-126920000D03*
D14*
X132000000Y-132000000D03*
D13*
X126920000Y-132000000D03*
X137080000Y-132000000D03*
D12*
X128190000Y-129460000D03*
D10*
X135175000Y-128190000D03*
D11*
X134736629Y-127291206D02*
X135613371Y-129088794D01*
G04 #@! TD*
D10*
G04 #@! TO.C,SW29*
X128825000Y-147190000D03*
D11*
X129263371Y-146291206D02*
X128386629Y-148088794D01*
D12*
X135810000Y-148460000D03*
X134540000Y-145920000D03*
X129460000Y-145920000D03*
D14*
X132000000Y-151000000D03*
D13*
X126920000Y-151000000D03*
X137080000Y-151000000D03*
D12*
X128190000Y-148460000D03*
D10*
X135175000Y-147190000D03*
D11*
X134736629Y-146291206D02*
X135613371Y-148088794D01*
G04 #@! TD*
D10*
G04 #@! TO.C,SW30*
X128825000Y-166190000D03*
D11*
X129263371Y-165291206D02*
X128386629Y-167088794D01*
D12*
X135810000Y-167460000D03*
X134540000Y-164920000D03*
X129460000Y-164920000D03*
D14*
X132000000Y-170000000D03*
D13*
X126920000Y-170000000D03*
X137080000Y-170000000D03*
D12*
X128190000Y-167460000D03*
D10*
X135175000Y-166190000D03*
D11*
X134736629Y-165291206D02*
X135613371Y-167088794D01*
G04 #@! TD*
D10*
G04 #@! TO.C,SW31*
X154175000Y-71190000D03*
D11*
X153736629Y-70291206D02*
X154613371Y-72088794D01*
D12*
X147190000Y-72460000D03*
D13*
X156080000Y-75000000D03*
X145920000Y-75000000D03*
D14*
X151000000Y-75000000D03*
D12*
X148460000Y-69920000D03*
X153540000Y-69920000D03*
X154810000Y-72460000D03*
D10*
X147825000Y-71190000D03*
D11*
X148263371Y-70291206D02*
X147386629Y-72088794D01*
G04 #@! TD*
D10*
G04 #@! TO.C,SW32*
X154175000Y-90190000D03*
D11*
X153736629Y-89291206D02*
X154613371Y-91088794D01*
D12*
X147190000Y-91460000D03*
D13*
X156080000Y-94000000D03*
X145920000Y-94000000D03*
D14*
X151000000Y-94000000D03*
D12*
X148460000Y-88920000D03*
X153540000Y-88920000D03*
X154810000Y-91460000D03*
D10*
X147825000Y-90190000D03*
D11*
X148263371Y-89291206D02*
X147386629Y-91088794D01*
G04 #@! TD*
D10*
G04 #@! TO.C,SW33*
X154175000Y-109190000D03*
D11*
X153736629Y-108291206D02*
X154613371Y-110088794D01*
D12*
X147190000Y-110460000D03*
D13*
X156080000Y-113000000D03*
X145920000Y-113000000D03*
D14*
X151000000Y-113000000D03*
D12*
X148460000Y-107920000D03*
X153540000Y-107920000D03*
X154810000Y-110460000D03*
D10*
X147825000Y-109190000D03*
D11*
X148263371Y-108291206D02*
X147386629Y-110088794D01*
G04 #@! TD*
D10*
G04 #@! TO.C,SW34*
X154175000Y-128190000D03*
D11*
X153736629Y-127291206D02*
X154613371Y-129088794D01*
D12*
X147190000Y-129460000D03*
D13*
X156080000Y-132000000D03*
X145920000Y-132000000D03*
D14*
X151000000Y-132000000D03*
D12*
X148460000Y-126920000D03*
X153540000Y-126920000D03*
X154810000Y-129460000D03*
D10*
X147825000Y-128190000D03*
D11*
X148263371Y-127291206D02*
X147386629Y-129088794D01*
G04 #@! TD*
D10*
G04 #@! TO.C,SW35*
X147825000Y-147190000D03*
D11*
X148263371Y-146291206D02*
X147386629Y-148088794D01*
D12*
X154810000Y-148460000D03*
X153540000Y-145920000D03*
X148460000Y-145920000D03*
D14*
X151000000Y-151000000D03*
D13*
X145920000Y-151000000D03*
X156080000Y-151000000D03*
D12*
X147190000Y-148460000D03*
D10*
X154175000Y-147190000D03*
D11*
X153736629Y-146291206D02*
X154613371Y-148088794D01*
G04 #@! TD*
D10*
G04 #@! TO.C,SW36*
X147825000Y-166190000D03*
D11*
X148263371Y-165291206D02*
X147386629Y-167088794D01*
D12*
X154810000Y-167460000D03*
X153540000Y-164920000D03*
X148460000Y-164920000D03*
D14*
X151000000Y-170000000D03*
D13*
X145920000Y-170000000D03*
X156080000Y-170000000D03*
D12*
X147190000Y-167460000D03*
D10*
X154175000Y-166190000D03*
D11*
X153736629Y-165291206D02*
X154613371Y-167088794D01*
G04 #@! TD*
D10*
G04 #@! TO.C,RESET*
X157500000Y-58000000D03*
X157500000Y-62500000D03*
X151000000Y-58000000D03*
X151000000Y-62500000D03*
G04 #@! TD*
D21*
G04 #@! TO.C,U1*
X135062000Y-43688000D03*
X132522000Y-43688000D03*
X129982000Y-43688000D03*
X127442000Y-43688000D03*
X124902000Y-43688000D03*
X122362000Y-43688000D03*
X119822000Y-43688000D03*
X117282000Y-43688000D03*
X114742000Y-43688000D03*
X112202000Y-43688000D03*
X109662000Y-43688000D03*
X107122000Y-43688000D03*
X104582000Y-43688000D03*
X102042000Y-43688000D03*
X99502000Y-43688000D03*
X96962000Y-43688000D03*
X94422000Y-43688000D03*
X94422000Y-61468000D03*
X96962000Y-61468000D03*
X99502000Y-61468000D03*
X102042000Y-61468000D03*
X104582000Y-61468000D03*
X107122000Y-61468000D03*
X109662000Y-61468000D03*
X112202000Y-61468000D03*
X114742000Y-61468000D03*
X117282000Y-61468000D03*
X119822000Y-61468000D03*
X122362000Y-61468000D03*
X124902000Y-61468000D03*
X127442000Y-61468000D03*
X129982000Y-61468000D03*
X132522000Y-61468000D03*
X135062000Y-61468000D03*
G04 #@! TD*
D22*
G04 #@! TO.C,U2*
X99905000Y-56175000D03*
X98635000Y-56175000D03*
X97365000Y-56175000D03*
X96095000Y-56175000D03*
X96095000Y-49825000D03*
X97365000Y-49825000D03*
X98635000Y-49825000D03*
X99905000Y-49825000D03*
G04 #@! TD*
D23*
G04 #@! TO.C,SDA1*
X154940000Y-54483000D03*
X154940000Y-53721000D03*
D24*
X154940000Y-54102000D03*
G04 #@! TD*
G04 #@! TO.C,SCL1 *
X152913000Y-54102000D03*
D23*
X152913000Y-53721000D03*
X152913000Y-54483000D03*
G04 #@! TD*
D25*
G04 #@! TO.C,TP1*
X132522000Y-40767000D03*
G04 #@! TD*
G04 #@! TO.C,TP2*
X127442000Y-40767000D03*
G04 #@! TD*
G04 #@! TO.C,TP3*
X122362000Y-40767000D03*
G04 #@! TD*
G04 #@! TO.C,TP4*
X117282000Y-40767000D03*
G04 #@! TD*
G04 #@! TO.C,TP5*
X112202000Y-40767000D03*
G04 #@! TD*
G04 #@! TO.C,TP6*
X107122000Y-40767000D03*
G04 #@! TD*
G04 #@! TO.C,TP7*
X102042000Y-40767000D03*
G04 #@! TD*
G04 #@! TO.C,TP8*
X135062000Y-40767000D03*
G04 #@! TD*
G04 #@! TO.C,TP9*
X129982000Y-40767000D03*
G04 #@! TD*
G04 #@! TO.C,TP10*
X124902000Y-40767000D03*
G04 #@! TD*
G04 #@! TO.C,TP11*
X119822000Y-40767000D03*
G04 #@! TD*
G04 #@! TO.C,TP12*
X114742000Y-40767000D03*
G04 #@! TD*
G04 #@! TO.C,TP13*
X109662000Y-40767000D03*
G04 #@! TD*
G04 #@! TO.C,TP14*
X104582000Y-40767000D03*
G04 #@! TD*
G04 #@! TO.C,TP15*
X99502000Y-40767000D03*
G04 #@! TD*
G04 #@! TO.C,TP16*
X135062000Y-64389000D03*
G04 #@! TD*
G04 #@! TO.C,TP17*
X129982000Y-64389000D03*
G04 #@! TD*
G04 #@! TO.C,TP18*
X124902000Y-64389000D03*
G04 #@! TD*
G04 #@! TO.C,TP19*
X119822000Y-64389000D03*
G04 #@! TD*
G04 #@! TO.C,TP20*
X114742000Y-64389000D03*
G04 #@! TD*
G04 #@! TO.C,TP21*
X109662000Y-64389000D03*
G04 #@! TD*
G04 #@! TO.C,TP22*
X102042000Y-64389000D03*
G04 #@! TD*
G04 #@! TO.C,TP23*
X96962000Y-64389000D03*
G04 #@! TD*
G04 #@! TO.C,TP24*
X132522000Y-64389000D03*
G04 #@! TD*
G04 #@! TO.C,TP25*
X127442000Y-64389000D03*
G04 #@! TD*
G04 #@! TO.C,TP26*
X122362000Y-64389000D03*
G04 #@! TD*
G04 #@! TO.C,TP27*
X117282000Y-64389000D03*
G04 #@! TD*
G04 #@! TO.C,TP28*
X112202000Y-64389000D03*
G04 #@! TD*
G04 #@! TO.C,TP29*
X107122000Y-64389000D03*
G04 #@! TD*
G04 #@! TO.C,TP30*
X99502000Y-64389000D03*
G04 #@! TD*
G04 #@! TO.C,R1*
X147320000Y-45720000D03*
G04 #@! TD*
G04 #@! TO.C,R2*
X147320000Y-43180000D03*
G04 #@! TD*
D26*
G04 #@! TO.C,0.1u*
X101600000Y-49850000D03*
X101600000Y-51350000D03*
G04 #@! TD*
D27*
G04 #@! TO.C,*
X103500000Y-122500000D03*
G04 #@! TD*
M02*
